<?xml version="1.0" standalone="no"?>
<!DOCTYPE svg PUBLIC "-//W3C//DTD SVG 20010904//EN"
 "http://www.w3.org/TR/2001/REC-SVG-20010904/DTD/svg10.dtd">
<svg version="1.0" xmlns="http://www.w3.org/2000/svg"
 width="1280.000000pt" height="1280.000000pt" viewBox="0 0 1280.000000 1280.000000"
 preserveAspectRatio="xMidYMid meet">
<metadata>
Created by potrace 1.14, written by Peter Selinger 2001-2017
</metadata>
<g transform="translate(0.000000,1280.000000) scale(0.100000,-0.100000)"
fill="#000000" stroke="none">
<path d="M6319 12796 c-2 -2 -24 -7 -49 -10 -301 -41 -605 -269 -735 -551 -57
-123 -76 -189 -92 -315 -50 -403 163 -810 522 -997 107 -55 239 -100 303 -102
l22 -1 0 -305 0 -305 -87 55 c-49 30 -143 90 -211 133 -67 42 -133 84 -147 92
-192 116 -575 365 -575 374 0 6 9 25 19 43 27 43 77 196 87 263 13 82 9 277
-6 345 -7 33 -14 65 -16 70 -17 78 -101 244 -164 323 -191 242 -463 373 -766
367 -261 -5 -483 -100 -661 -282 -134 -137 -217 -294 -259 -488 -14 -63 -13
-280 1 -350 88 -449 465 -767 920 -774 208 -3 411 61 575 182 30 23 61 47 68
54 15 15 26 11 112 -47 31 -20 62 -39 70 -43 8 -4 103 -63 210 -131 107 -69
338 -214 512 -323 l317 -198 1 -825 c0 -454 3 -835 6 -846 6 -22 -4 -27 -75
-41 -137 -25 -343 -134 -461 -242 -30 -28 -58 -50 -61 -51 -4 0 -53 64 -110
143 -56 78 -113 156 -127 174 l-23 32 68 44 c194 128 341 325 408 547 31 103
39 165 39 290 0 117 -8 173 -34 268 -54 194 -140 325 -333 506 -45 42 -184
119 -302 167 -25 10 -136 35 -194 44 -50 8 -225 9 -261 1 -13 -3 -42 -8 -65
-12 -101 -14 -256 -80 -369 -156 -214 -145 -381 -405 -419 -656 -3 -19 -7 -35
-9 -37 -2 -2 -22 13 -44 33 -23 20 -108 93 -189 162 -81 69 -154 131 -161 138
-11 11 -5 23 32 75 114 154 166 317 166 517 -1 175 -54 342 -156 483 -281 392
-826 480 -1204 195 -468 -353 -461 -1043 15 -1384 243 -175 574 -206 849 -80
l57 26 66 -57 c36 -32 77 -68 91 -79 14 -12 50 -43 80 -69 30 -26 66 -57 80
-69 14 -12 75 -64 136 -116 170 -147 198 -170 206 -170 3 0 14 -24 23 -52 83
-255 296 -486 547 -595 139 -60 215 -75 383 -77 83 0 164 2 182 6 34 7 12 34
350 -431 l42 -58 -28 -59 c-92 -194 -124 -448 -85 -659 79 -418 390 -752 800
-858 l84 -22 0 -1038 0 -1039 -150 188 c-83 104 -156 196 -163 204 -7 8 -47
58 -89 111 l-76 96 35 49 c270 377 184 896 -193 1167 -94 68 -235 124 -359
144 -75 12 -268 5 -294 -11 -5 -4 -35 36 -67 89 l-56 95 53 57 c119 130 210
307 246 477 27 127 23 324 -11 451 -74 281 -266 519 -520 643 -83 40 -184 76
-246 86 -19 3 -46 9 -60 12 -31 7 -246 7 -280 -1 -14 -3 -41 -8 -60 -11 -105
-19 -251 -80 -359 -152 -123 -82 -265 -241 -326 -367 l-27 -55 -360 359 -359
360 31 49 c16 27 30 52 30 55 0 4 11 30 24 59 22 48 43 117 62 203 3 17 8 84
10 150 5 174 -24 308 -99 460 -245 499 -843 702 -1342 455 -290 -144 -497
-433 -541 -755 -19 -143 -5 -308 37 -435 31 -96 67 -168 125 -255 148 -222
377 -375 639 -426 87 -17 300 -17 380 0 155 33 339 120 433 205 l23 20 287
-287 287 -287 -101 0 -100 0 -13 38 c-31 85 -122 188 -209 235 -88 48 -224 70
-317 52 -221 -43 -386 -239 -386 -458 0 -40 2 -81 5 -92 14 -66 22 -86 53
-145 122 -226 410 -313 637 -192 71 37 175 145 206 212 14 30 28 57 31 60 6 4
422 5 439 1 3 0 6 -43 7 -94 7 -288 169 -584 414 -759 107 -77 256 -144 359
-163 14 -3 36 -8 50 -11 14 -3 79 -8 145 -10 153 -5 285 20 427 80 l37 16 41
-68 40 -67 -32 -24 c-144 -108 -268 -288 -315 -456 -49 -179 -31 -403 48 -572
27 -56 78 -142 99 -163 3 -3 21 -23 40 -45 l35 -39 -30 18 c-16 10 -46 30 -65
45 -19 14 -44 33 -56 41 -71 48 -264 192 -269 200 -3 5 1 20 10 34 34 51 57
132 60 212 17 367 -357 610 -687 446 -239 -119 -330 -427 -194 -660 106 -180
330 -275 525 -222 35 9 43 8 73 -13 73 -50 179 -129 176 -132 -2 -1 -32 -6
-68 -9 -36 -4 -83 -9 -105 -11 -22 -2 -67 -7 -100 -10 -33 -3 -78 -8 -100 -11
-37 -4 -49 2 -168 83 -450 310 -591 410 -598 423 -4 8 -20 69 -35 135 -14 66
-37 164 -50 217 -32 128 -31 132 13 153 20 10 69 50 109 90 78 78 131 172 154
274 12 49 16 184 7 221 -2 8 -7 31 -11 50 -17 79 -79 184 -151 255 -265 265
-696 212 -890 -110 -70 -117 -96 -270 -69 -405 44 -216 233 -403 444 -441 36
-6 70 -13 75 -14 6 -2 28 -79 49 -171 20 -93 42 -179 46 -191 5 -13 6 -23 2
-24 -4 0 -14 -2 -23 -4 -16 -3 -126 -9 -354 -20 -60 -3 -120 -8 -132 -10 -22
-5 -23 -2 -24 47 0 29 -2 62 -4 73 -2 11 -6 37 -9 57 -26 167 -150 353 -301
453 -119 79 -234 115 -380 119 -397 11 -725 -304 -728 -699 0 -49 2 -101 5
-115 3 -14 9 -43 13 -65 12 -66 88 -216 144 -283 142 -170 332 -257 556 -256
196 2 356 69 506 214 20 19 106 136 111 151 4 13 21 15 208 24 74 4 153 9 175
10 22 2 94 7 160 10 66 4 141 8 168 9 47 3 52 0 265 -145 119 -82 219 -154
220 -159 2 -6 -14 -10 -35 -11 -65 0 -157 -11 -172 -19 -9 -5 -35 5 -70 26
-141 84 -306 124 -495 119 -141 -3 -155 -5 -260 -36 -251 -75 -477 -264 -590
-495 -74 -152 -104 -289 -100 -461 5 -256 98 -476 279 -659 378 -384 997 -386
1376 -5 41 42 95 105 119 140 49 73 110 202 131 276 16 58 13 48 23 106 l8 46
148 1 149 1 -35 -69 c-46 -93 -62 -159 -62 -263 0 -105 18 -179 66 -271 66
-127 228 -256 352 -281 163 -33 289 -18 417 50 61 32 123 82 163 132 19 24 40
49 46 56 19 23 63 124 75 173 18 76 19 182 4 257 -15 71 -55 169 -81 198 -14
16 26 17 625 17 469 0 641 -3 644 -12 5 -15 1 -490 -8 -881 -6 -314 -9 -386
-20 -620 -13 -267 -14 -301 -19 -360 -3 -33 -8 -96 -11 -140 -4 -44 -8 -91
-10 -105 -2 -14 -7 -57 -10 -96 -3 -39 -7 -80 -9 -91 -3 -11 -7 -44 -11 -74
-4 -30 -11 -76 -17 -104 -5 -27 -12 -63 -14 -80 -3 -16 -18 -66 -32 -110 -29
-84 -36 -91 -238 -253 -131 -105 -414 -267 -539 -309 -5 -1 -55 -18 -110 -37
-102 -34 -289 -80 -380 -92 -27 -3 -59 -8 -70 -10 -11 -2 -54 -7 -95 -10 -41
-4 -77 -8 -80 -11 -2 -2 901 -3 2008 -2 1107 0 2012 5 2012 9 0 4 -15 11 -33
14 -109 20 -400 124 -552 197 -420 200 -669 452 -730 740 -18 81 -20 94 -35
219 -6 47 -12 101 -15 120 -4 34 -15 171 -20 255 -2 22 -6 110 -10 195 -4 85
-9 189 -11 230 -2 41 -6 302 -8 580 -4 385 -2 509 7 520 7 8 41 40 77 70 36
30 70 60 76 65 6 6 33 29 60 51 27 23 60 52 74 64 14 12 39 33 55 45 l30 23
398 0 c219 0 397 -3 395 -6 -2 -4 -18 -35 -36 -69 -47 -91 -65 -179 -59 -288
3 -49 13 -112 22 -140 63 -187 217 -331 405 -380 60 -16 187 -22 235 -11 137
29 207 67 312 167 128 123 189 332 149 512 -13 59 -41 128 -84 208 -1 4 76 7
172 7 l174 1 12 -52 c7 -29 28 -92 47 -142 121 -308 404 -540 733 -600 59 -11
264 -14 306 -5 21 5 53 11 69 13 56 9 190 58 255 94 260 145 435 381 495 669
16 75 22 260 11 314 -3 13 -8 42 -11 63 -17 114 -88 275 -171 387 -120 164
-307 298 -498 356 -126 38 -332 52 -456 29 -116 -20 -262 -79 -360 -144 -39
-26 -68 -38 -82 -36 -12 3 -37 6 -56 7 l-33 2 53 51 c29 27 111 104 183 170
71 66 136 126 143 133 9 8 29 10 60 7 150 -19 210 -26 237 -30 17 -2 53 -7 80
-10 28 -3 66 -8 85 -10 19 -3 51 -7 70 -10 19 -2 58 -7 85 -10 28 -4 69 -8 93
-10 42 -3 72 -18 72 -37 0 -5 20 -36 45 -68 228 -297 660 -363 970 -150 107
74 207 203 257 330 35 87 39 115 43 245 3 123 -14 211 -61 312 -97 208 -311
369 -534 401 -62 9 -202 8 -245 -1 -114 -26 -224 -76 -306 -141 -158 -124
-265 -330 -271 -524 -3 -63 -5 -72 -22 -72 -29 0 -510 61 -515 66 -4 4 2 35
49 249 33 150 38 176 39 188 1 4 16 7 35 7 98 0 220 41 311 105 161 114 246
285 240 486 -8 306 -262 550 -569 547 -381 -3 -648 -363 -541 -730 35 -123 94
-205 228 -316 15 -12 25 -27 22 -32 -3 -5 -13 -44 -21 -87 -9 -43 -20 -96 -25
-118 -13 -60 -15 -69 -44 -210 l-28 -130 -66 -65 c-65 -63 -97 -94 -311 -290
-57 -52 -131 -121 -164 -152 -55 -52 -65 -57 -96 -53 -54 6 -129 14 -200 20
-35 4 -66 8 -68 10 -3 3 28 170 53 283 5 20 11 22 73 22 132 0 243 45 335 135
189 186 190 483 2 671 -300 301 -807 87 -807 -340 0 -104 33 -198 100 -284 39
-50 40 -40 -7 -272 -43 -210 -33 -191 -94 -185 -106 11 -280 27 -294 28 -17 0
-18 -1 24 64 111 173 152 408 109 616 -20 93 -66 208 -110 272 -69 100 -129
163 -224 231 l-62 46 19 32 c10 17 40 68 66 113 l47 83 41 -21 c161 -83 421
-118 607 -83 253 47 475 186 624 389 77 105 149 255 170 356 3 13 8 38 11 54
10 49 13 85 14 183 l1 92 320 0 c176 0 320 -4 320 -9 0 -4 23 -31 50 -59 163
-163 421 -158 580 11 74 78 110 177 105 289 -7 179 -126 328 -297 374 -207 55
-429 -70 -489 -273 -7 -27 -18 -43 -28 -44 -79 -4 -301 -3 -301 1 0 3 121 126
268 273 l269 269 74 -56 c235 -177 511 -239 816 -182 51 10 200 65 251 93 203
112 370 292 451 487 55 133 74 227 75 376 1 156 -6 213 -41 319 -115 355 -398
606 -768 682 -88 18 -284 15 -383 -5 -76 -16 -210 -64 -272 -98 -112 -60 -259
-190 -338 -299 -193 -266 -238 -627 -117 -939 18 -47 41 -100 52 -118 l21 -33
-355 -355 c-195 -195 -358 -354 -363 -354 -5 0 -12 10 -16 22 -29 91 -196 278
-326 364 -396 264 -923 212 -1257 -124 -156 -156 -253 -352 -286 -577 -7 -42
-7 -218 -1 -250 2 -11 7 -40 11 -65 25 -154 113 -333 229 -468 l46 -54 -24
-41 c-14 -23 -51 -89 -84 -146 l-60 -104 -144 -2 c-102 -1 -161 -6 -207 -19
-328 -91 -557 -339 -616 -666 -15 -87 -13 -245 5 -310 7 -25 14 -56 16 -70 10
-53 105 -227 162 -295 l58 -69 -121 -105 c-66 -58 -122 -108 -125 -111 -3 -3
-23 -20 -45 -39 -22 -19 -71 -61 -109 -95 -37 -34 -73 -64 -80 -68 -13 -7 -16
2018 -3 2040 5 6 21 12 36 12 45 0 210 45 293 80 171 71 356 223 466 383 120
174 180 353 189 563 9 213 -23 365 -115 552 -46 94 -46 94 -25 110 11 10 80
106 152 214 l130 197 38 -7 c49 -9 254 -9 318 0 278 40 556 232 699 482 24 43
58 87 74 99 25 19 143 121 192 167 19 18 142 125 184 161 15 13 43 38 61 54
17 17 47 44 66 60 19 17 87 76 151 132 63 57 120 103 126 103 5 0 29 -9 54
-20 55 -24 147 -49 213 -57 526 -63 980 351 960 877 -4 119 -6 132 -40 238
-93 289 -344 511 -648 572 -282 57 -588 -42 -783 -253 -108 -116 -170 -230
-210 -386 -30 -116 -27 -318 5 -429 33 -113 103 -244 175 -327 14 -16 26 -34
25 -40 0 -5 -44 -47 -97 -92 -53 -46 -118 -102 -144 -125 -26 -24 -67 -60 -90
-80 -24 -21 -63 -55 -88 -77 l-45 -40 -12 91 c-31 230 -126 420 -292 585 -257
254 -647 350 -991 242 -348 -110 -600 -387 -686 -758 -12 -48 -13 -315 -3
-366 60 -282 203 -503 429 -657 41 -28 74 -55 72 -61 -3 -9 -178 -273 -193
-290 -4 -5 -36 13 -70 40 -156 121 -330 197 -509 224 l-75 11 1 831 c1 458 2
837 3 844 0 6 38 35 84 64 45 29 159 103 252 164 351 231 788 516 805 525 12
6 24 2 46 -17 118 -102 275 -177 439 -208 106 -21 315 -14 410 12 274 77 491
252 613 498 72 143 101 277 98 445 -9 454 -330 828 -783 913 -154 29 -374 6
-519 -54 -358 -149 -588 -487 -592 -870 -2 -156 33 -298 114 -475 3 -6 -53
-48 -123 -94 -134 -88 -307 -201 -631 -414 -107 -70 -199 -128 -205 -129 -8
-1 -11 81 -12 283 -1 157 1 291 3 298 2 6 11 12 20 12 34 0 151 35 227 67 307
132 524 404 590 743 14 74 15 288 0 355 -56 269 -210 501 -428 645 -118 78
-215 118 -379 156 -27 6 -284 15 -289 10z m182 -240 c259 -19 494 -181 612
-421 140 -285 86 -630 -135 -858 -288 -296 -757 -309 -1059 -30 -161 149 -243
338 -242 558 0 194 67 367 200 516 79 88 238 183 360 214 63 16 171 33 188 29
6 -1 40 -5 76 -8z m-1883 -540 c248 -66 442 -259 509 -508 12 -43 17 -101 18
-183 0 -103 -4 -132 -27 -205 -77 -240 -264 -419 -505 -481 -77 -20 -210 -27
-268 -15 -17 3 -45 8 -63 11 -107 18 -260 104 -352 199 -96 99 -178 259 -195
382 -20 141 4 294 64 418 105 214 282 347 536 400 45 9 224 -2 283 -18z m3962
-6 c186 -62 313 -160 408 -316 35 -55 78 -164 90 -222 9 -46 8 -246 -1 -287
-73 -332 -360 -565 -697 -566 -501 -2 -841 499 -660 974 79 209 284 381 514
432 90 19 264 12 346 -15z m-5471 -1284 c260 -88 424 -315 424 -586 0 -301
-212 -552 -510 -605 -299 -53 -586 121 -690 417 -33 94 -37 258 -9 353 39 130
132 261 239 339 56 41 155 84 227 99 95 21 230 13 319 -17z m7012 19 c227 -49
420 -238 473 -465 23 -101 15 -246 -19 -340 -57 -157 -165 -278 -310 -349
-240 -118 -512 -72 -712 121 -77 74 -142 198 -164 313 -10 51 -13 163 -5 201
2 12 7 38 10 58 7 44 54 149 89 201 118 174 321 277 528 270 42 -2 91 -6 110
-10z m-4986 -911 c217 -51 427 -221 512 -414 52 -118 65 -174 69 -295 7 -213
-58 -387 -204 -546 -100 -109 -266 -203 -393 -224 -24 -4 -53 -9 -64 -11 -41
-9 -182 -6 -220 4 -22 6 -54 14 -72 17 -64 11 -176 65 -258 125 -134 99 -242
264 -284 434 -16 66 -22 218 -11 281 16 89 20 105 40 159 78 208 264 385 475
452 140 44 274 50 410 18z m2895 11 c164 -25 345 -129 456 -263 275 -334 224
-814 -116 -1083 -232 -183 -560 -212 -820 -72 -147 80 -251 188 -324 338 -126
255 -100 543 69 780 115 163 319 283 510 302 33 3 61 7 63 8 5 4 116 -3 162
-10z m-6135 -624 c296 -69 526 -305 582 -596 10 -48 9 -258 -1 -300 -83 -365
-414 -622 -776 -601 -97 5 -112 7 -171 24 -241 69 -450 269 -519 499 -133 438
130 884 575 976 80 16 235 15 310 -2z m9400 0 c183 -43 365 -166 465 -314 82
-124 130 -278 130 -421 0 -219 -72 -391 -230 -546 -69 -69 -104 -94 -180 -133
-121 -60 -190 -78 -315 -83 -258 -9 -487 100 -643 307 -108 144 -168 370 -141
535 16 102 20 120 40 174 66 177 195 323 364 412 64 33 178 71 245 80 49 8
216 0 265 -11z m-4677 -1275 c359 -57 655 -360 709 -726 11 -77 5 -219 -12
-298 -21 -93 -69 -207 -120 -287 -35 -54 -148 -176 -200 -215 -227 -173 -560
-219 -822 -114 -268 107 -475 350 -529 619 -20 101 -22 252 -4 330 6 28 13 57
15 65 26 119 119 281 220 383 123 126 289 211 468 241 75 13 200 13 275 2z
m-2229 -395 c493 -128 720 -686 460 -1128 -46 -78 -180 -211 -259 -257 -36
-21 -105 -52 -155 -69 -79 -27 -105 -31 -217 -33 -102 -2 -141 1 -200 17 -258
71 -452 250 -536 494 -27 79 -34 123 -37 228 -10 388 280 719 675 770 64 8
195 -3 269 -22z m4401 14 c361 -61 629 -377 632 -745 0 -53 -2 -105 -5 -115
-4 -11 -9 -35 -12 -54 -10 -61 -61 -177 -108 -249 -111 -166 -268 -276 -461
-322 -118 -29 -290 -22 -401 15 -331 110 -546 420 -528 761 19 350 275 642
623 708 64 12 192 13 260 1z m1939 -304 c66 -47 89 -146 48 -216 -64 -113
-226 -110 -285 5 -61 120 21 247 154 237 32 -2 63 -12 83 -26z m-8344 -33
c204 -78 199 -366 -8 -443 -147 -55 -308 60 -310 220 -1 165 164 281 318 223z
m8027 -915 c65 -30 133 -95 165 -162 24 -48 28 -68 28 -141 0 -73 -5 -93 -29
-142 -33 -67 -98 -131 -164 -161 -72 -33 -209 -31 -277 5 -70 36 -123 91 -156
161 -25 54 -28 70 -26 146 2 71 8 95 30 138 44 84 125 151 212 174 52 14 166
4 217 -18z m-7658 -90 c77 -27 166 -120 191 -198 27 -85 24 -168 -9 -241 -81
-178 -277 -248 -453 -163 -97 47 -172 161 -178 271 -13 244 216 413 449 331z
m2596 -574 c59 -19 121 -48 159 -74 8 -5 47 -42 86 -81 234 -233 227 -608 -15
-837 -121 -114 -258 -167 -421 -162 -233 8 -426 135 -523 347 -74 159 -70 344
10 506 43 87 138 192 216 240 58 35 148 69 213 82 65 12 204 2 275 -21z m2360
-73 c69 -8 96 -15 151 -36 167 -66 303 -216 352 -390 77 -268 -55 -566 -304
-687 -101 -49 -163 -65 -261 -65 -268 0 -505 180 -577 439 -30 111 -23 252 18
358 83 213 268 357 493 384 34 4 68 6 73 5 6 -2 30 -5 55 -8z m-6110 -162
c122 -40 242 -156 291 -281 25 -67 35 -214 18 -279 -33 -121 -133 -253 -231
-302 -152 -77 -306 -79 -450 -6 -66 34 -168 135 -201 199 -142 281 11 607 320
685 54 13 190 5 253 -16z m7564 12 c58 -17 114 -66 142 -124 29 -58 25 -157
-9 -215 -93 -159 -324 -157 -411 3 -65 119 -17 268 104 324 59 27 109 31 174
12z m2426 -20 c136 -55 239 -168 282 -309 17 -57 20 -86 15 -162 -4 -80 -10
-103 -42 -169 -139 -290 -505 -365 -742 -152 -205 185 -210 504 -10 693 98 93
205 133 342 129 69 -3 105 -10 155 -30z m-7720 -129 c51 -22 106 -82 124 -135
30 -86 15 -166 -42 -232 -114 -134 -322 -103 -394 58 -86 192 116 391 312 309z
m1924 -1167 l196 -245 0 -91 0 -91 -113 1 -112 1 -140 99 c-77 55 -176 125
-220 156 -354 250 -485 344 -482 347 2 2 33 -4 68 -13 68 -18 242 -25 299 -13
19 4 49 10 65 12 39 6 129 38 180 65 22 11 45 19 52 19 6 -1 100 -112 207
-247z m4731 170 c77 -19 225 -94 288 -145 263 -214 344 -580 196 -890 -197
-417 -740 -544 -1108 -260 -102 77 -191 197 -236 314 -128 337 1 710 313 899
49 30 196 85 252 95 48 8 245 0 295 -13z m-7940 -34 c33 -3 69 -7 80 -9 266
-62 467 -242 549 -493 24 -74 27 -90 33 -190 13 -214 -71 -422 -231 -571 -139
-130 -302 -196 -486 -197 -120 0 -154 5 -255 39 -194 65 -357 220 -442 420
-55 128 -66 318 -28 460 71 268 295 479 565 532 51 10 125 19 140 16 8 -1 42
-4 75 -7z m4778 -39 c37 -16 114 -35 172 -42 53 -7 194 -7 206 1 30 18 -4 -15
-93 -92 -57 -49 -105 -91 -108 -94 -3 -3 -66 -57 -140 -120 -74 -63 -142 -121
-151 -129 -8 -9 -40 -36 -69 -61 -150 -126 -205 -173 -210 -179 -3 -3 -13 -13
-24 -21 -18 -14 -18 -8 -14 188 2 111 0 206 -5 211 -7 7 35 47 248 232 17 15
54 47 83 73 59 51 60 51 105 33z m972 -11 c44 -4 91 -9 105 -11 29 -4 146 -15
205 -20 22 -2 66 -6 98 -9 31 -3 83 -8 115 -11 31 -3 73 -8 92 -10 19 -2 67
-7 105 -10 39 -3 86 -8 105 -10 19 -2 94 -9 165 -15 72 -7 139 -13 150 -15 11
-2 25 -4 32 -4 7 -1 -2 -29 -24 -73 -43 -88 -67 -156 -83 -234 -6 -33 -13 -66
-16 -74 -4 -14 -100 -16 -871 -14 -478 1 -870 2 -872 3 -3 0 10 12 29 26 19
14 36 28 39 33 3 4 35 32 71 62 36 30 67 57 70 60 3 3 32 27 65 55 33 27 76
64 95 81 84 76 235 202 240 199 3 -1 41 -6 85 -9z m-3645 -99 c80 -57 241
-172 358 -255 117 -83 209 -152 205 -155 -11 -6 -1770 -3 -1776 3 -2 3 -12 37
-21 75 -21 84 -66 191 -112 263 -19 28 -30 52 -26 53 4 0 16 2 26 4 11 2 51 7
90 10 39 3 85 8 101 9 17 2 64 7 105 10 41 4 86 9 100 11 14 2 59 7 100 10 41
4 86 8 100 10 29 4 139 16 190 20 92 8 193 18 241 24 30 3 81 7 114 9 l60 2
145 -103z m-294 -737 c223 -110 246 -423 41 -564 -222 -152 -517 2 -518 271
-1 137 95 272 221 311 92 28 175 22 256 -18z m4320 0 c111 -54 175 -153 180
-276 4 -87 -8 -132 -51 -200 -57 -89 -160 -145 -270 -146 -76 -1 -129 14 -189
54 -99 65 -152 174 -144 297 15 235 261 376 474 271z"/>
<path d="M3270 8796 c-119 -33 -242 -131 -294 -234 -95 -188 -66 -407 74 -550
63 -64 100 -89 176 -118 130 -49 270 -39 394 27 275 147 332 525 111 747 -65
65 -132 105 -216 127 -70 18 -182 18 -245 1z m233 -251 c46 -21 100 -86 117
-139 18 -57 7 -140 -27 -194 -62 -101 -196 -139 -301 -86 -85 42 -130 114
-131 212 -1 63 15 105 59 156 72 82 179 101 283 51z"/>
<path d="M9495 8713 c-154 -31 -286 -127 -351 -255 -51 -101 -66 -245 -35
-348 35 -116 140 -243 241 -291 125 -60 265 -68 383 -22 220 86 342 309 297
543 -30 162 -176 316 -338 360 -45 12 -164 20 -197 13z m158 -252 c86 -33 151
-130 148 -222 -5 -238 -308 -318 -439 -116 -23 36 -27 52 -27 117 1 62 5 82
25 115 28 47 35 53 75 82 60 42 147 51 218 24z"/>
<path d="M1009 7185 c-218 -43 -401 -187 -494 -388 -86 -187 -84 -409 6 -590
86 -175 239 -303 429 -362 87 -27 248 -29 350 -4 47 11 89 24 94 29 6 6 16 10
24 10 18 0 142 81 188 122 70 63 148 182 185 283 49 132 44 337 -10 474 -65
162 -211 315 -366 381 -120 51 -281 69 -406 45z m256 -243 c177 -55 304 -212
321 -400 20 -210 -127 -415 -336 -468 -104 -26 -210 -16 -304 31 -379 187
-325 727 84 840 49 14 187 12 235 -3z"/>
<path d="M11637 7049 c-226 -31 -423 -171 -525 -375 -175 -348 -25 -773 331
-934 343 -155 743 -8 907 335 75 157 84 357 25 526 -49 137 -180 293 -310 365
-128 71 -287 102 -428 83z m212 -249 c150 -47 259 -153 306 -300 17 -52 25
-179 13 -225 -15 -62 -24 -85 -54 -135 -118 -201 -371 -280 -579 -180 -288
139 -346 522 -110 739 108 99 289 142 424 101z"/>
</g>
</svg>
