<?xml version="1.0" encoding="utf-8"?>
<svg version="1.1" id="Layer_1" xmlns="http://www.w3.org/2000/svg" xmlns:xlink="http://www.w3.org/1999/xlink" x="0px"
    y="0px" viewBox="0 0 800 800" style="enable-background:new 0 0 800 800;" xml:space="preserve">
    <path class="link-0" d="M380.1,335.6l62.5-63.3c5.5-5.5,11.7-12.5,18-20.3c6.2-7,13.3-13.3,20.3-18.8c13.3-11.7,28.9-21.9,48.4-21.9
	c17.2,0,32,7.8,43,18c11,10.2,17.2,25,17.2,42.2c0,7-0.8,14.9-3.1,20.3c-5.5,11-10.2,18.8-14.8,25c-2.4,3.1-4.7,6.2-4.7,9.4
	c0,2.4,0,4.7,1.6,5.5c8.6,21.1,14.8,39.1,18.8,61c2.3,8.6,7,12.5,14.8,12.5c3.1,0,6.2-0.8,9.4-3.1c6.2-3.9,11.7-10.2,17.2-16.4
	c3.1-3.1,5.5-6.2,7-7.8c28.1-27.4,44.5-66.4,44.5-106.2c0-42.2-17.2-79.7-44.5-107C608.2,137.9,570,120,529.3,120
	s-79.7,16.4-107,45.3l-107,106.3c-28.1,28.9-43.8,66.4-43.8,106.2c0,11.7,4.7,35.9,12.5,58.6c7.8,21.9,18,41.4,31.2,41.4
	c7,0,21.9-11.7,34.4-25c12.5-13.3,25-28.1,25-33.6c0-3.9-3.1-8.6-6.2-15.6c-3.9-7-5.5-15.6-5.5-25.8
	C362.9,362.2,369.2,346.6,380.1,335.6L380.1,335.6z M377.7,635.6l107-106.2c28.1-27.4,43.8-67.2,43.8-107c0-11.7-4.7-35.1-12.5-57.8
	c-7-21.9-18-42.2-31.2-42.2c-5.5,0-21.9,12.5-33.6,25.8c-13.3,13.3-25.8,27.4-25.8,32.8c0,3.9,2.4,10.2,6.2,16.4c3.9,7,7,14.8,7,25
	c-0.8,15.6-7,31.2-18,43.8l-63.3,62.5c-5.5,6.2-11.7,12.5-18,19.5l-19.5,19.5c-13.3,12.5-29.7,21.1-49.2,21.1
	c-32.8,0-59.4-25.8-59.4-59.4c0-7.8,1.6-14.8,3.9-20.3c4.7-11,9.4-18.8,14.9-25c2.4-3.1,3.1-6.2,3.1-8.6c0-1.6-0.8-3.1-1.6-6.2
	c-9.4-21.1-14.9-39.1-18.8-60.9c-1.6-3.9-2.4-7-4.7-8.6c-2.3-3.1-6.2-3.9-10.1-3.9c-3.1,0-5.5,0.8-8.6,3.1
	c-6.2,3.9-12.5,10.1-18,16.4c-2.4,3.1-5.5,5.5-7,7c-28.1,28.1-44.5,67.2-44.5,107c0,41.4,16.4,79.7,44.5,107
	c27.4,27.4,64.9,43.8,106.2,43.8C311.3,680,350.4,664.4,377.7,635.6L377.7,635.6z" />
</svg>