<?xml version="1.0" standalone="no"?>
<!DOCTYPE svg PUBLIC "-//W3C//DTD SVG 20010904//EN"
 "http://www.w3.org/TR/2001/REC-SVG-20010904/DTD/svg10.dtd">
<svg version="1.0" xmlns="http://www.w3.org/2000/svg"
 width="1280.000000pt" height="1280.000000pt" viewBox="0 0 1280.000000 1280.000000"
 preserveAspectRatio="xMidYMid meet">
<metadata>
Created by potrace 1.14, written by Peter Selinger 2001-2017
</metadata>
<g transform="translate(0.000000,1280.000000) scale(0.100000,-0.100000)"
fill="#000000" stroke="none">
<path d="M5706 12692 c-3 -5 -35 -8 -71 -8 -37 1 -69 -2 -72 -7 -2 -4 -9 -4
-16 0 -15 9 -57 10 -51 1 3 -4 -3 -8 -13 -9 -10 0 -29 -3 -43 -5 -14 -3 -37
-6 -52 -7 -16 -1 -28 -6 -28 -10 0 -5 -4 -5 -10 -2 -5 3 -10 2 -10 -3 0 -6
-10 -8 -22 -4 -14 3 -19 2 -14 -6 4 -7 2 -12 -3 -12 -6 0 -11 5 -11 11 0 6 -7
3 -16 -5 -8 -9 -20 -14 -25 -11 -5 4 -9 2 -9 -3 0 -5 -7 -9 -15 -10 -8 -1 -22
-3 -30 -4 -8 -1 -17 -8 -20 -16 -3 -8 -12 -11 -20 -8 -8 3 -15 1 -15 -5 0 -6
-4 -7 -10 -4 -5 3 -10 1 -10 -5 0 -6 -4 -8 -10 -5 -5 3 -10 1 -10 -4 0 -6 -9
-11 -21 -11 -13 0 -18 -4 -13 -12 5 -8 2 -9 -10 -5 -9 4 -15 3 -13 -1 6 -9
-14 -27 -30 -27 -6 0 -24 -11 -40 -25 -16 -14 -34 -26 -41 -27 -6 -2 -27 -18
-46 -38 -20 -19 -40 -35 -45 -35 -6 0 -18 -12 -28 -27 -9 -14 -39 -49 -64 -77
-26 -27 -46 -53 -43 -57 2 -4 -3 -10 -12 -13 -8 -3 -13 -10 -10 -15 3 -5 -1
-11 -9 -15 -8 -3 -15 -14 -15 -25 0 -10 -7 -22 -16 -25 -9 -4 -14 -13 -10 -21
3 -9 0 -15 -9 -15 -8 0 -14 -3 -14 -7 4 -25 -2 -43 -13 -37 -6 4 -8 3 -5 -3 3
-5 0 -21 -8 -36 -7 -14 -11 -28 -7 -31 3 -3 0 -6 -7 -6 -7 0 -10 -4 -6 -10 3
-5 1 -17 -4 -27 -19 -35 -25 -57 -29 -106 -1 -12 -6 -15 -14 -11 -9 5 -9 2 1
-9 7 -9 9 -17 4 -17 -6 0 -11 -70 -11 -180 -1 -100 2 -179 7 -176 4 3 8 -1 8
-9 0 -8 -4 -12 -9 -9 -4 3 -8 0 -8 -5 0 -6 5 -11 10 -11 6 0 10 -13 10 -30 0
-16 4 -30 9 -30 5 0 8 -8 6 -17 -1 -10 4 -29 12 -42 12 -18 12 -22 2 -16 -8 5
-6 -1 4 -12 19 -22 23 -38 6 -27 -8 5 -8 1 0 -14 6 -12 16 -24 21 -27 6 -4 8
-11 5 -16 -4 -5 -1 -9 4 -9 6 0 11 -9 11 -20 0 -11 5 -20 10 -20 6 0 10 -6 10
-13 0 -7 9 -23 19 -34 11 -12 17 -24 14 -27 -4 -3 0 -6 7 -6 7 0 10 -3 7 -6
-4 -4 3 -15 14 -25 11 -9 20 -20 20 -23 -3 -20 1 -26 15 -26 10 0 14 -6 10
-15 -3 -8 0 -14 7 -12 7 1 11 -4 9 -11 -1 -8 2 -11 8 -7 7 4 14 -2 17 -14 3
-12 10 -21 15 -21 14 0 38 -26 38 -41 0 -7 3 -10 6 -6 6 5 28 -10 66 -45 10
-10 18 -15 18 -10 0 4 5 -1 11 -11 6 -9 14 -15 20 -12 5 4 12 -1 15 -9 3 -9
10 -13 15 -10 5 3 9 1 9 -3 0 -5 12 -14 28 -20 15 -7 34 -16 42 -21 37 -22 61
-32 75 -32 8 0 15 -5 15 -11 0 -5 5 -7 10 -4 6 3 10 1 10 -5 0 -6 5 -8 10 -5
6 4 22 -1 37 -10 14 -9 22 -12 19 -6 -4 6 -2 11 3 11 6 0 11 -4 11 -9 0 -4 10
-8 23 -7 12 1 33 -5 47 -14 21 -13 23 -13 15 0 -7 12 -6 13 6 4 8 -6 22 -10
32 -9 9 2 17 0 17 -4 0 -3 21 -6 48 -6 26 1 53 -3 60 -8 8 -6 12 -5 12 3 0 9
4 9 17 -1 11 -10 14 -10 9 -1 -9 15 -1 15 26 1 11 -6 18 -7 15 -2 -5 8 18 11
111 13 13 0 21 4 18 8 -2 4 13 7 35 6 21 0 39 4 39 9 0 6 3 7 7 4 3 -4 17 0
31 9 13 9 21 11 18 5 -4 -5 9 -4 29 4 19 9 35 12 35 8 0 -5 4 -3 8 2 6 9 51
33 72 40 25 8 39 19 34 26 -3 5 2 6 10 3 9 -3 16 -1 16 6 0 6 4 9 9 5 5 -3 12
-1 16 5 4 6 12 7 18 4 7 -4 9 -4 5 1 -7 8 17 31 35 34 4 0 20 12 35 26 15 14
30 25 34 25 5 0 8 7 8 15 0 9 6 12 18 8 9 -3 14 -3 10 1 -7 9 47 66 62 66 6 0
9 4 8 9 -2 5 11 24 29 44 17 19 29 38 26 41 -4 3 1 6 10 6 10 0 16 3 16 8 -4
21 2 32 13 26 8 -5 9 -2 5 9 -4 11 -1 17 9 17 8 0 13 4 9 9 -3 5 2 17 11 25 8
9 12 16 7 16 -4 0 -3 4 3 8 11 8 44 75 44 91 0 13 41 37 55 32 6 -2 35 -3 65
-2 64 3 67 3 100 -2 14 -2 33 1 43 5 9 5 23 5 30 1 16 -10 37 -10 65 -1 12 4
22 4 22 -1 0 -5 15 -5 34 -1 18 4 41 3 50 -2 10 -5 23 -5 36 2 14 7 26 8 39 0
14 -7 22 -7 26 0 5 8 11 8 20 0 10 -8 19 -8 35 0 16 8 25 8 35 0 9 -8 15 -8
20 0 4 7 12 7 26 0 13 -8 25 -7 39 0 14 7 26 8 39 0 14 -7 22 -7 26 0 5 8 11
8 20 0 10 -8 19 -8 34 0 13 7 27 7 37 2 9 -5 33 -6 54 -2 21 4 44 4 51 -1 7
-4 22 -4 34 1 12 5 27 5 34 0 7 -4 28 -4 46 0 18 4 38 4 45 0 7 -4 27 -4 46 0
19 4 36 4 39 0 3 -5 19 -5 35 0 19 5 30 5 30 -1 0 -6 6 -7 12 -3 16 10 48 13
48 5 0 -7 76 -5 96 3 7 3 16 1 19 -3 3 -5 20 -5 39 -1 19 4 37 5 40 2 5 -5 69
-6 81 -2 14 5 52 3 63 -3 6 -5 21 -3 32 3 13 7 26 7 38 1 13 -7 22 -7 29 0 8
8 13 8 17 0 4 -7 15 -7 30 -1 13 5 27 6 30 3 5 -5 71 -8 79 -3 7 5 47 6 47 1
0 -7 76 -5 96 3 7 3 16 1 19 -3 3 -5 21 -5 40 -1 19 4 37 4 40 0 3 -5 19 -5
35 0 19 5 30 5 30 -1 0 -6 6 -7 12 -3 17 11 48 12 54 3 2 -5 16 -4 30 1 16 7
23 7 19 0 -3 -5 0 -8 7 -5 26 10 78 12 78 3 0 -5 10 -4 21 3 17 9 20 8 14 -2
-5 -8 -4 -10 4 -5 17 11 61 15 61 5 0 -4 14 -4 30 1 19 5 30 5 30 -1 0 -6 6
-7 12 -3 16 10 48 13 53 4 2 -3 18 -5 34 -3 17 2 45 4 61 6 17 2 30 0 30 -5 0
-4 11 -3 25 2 17 6 25 6 25 -1 0 -6 6 -7 12 -3 17 11 48 12 54 3 2 -5 16 -4
29 1 17 7 25 6 25 -1 0 -8 4 -8 13 0 8 6 16 9 18 6 9 -9 80 -12 85 -4 3 5 15
2 27 -6 26 -18 41 -19 31 -2 -6 8 -3 8 9 -1 9 -8 21 -11 27 -7 5 3 10 2 10 -3
0 -5 14 -8 30 -7 17 1 30 -1 30 -6 0 -4 9 -6 20 -4 11 2 20 0 20 -4 0 -4 6 -8
13 -9 13 -1 49 -9 57 -13 3 -1 10 -3 15 -4 9 -2 19 -5 63 -22 22 -8 23 -8 55
-17 15 -5 27 -11 27 -15 0 -4 10 -7 22 -8 11 -1 24 -7 28 -13 4 -7 10 -11 14
-11 20 3 26 0 20 -11 -4 -6 -3 -8 4 -4 6 3 13 2 17 -4 4 -6 11 -8 16 -5 5 4 9
1 9 -5 0 -6 4 -9 9 -5 6 3 14 -3 20 -12 6 -10 11 -15 11 -10 0 6 46 -19 60
-33 3 -3 28 -21 55 -40 28 -19 55 -41 62 -50 7 -8 13 -12 13 -8 0 13 140 -130
140 -144 0 -10 3 -9 10 2 8 13 10 13 10 -2 0 -9 10 -28 23 -41 40 -42 67 -77
59 -77 -4 0 1 -5 11 -11 9 -5 17 -17 17 -24 0 -8 5 -15 10 -15 6 0 10 -7 10
-15 0 -8 5 -15 10 -15 6 0 10 -7 10 -15 0 -8 5 -15 11 -15 5 0 8 -4 4 -9 -3
-5 2 -16 10 -24 8 -9 15 -23 15 -31 0 -9 5 -16 10 -16 6 0 10 -9 10 -20 0 -11
5 -20 11 -20 5 0 7 -4 4 -10 -3 -5 -1 -10 5 -10 7 0 10 -7 6 -15 -3 -8 0 -15
5 -15 7 0 9 -11 7 -25 -3 -13 -1 -22 4 -19 9 6 28 -37 21 -48 -2 -5 1 -8 6 -8
6 0 11 -10 11 -23 0 -12 7 -33 16 -45 9 -13 11 -22 4 -22 -7 0 -5 -9 4 -22 9
-12 16 -27 16 -33 0 -5 -5 -3 -10 5 -5 8 -10 10 -10 4 0 -5 4 -14 10 -20 5 -5
11 -23 12 -39 1 -17 6 -36 12 -44 9 -12 8 -13 -4 -6 -12 6 -13 5 -2 -6 6 -7
12 -17 12 -22 0 -4 -6 -5 -12 -1 -7 4 -4 -2 6 -14 13 -15 15 -22 6 -22 -9 0
-9 -4 -2 -12 5 -7 9 -32 8 -55 -1 -24 2 -43 7 -43 4 0 5 -6 1 -12 -12 -19 -12
-48 -1 -48 5 0 4 -7 -3 -15 -10 -12 -10 -15 0 -15 9 0 9 -4 2 -13 -7 -8 -7
-18 -2 -27 6 -9 5 -17 -3 -22 -9 -6 -9 -10 2 -17 11 -7 11 -9 0 -14 -12 -5
-12 -6 0 -6 11 -1 11 -4 0 -17 -10 -13 -10 -17 0 -24 9 -5 10 -13 5 -21 -12
-20 -14 -39 -3 -39 6 0 7 -4 4 -10 -12 -20 -14 -50 -2 -50 7 0 6 -4 -3 -10 -8
-5 -10 -10 -3 -10 12 0 12 -17 0 -37 -4 -6 -2 -15 4 -19 8 -4 7 -9 -2 -15 -12
-7 -12 -9 0 -9 11 0 11 -3 1 -15 -9 -11 -9 -15 -1 -15 9 0 9 -5 0 -21 -9 -17
-8 -23 2 -30 11 -7 11 -9 -1 -9 -9 0 -11 -3 -5 -8 13 -8 13 -22 1 -41 -5 -8
-4 -16 4 -21 9 -6 9 -12 1 -29 -8 -14 -8 -21 -1 -21 12 0 9 -22 -5 -32 -6 -5
-4 -12 5 -18 13 -9 13 -10 0 -10 -12 0 -12 -2 -1 -9 10 -7 11 -13 2 -30 -9
-16 -9 -21 0 -21 8 0 7 -5 -2 -17 -12 -15 -12 -16 1 -8 13 8 13 7 1 -8 -11
-14 -11 -17 0 -17 11 0 11 -2 -1 -10 -9 -6 -10 -10 -3 -10 13 0 12 -38 -1 -59
-5 -8 -4 -16 4 -21 9 -6 9 -12 1 -29 -9 -16 -9 -21 0 -21 8 0 7 -5 -2 -17 -12
-15 -12 -16 1 -8 13 8 13 7 1 -8 -7 -9 -9 -17 -4 -17 5 0 9 -9 9 -20 0 -11 -4
-20 -8 -20 -4 0 -3 -11 2 -24 6 -17 5 -26 -3 -30 -8 -3 -8 -5 2 -5 11 -1 11
-4 0 -17 -10 -13 -10 -17 2 -26 10 -7 11 -11 2 -14 -8 -4 -9 -13 -3 -29 6 -16
5 -25 -3 -29 -8 -3 -8 -5 2 -5 11 -1 11 -4 0 -17 -10 -13 -10 -17 0 -23 10 -7
10 -13 2 -30 -8 -14 -8 -21 -1 -21 7 0 7 -7 -1 -21 -8 -16 -8 -20 1 -14 9 6 9
3 1 -13 -8 -15 -8 -21 1 -24 8 -3 8 -10 -1 -26 -9 -17 -9 -22 0 -22 8 0 8 -4
-1 -15 -10 -12 -10 -15 1 -15 12 0 12 -2 0 -9 -9 -6 -10 -10 -2 -16 7 -4 8
-12 4 -18 -5 -7 -8 -34 -8 -62 1 -33 -4 -54 -15 -63 -8 -8 -9 -11 -2 -7 13 7
12 -21 -2 -44 -7 -11 -6 -12 5 -6 11 7 12 6 3 -6 -6 -8 -10 -22 -9 -31 2 -10
0 -18 -5 -18 -4 0 -6 -9 -3 -20 3 -11 1 -26 -4 -33 -5 -6 -10 -25 -11 -42 -1
-16 -7 -32 -12 -33 -6 -2 -7 -8 -4 -14 4 -6 0 -14 -7 -19 -12 -7 -11 -9 1 -9
12 0 12 -2 2 -9 -12 -7 -18 -25 -21 -54 -1 -5 -5 -6 -10 -3 -4 3 -7 -6 -5 -19
1 -15 -4 -29 -14 -35 -14 -8 -14 -9 -2 -10 9 0 11 -3 5 -8 -5 -4 -28 -42 -49
-84 -22 -43 -44 -78 -49 -78 -6 0 -8 -3 -4 -6 3 -4 -8 -27 -26 -53 -17 -25
-32 -49 -32 -53 0 -5 -3 -7 -8 -5 -4 1 -15 -12 -25 -28 -11 -17 -35 -47 -54
-68 -19 -20 -33 -37 -31 -37 2 0 -2 -7 -11 -15 -8 -8 -19 -15 -25 -15 -6 0
-10 -3 -9 -7 2 -5 -7 -18 -19 -30 -13 -13 -23 -21 -23 -19 0 3 -20 -15 -44
-39 -24 -24 -47 -41 -50 -37 -3 3 -6 -1 -6 -8 0 -7 -3 -11 -6 -7 -3 3 -17 -6
-30 -20 -13 -14 -24 -23 -24 -19 0 4 -7 1 -15 -6 -35 -31 -45 -38 -60 -38 -8
0 -15 -4 -15 -10 0 -5 -5 -10 -11 -10 -7 0 -18 -8 -26 -17 -9 -11 -11 -12 -7
-3 6 12 3 11 -12 -2 -10 -9 -23 -17 -29 -18 -5 -1 -9 -6 -8 -10 1 -4 -7 -6
-17 -3 -12 3 -20 0 -20 -6 0 -7 -4 -10 -9 -6 -5 3 -12 1 -16 -5 -4 -6 -11 -8
-16 -5 -5 4 -9 1 -9 -5 0 -6 -4 -8 -10 -5 -5 3 -10 1 -10 -5 0 -6 -8 -10 -18
-8 -11 2 -26 -3 -34 -9 -8 -7 -23 -14 -34 -16 -44 -9 -80 -20 -93 -31 -12 -9
-13 -8 -6 4 7 12 6 13 -6 3 -8 -7 -30 -14 -49 -16 -19 -2 -43 -8 -53 -12 -9
-4 -26 -5 -37 -2 -11 3 -20 0 -20 -6 0 -6 -3 -7 -7 -4 -3 4 -13 1 -21 -6 -10
-7 -13 -8 -9 -1 4 8 -2 11 -18 10 -14 0 -25 -4 -25 -7 0 -4 -79 -6 -175 -5
-96 0 -175 -3 -175 -7 0 -5 -5 -5 -11 -1 -16 10 -99 11 -99 1 0 -5 -5 -5 -11
-2 -15 10 -349 11 -349 2 0 -5 -5 -5 -11 -2 -15 10 -109 11 -109 2 0 -5 -5 -5
-10 -2 -15 9 -460 12 -460 3 0 -4 -11 -3 -25 2 -14 5 -25 6 -25 1 0 -5 -16 -5
-35 -1 -22 5 -35 4 -35 -2 0 -6 -6 -5 -15 2 -12 10 -15 10 -15 -1 0 -12 -2
-12 -9 0 -6 10 -10 10 -16 1 -6 -9 -10 -9 -16 1 -5 8 -9 9 -9 4 0 -6 -28 -9
-74 -7 -54 3 -76 0 -82 -10 -11 -17 -12 -478 -2 -484 5 -3 5 -11 2 -17 -4 -7
-4 -9 1 -5 4 4 14 3 22 -3 10 -9 13 -8 13 0 0 7 5 9 12 5 23 -14 49 -12 43 4
-4 12 -3 13 9 3 8 -7 21 -9 27 -5 9 5 10 2 6 -12 -6 -16 -5 -17 5 -4 16 18 63
26 52 8 -5 -7 -3 -8 6 -3 16 10 230 13 236 3 3 -5 13 -4 22 0 9 4 44 7 77 5
80 -4 72 -4 137 0 32 2 55 0 52 -4 -3 -5 0 -9 5 -9 6 0 11 7 11 16 0 8 5 12
10 9 6 -4 7 -11 4 -17 -5 -7 -2 -8 6 -3 19 12 150 12 150 0 0 -6 3 -6 8 1 4 6
18 10 32 9 14 -1 28 3 32 9 6 8 8 8 8 0 0 -12 120 -11 140 1 6 3 10 2 10 -2 0
-10 61 -10 78 1 7 4 18 4 24 -1 17 -10 49 -10 72 0 12 6 16 6 12 -2 -5 -8 0
-8 17 -2 14 6 28 7 31 3 8 -7 92 -6 105 2 5 4 12 2 15 -2 6 -10 48 -8 67 4 8
4 9 3 5 -4 -5 -9 -1 -9 17 -3 16 6 28 6 36 -2 8 -8 11 -8 11 1 0 9 6 10 18 4
20 -10 32 -10 50 2 7 4 18 3 25 -2 7 -5 21 -8 32 -5 11 2 37 5 57 6 21 2 40 6
44 9 3 4 17 3 30 -2 13 -5 24 -6 24 -2 0 4 15 9 33 10 17 1 40 2 49 2 9 1 19
8 22 16 4 10 11 11 30 5 13 -6 27 -7 30 -3 4 3 19 8 34 10 15 2 29 7 32 11 3
4 15 7 28 6 12 -1 27 4 33 12 6 7 15 10 20 7 5 -3 23 1 39 10 17 8 28 10 24 5
-3 -5 11 0 31 11 20 11 44 22 53 24 36 7 82 28 82 38 0 5 5 6 10 3 6 -4 17 -1
25 5 8 6 19 9 25 5 6 -4 9 -1 8 5 -2 7 6 14 16 16 10 1 22 7 25 12 7 11 41 25
61 27 8 0 14 6 12 13 -1 7 1 11 5 10 10 -3 87 43 91 54 2 5 8 6 13 2 5 -3 12
2 15 10 3 9 12 16 20 16 8 0 14 4 14 9 0 5 9 11 21 14 12 3 18 10 14 17 -3 6
-3 10 2 9 4 -1 19 2 31 6 18 6 20 10 10 16 -10 7 -9 9 5 9 9 0 17 5 17 11 0 5
5 7 10 4 6 -3 13 0 16 8 3 8 15 17 26 20 11 3 17 10 13 16 -3 6 0 11 7 11 7 0
22 11 32 25 10 13 23 22 28 19 5 -3 12 3 15 15 3 11 9 19 13 16 4 -2 13 7 20
20 7 14 19 25 27 25 7 0 12 4 11 8 -2 5 12 23 31 40 18 18 31 32 28 32 -4 0 5
11 18 25 14 13 25 29 25 35 0 6 5 8 10 5 6 -3 10 0 10 8 0 8 11 27 25 43 14
16 25 32 25 35 0 3 9 16 20 29 11 12 17 27 14 31 -3 5 2 9 10 9 10 0 13 6 9
17 -4 11 -3 14 5 9 7 -4 12 -1 12 8 0 9 5 16 10 16 6 0 9 3 8 8 -3 15 25 61
35 55 6 -3 7 -1 3 5 -3 6 -2 13 4 17 6 4 8 10 5 15 -3 4 2 13 10 20 8 7 12 16
9 21 -3 5 1 12 10 15 9 3 12 12 9 21 -5 12 -3 14 7 8 10 -6 12 -4 7 8 -3 9 -2
19 2 21 5 3 11 19 15 36 4 22 10 29 18 24 7 -4 10 -3 5 1 -4 5 0 19 9 33 11
17 12 22 3 16 -9 -5 -8 2 4 19 9 15 15 27 11 27 -3 0 1 12 11 26 11 18 12 24
4 18 -11 -6 -12 -5 -2 8 7 8 10 18 6 21 -3 4 -1 7 6 7 7 0 10 4 6 9 -3 5 -1
12 5 16 5 3 10 11 10 16 0 6 -4 7 -10 4 -5 -3 -7 0 -4 9 3 8 11 17 18 19 7 3
12 23 11 50 0 25 3 43 6 41 4 -2 10 3 13 12 4 10 2 13 -7 8 -9 -6 -9 -4 -1 7
6 8 10 24 9 37 -1 12 3 22 8 22 6 0 7 3 4 7 -4 3 -1 13 6 21 10 13 9 15 -8 9
-18 -6 -19 -6 -3 6 13 11 15 16 6 25 -9 9 -9 12 1 12 7 0 11 6 8 13 -2 6 0 22
4 35 6 15 5 22 -4 22 -6 0 -4 5 6 11 10 6 14 15 10 22 -9 15 -9 49 1 65 4 7 2
12 -5 12 -8 0 -8 4 1 15 9 11 9 15 1 15 -7 0 -9 5 -5 12 13 20 14 59 2 52 -7
-5 -8 -2 -2 7 13 21 14 39 1 39 -8 0 -8 3 0 11 8 8 8 20 2 36 -6 16 -5 22 1
18 12 -7 12 2 1 30 -5 11 -4 25 1 33 7 8 7 12 -2 12 -10 0 -10 3 0 15 9 11 9
15 1 15 -7 0 -9 5 -4 12 11 19 10 92 -2 100 -6 5 -4 8 5 8 13 0 13 1 0 10 -13
9 -13 10 0 10 13 0 13 1 0 10 -13 9 -13 11 0 21 11 8 12 12 3 16 -9 3 -10 10
-4 22 6 10 6 23 1 31 -5 8 -4 22 1 32 6 12 6 18 -1 18 -5 0 -10 5 -10 11 0 5
3 8 8 6 4 -3 7 10 7 29 0 19 -3 34 -7 34 -5 0 -8 5 -8 11 0 5 3 8 8 6 4 -3 7
10 7 29 0 19 -4 34 -8 34 -4 0 -3 10 4 21 8 16 8 20 -1 14 -9 -6 -9 -2 -1 14
8 15 9 21 1 21 -6 0 -8 5 -4 12 13 21 13 58 1 58 -8 0 -8 3 -2 8 15 11 17 32
3 32 -9 0 -9 3 -1 11 8 8 8 20 2 36 -6 16 -5 22 1 18 6 -3 10 -2 10 4 0 5 -5
13 -10 16 -6 4 -7 12 -3 18 10 16 13 68 4 63 -9 -6 -8 25 2 41 4 6 3 14 -3 18
-6 4 -7 12 0 24 6 12 5 22 -3 31 -9 10 -9 11 1 6 6 -4 12 -2 12 3 0 6 -5 11
-10 11 -7 0 -7 6 0 20 8 15 8 20 -1 20 -8 0 -9 4 0 13 6 8 8 17 5 20 -10 10
-11 50 -2 70 5 10 5 17 -2 17 -5 0 -10 5 -10 11 0 5 4 8 8 5 11 -6 9 25 -2 43
-5 8 -3 17 5 22 12 8 12 11 -1 19 -13 9 -13 10 0 10 13 0 13 1 0 10 -13 9 -13
11 0 20 11 7 11 10 2 10 -10 0 -10 5 -1 21 8 15 8 19 0 15 -6 -4 -11 0 -11 8
0 9 6 16 13 16 7 0 8 3 2 8 -12 8 -15 22 -17 68 -1 21 -5 31 -12 27 -8 -5 -8
-3 -1 8 13 18 12 38 -4 68 -10 18 -10 22 0 16 8 -6 10 -4 3 6 -5 8 -7 22 -5
33 2 13 -1 16 -11 10 -10 -6 -11 -5 -1 7 10 12 10 19 0 35 -7 10 -13 31 -12
47 1 15 -3 27 -8 27 -5 0 -7 7 -3 15 3 8 1 15 -5 15 -6 0 -8 4 -4 9 3 5 1 12
-3 15 -5 3 -9 16 -8 28 1 13 -4 29 -11 36 -11 12 -18 41 -14 65 0 4 -3 7 -7 7
-5 0 -9 6 -9 13 -1 21 -8 42 -16 48 -4 3 -9 16 -12 28 -2 12 -16 43 -30 68
-14 25 -25 51 -25 58 0 7 -7 18 -15 25 -9 7 -14 18 -12 24 2 6 -5 19 -15 30
-10 11 -18 26 -18 33 0 7 -5 13 -11 13 -5 0 -8 4 -5 9 3 5 -1 12 -10 15 -8 3
-13 10 -10 15 3 5 -1 12 -10 15 -8 3 -12 10 -9 16 3 6 -1 13 -9 16 -9 3 -16
12 -16 20 0 8 -4 14 -10 14 -5 0 -10 6 -10 13 0 7 -8 20 -17 29 -10 8 -29 31
-43 49 -14 18 -33 41 -42 51 -10 10 -18 21 -18 24 0 3 -18 23 -40 44 -22 21
-40 44 -40 51 0 7 -3 10 -6 6 -3 -3 -26 14 -50 39 -25 24 -49 44 -55 44 -6 0
-7 5 -4 10 3 6 -2 13 -12 17 -10 3 -26 13 -35 22 -33 31 -53 46 -53 41 0 -3
-8 2 -17 10 -9 8 -14 18 -11 23 2 4 -3 7 -12 7 -16 0 -27 8 -67 43 -11 10 -22
16 -25 13 -3 -3 -12 2 -20 10 -8 8 -19 11 -25 8 -7 -4 -8 -2 -4 4 4 7 -8 18
-34 29 -22 10 -40 21 -40 26 0 4 -4 6 -9 3 -5 -3 -14 1 -21 9 -7 8 -19 15 -27
15 -7 0 -25 7 -38 16 -13 9 -29 13 -35 9 -6 -4 -9 -1 -8 7 2 7 -4 12 -13 10
-8 -1 -25 7 -36 17 -11 11 -23 17 -26 14 -3 -3 -20 2 -38 11 -18 9 -40 16 -51
16 -10 0 -18 5 -18 11 0 5 -4 7 -10 4 -5 -3 -24 1 -41 10 -23 12 -29 13 -23 3
6 -10 5 -11 -8 -1 -8 7 -18 10 -21 6 -4 -3 -7 -2 -7 4 0 5 -6 10 -12 11 -36 3
-65 9 -77 17 -10 5 -12 4 -7 -3 5 -8 2 -10 -8 -6 -9 3 -16 9 -16 13 0 7 -46
13 -117 15 -22 1 -39 5 -35 10 3 5 -2 7 -11 3 -10 -4 -17 -1 -17 5 0 9 -3 9
-11 1 -7 -7 -21 -8 -33 -4 -11 3 -83 7 -158 6 -86 0 -138 4 -138 10 0 7 -3 7
-8 0 -9 -13 -55 -14 -64 0 -5 7 -8 7 -8 0 0 -12 -39 -13 -57 -2 -5 4 -13 3
-17 -1 -12 -11 -60 -9 -68 2 -6 8 -8 8 -8 0 0 -12 -58 -13 -77 -1 -6 4 -14 3
-17 -1 -6 -10 -36 -9 -53 1 -6 4 -14 3 -17 -1 -6 -11 -56 -10 -73 1 -6 4 -14
4 -17 -1 -4 -7 -66 -8 -73 -2 -4 3 -52 3 -55 0 -9 -7 -60 -5 -64 2 -3 4 -11 5
-17 1 -18 -12 -101 -10 -109 2 -5 7 -8 7 -8 0 0 -9 -58 -13 -67 -5 -4 3 -52 3
-55 0 -9 -7 -80 -5 -84 2 -3 5 -11 5 -17 1 -17 -11 -67 -12 -73 -1 -3 4 -11 5
-17 1 -15 -9 -67 -11 -72 -3 -3 5 -60 5 -60 0 0 -7 -57 -5 -61 2 -3 4 -11 5
-17 1 -19 -12 -127 -10 -127 2 0 5 -4 4 -9 -3 -4 -8 -12 -14 -16 -14 -4 0 -12
6 -16 14 -5 7 -9 8 -9 3 0 -7 -286 -10 -865 -10 -570 0 -865 -3 -865 -10 0 -5
-4 -4 -9 3 -6 11 -10 10 -16 -5 -12 -26 -12 -77 0 -85 6 -5 5 -8 -3 -8 -10 0
-10 -5 -1 -21 8 -16 8 -20 -1 -14 -9 6 -9 2 -1 -14 9 -16 9 -21 -1 -21 -9 0
-9 -3 2 -10 13 -9 13 -10 0 -10 -13 0 -13 -1 0 -10 8 -5 10 -10 5 -10 -6 0
-11 -12 -10 -27 1 -16 -3 -41 -8 -58 -4 -16 -10 -38 -12 -49 -2 -10 -9 -24
-16 -32 -6 -8 -8 -14 -5 -14 4 0 1 -7 -6 -15 -29 -32 -38 -45 -38 -52 0 -18
-90 -104 -102 -97 -7 4 -8 3 -4 -5 4 -6 0 -14 -11 -18 -10 -4 -23 -14 -30 -22
-7 -9 -13 -12 -13 -7 0 5 -7 3 -15 -4 -8 -7 -15 -9 -15 -6 0 4 -10 -2 -22 -14
-14 -13 -25 -17 -32 -10 -6 6 -14 3 -22 -8 -10 -13 -13 -14 -14 -3 0 11 -4 10
-19 -3 -12 -11 -21 -13 -25 -7 -4 6 -13 8 -21 5 -8 -4 -12 -11 -8 -18 4 -7 2
-7 -8 1 -12 10 -18 10 -27 1 -9 -9 -12 -9 -12 0 0 8 -7 9 -24 2 -16 -6 -27 -5
-35 3 -9 9 -14 8 -21 -3 -6 -9 -10 -10 -10 -3 0 6 -8 12 -17 12 -36 1 -53 4
-53 10 0 3 -12 7 -26 8 -15 0 -30 7 -35 14 -4 8 -14 14 -21 15 -25 2 -58 16
-58 25 0 5 -5 9 -12 9 -6 0 -29 18 -50 40 -22 22 -44 40 -49 40 -5 0 -9 7 -9
15 0 8 -3 15 -7 15 -5 0 -17 12 -27 27 -13 17 -14 24 -5 19 11 -6 10 -4 -1 6
-18 15 -72 121 -58 112 5 -3 3 7 -6 23 -10 21 -12 33 -5 40 8 8 7 13 -2 18 -8
6 -10 4 -4 -5 5 -9 4 -11 -3 -6 -8 4 -8 15 -2 31 6 16 6 25 0 25 -6 0 -6 9 0
24 5 15 5 27 -3 35 -7 7 -7 11 0 11 6 0 8 11 5 25 -2 14 1 32 8 40 6 8 9 18 6
23 -3 5 1 21 9 36 10 18 11 25 2 21 -7 -4 -5 -1 3 7 8 7 16 22 18 32 2 10 10
25 18 33 8 8 14 23 14 33 0 11 9 24 20 30 11 6 20 15 20 20 0 15 33 50 42 44
4 -3 8 -1 8 4 0 11 50 66 50 55 0 -4 4 -3 8 4 4 6 14 13 22 15 8 2 23 11 34
20 10 10 23 15 28 12 4 -3 8 -1 8 4 0 9 47 27 63 24 4 -1 7 2 7 7 0 6 20 13
45 17 25 3 48 10 51 15 3 5 13 5 23 -1 10 -5 22 -6 26 -2 11 12 4085 11 4085
0 0 -6 6 -6 14 1 11 9 16 9 21 0 6 -8 10 -7 16 2 7 12 9 12 9 0 0 -8 7 -11 20
-8 11 3 20 2 20 -1 0 -4 17 -8 38 -9 45 -2 63 -6 81 -17 10 -6 12 -5 7 2 -4 7
-3 12 3 12 5 0 13 -5 16 -10 4 -6 11 -8 16 -5 5 4 9 1 9 -6 0 -8 4 -8 15 1 11
9 15 9 15 1 0 -7 5 -9 10 -6 6 3 10 2 10 -3 0 -6 8 -8 19 -5 10 3 22 0 25 -6
4 -5 13 -8 21 -4 8 3 15 0 15 -6 0 -6 7 -8 16 -4 9 3 19 1 23 -5 4 -6 21 -12
39 -14 18 -1 32 -5 32 -8 0 -5 18 -9 58 -12 6 -1 12 -5 12 -10 0 -4 9 -8 20
-8 11 0 20 -4 20 -8 0 -4 12 -9 27 -10 15 -1 30 -7 33 -13 4 -5 17 -11 28 -12
12 -1 22 -5 22 -9 0 -4 3 -7 8 -6 4 1 29 -8 56 -20 27 -12 52 -22 57 -22 5 0
9 -5 9 -11 0 -5 5 -7 10 -4 6 3 10 1 10 -5 0 -7 7 -10 15 -6 8 3 15 1 15 -4 0
-6 6 -10 14 -10 7 0 19 -7 26 -15 7 -8 16 -12 21 -9 5 3 9 0 9 -7 0 -7 3 -10
6 -6 4 3 13 0 21 -8 8 -8 23 -15 33 -15 10 0 20 -7 24 -15 3 -8 12 -15 21 -15
8 0 15 -4 15 -9 0 -5 9 -11 21 -14 14 -4 18 -10 13 -19 -4 -7 -4 -10 1 -6 4 4
17 2 29 -4 11 -7 24 -11 28 -10 5 1 7 -3 5 -10 -1 -7 5 -13 13 -13 8 0 14 -6
13 -13 -2 -7 3 -12 11 -12 7 0 27 -13 44 -30 18 -16 34 -30 37 -30 3 0 25 -20
49 -45 25 -25 47 -45 50 -45 7 0 136 -127 136 -133 0 -12 79 -84 86 -78 4 3 4
1 1 -5 -3 -6 5 -22 19 -37 13 -14 24 -31 24 -36 0 -6 9 -15 20 -21 11 -6 20
-17 20 -25 0 -8 5 -15 11 -15 5 0 7 -4 4 -10 -3 -5 1 -10 10 -10 9 0 14 -4 11
-8 -3 -5 6 -20 20 -35 13 -15 23 -29 22 -31 -2 -2 7 -16 20 -30 12 -15 22 -31
22 -36 0 -6 9 -20 20 -32 11 -12 20 -28 20 -35 0 -7 5 -13 11 -13 5 0 7 -4 4
-10 -3 -5 -2 -10 4 -10 8 0 23 -31 24 -50 0 -3 7 -11 14 -19 8 -7 17 -26 20
-42 3 -16 9 -29 14 -29 5 0 9 -9 9 -19 0 -11 5 -21 10 -23 6 -2 12 -13 13 -26
0 -12 5 -22 9 -22 4 0 8 -7 8 -15 0 -8 6 -15 13 -15 8 0 7 -4 -3 -10 -10 -6
-11 -10 -3 -10 7 0 12 -3 12 -7 -1 -5 0 -11 1 -15 4 -13 7 -27 9 -39 0 -5 5
-8 11 -4 5 3 8 -9 6 -29 -1 -19 1 -33 6 -30 7 4 13 -26 9 -48 0 -5 4 -8 10 -8
6 0 9 -9 6 -20 -3 -11 -1 -20 5 -20 5 0 7 -4 4 -9 -4 -5 0 -11 6 -14 11 -3 10
-7 0 -19 -10 -12 -10 -18 2 -27 8 -7 13 -21 11 -32 -2 -10 0 -19 5 -19 5 0 6
-7 3 -17 -4 -9 -2 -14 3 -10 5 3 9 -12 8 -34 0 -21 2 -39 6 -39 3 0 6 -16 7
-36 1 -20 6 -41 12 -47 7 -7 7 -16 0 -29 -5 -10 -6 -24 -2 -31 12 -20 12 -37
0 -37 -8 0 -7 -4 2 -9 8 -5 12 -18 8 -30 -3 -12 0 -21 6 -21 7 0 5 -5 -3 -10
-10 -6 -11 -10 -2 -10 6 0 12 -5 12 -11 0 -5 -5 -7 -11 -3 -6 3 -4 -8 5 -24
11 -21 12 -33 5 -37 -7 -5 -7 -11 1 -20 8 -9 8 -15 0 -20 -6 -3 -8 -11 -4 -16
10 -17 12 -59 2 -65 -4 -3 -5 -11 -1 -17 9 -15 11 -87 3 -82 -4 2 -7 -2 -7
-10 0 -8 3 -15 6 -15 9 0 5 -335 -3 -348 -4 -7 -3 -12 2 -12 9 0 9 -87 -1 -97
-4 -3 -3 -13 1 -22 9 -20 9 -42 -1 -58 -5 -7 -4 -13 1 -13 10 0 9 -30 -1 -47
-4 -6 -4 -14 1 -17 10 -6 9 -93 -1 -103 -4 -3 -2 -12 4 -19 7 -9 7 -19 -1 -35
-7 -12 -8 -19 -2 -15 11 7 11 -32 -1 -51 -3 -5 -3 -13 0 -17 9 -9 11 -86 3
-81 -4 2 -7 -2 -7 -10 0 -8 3 -15 6 -15 5 0 5 -391 0 -482 -1 -24 -6 -35 -13
-31 -6 4 -5 -1 3 -10 10 -13 10 -17 1 -17 -10 0 -10 -3 0 -15 7 -8 8 -15 3
-15 -5 0 -9 -15 -10 -32 -5 -87 -8 -108 -18 -108 -5 0 -3 -5 5 -10 8 -5 10
-10 5 -10 -6 0 -12 -15 -14 -32 -5 -55 -7 -62 -17 -83 -6 -11 -9 -30 -8 -42 0
-13 -4 -23 -10 -23 -6 0 -4 -5 4 -10 8 -5 10 -10 4 -10 -6 0 -16 -25 -23 -55
-7 -30 -17 -55 -22 -55 -5 0 -9 -5 -9 -11 0 -5 5 -7 11 -3 6 3 4 -4 -4 -17 -8
-13 -13 -32 -12 -42 2 -9 -1 -15 -6 -11 -5 3 -10 -1 -11 -8 -1 -14 -4 -28 -8
-40 -1 -5 -3 -13 -4 -18 0 -6 -6 -14 -12 -18 -6 -4 -10 -15 -8 -24 1 -10 -2
-18 -7 -18 -5 0 -9 -5 -9 -11 0 -15 -52 -123 -61 -127 -4 -2 -5 -10 -2 -18 3
-8 0 -14 -7 -14 -7 0 -10 -7 -6 -15 3 -9 0 -15 -10 -15 -8 0 -12 -4 -9 -10 3
-5 1 -10 -6 -10 -7 0 -9 -3 -6 -6 4 -4 -2 -19 -13 -34 -11 -16 -20 -33 -20
-39 0 -6 -4 -11 -9 -11 -10 0 -27 -39 -23 -53 1 -5 -2 -6 -8 -2 -5 3 -10 1
-10 -5 0 -6 -6 -18 -12 -25 -19 -21 -30 -36 -62 -82 -16 -24 -33 -43 -38 -43
-5 0 -6 -4 -3 -10 3 -5 1 -10 -5 -10 -6 0 -8 -4 -5 -10 3 -5 -1 -10 -9 -10 -9
0 -16 -4 -16 -9 0 -7 -53 -69 -107 -124 -10 -11 -17 -23 -15 -28 1 -5 -3 -9
-9 -9 -5 0 -37 -28 -70 -61 -32 -34 -59 -59 -59 -56 0 4 -16 -9 -35 -28 -19
-19 -39 -35 -45 -35 -6 0 -8 -4 -5 -10 3 -5 2 -10 -4 -10 -6 0 -19 -10 -31
-22 -11 -12 -20 -18 -20 -13 0 4 -8 -2 -19 -13 -10 -12 -21 -22 -25 -22 -6 0
-36 -23 -62 -48 -8 -7 -14 -10 -14 -5 0 4 -4 3 -8 -2 -11 -17 -72 -57 -72 -48
0 4 -4 4 -8 -2 -11 -15 -72 -57 -87 -59 -7 -1 -19 -7 -26 -13 -8 -6 -24 -14
-36 -17 -13 -4 -23 -12 -23 -18 0 -6 -3 -8 -7 -5 -3 4 -12 2 -20 -4 -7 -6 -13
-8 -13 -3 0 5 -5 2 -10 -6 -5 -8 -13 -15 -17 -16 -4 0 -21 -7 -38 -14 -16 -7
-33 -14 -37 -15 -5 -2 -11 -4 -15 -5 -5 -1 -11 -2 -15 -1 -5 0 -8 -4 -8 -10 0
-5 -4 -7 -10 -4 -5 3 -10 2 -10 -4 0 -5 -11 -8 -25 -7 -13 2 -22 0 -20 -5 7
-10 -13 -22 -44 -26 -15 -2 -34 -4 -43 -5 -9 -1 -15 -5 -12 -9 2 -4 -3 -10
-12 -13 -8 -3 -12 -2 -9 4 3 5 -6 3 -21 -5 -15 -7 -33 -11 -40 -8 -8 3 -14 1
-14 -5 0 -14 -40 -23 -40 -9 0 7 -5 4 -11 -5 -6 -11 -16 -15 -26 -11 -9 4 -14
2 -10 -3 3 -5 -7 -9 -21 -8 -15 1 -34 -2 -43 -7 -9 -5 -32 -9 -50 -10 -19 -2
-38 -5 -44 -8 -5 -2 -23 -6 -40 -8 -51 -6 -64 -9 -71 -16 -4 -4 -14 -1 -22 6
-12 10 -16 9 -20 -1 -3 -10 -7 -10 -20 0 -12 10 -14 10 -8 0 5 -9 -1 -12 -21
-12 -107 0 -171 -6 -165 -15 3 -5 -1 -4 -10 3 -11 8 -18 9 -22 3 -4 -6 -15 -7
-30 -1 -12 4 -29 4 -36 0 -8 -5 -21 -5 -30 0 -9 5 -23 4 -34 -2 -14 -8 -17 -7
-12 1 9 14 0 14 -24 1 -13 -7 -21 -7 -25 0 -3 5 -11 10 -16 10 -6 0 -7 -5 -3
-12 4 -6 3 -8 -3 -5 -20 13 -67 16 -80 5 -10 -8 -13 -7 -13 3 0 10 -3 10 -11
2 -8 -8 -19 -9 -38 -2 -29 11 -28 11 -55 -3 -13 -7 -16 -7 -12 1 4 6 3 11 -3
11 -5 0 -12 -4 -15 -8 -6 -10 -42 -9 -52 1 -4 4 -14 1 -22 -6 -13 -9 -14 -9
-8 1 8 14 -3 16 -24 2 -9 -5 -19 -5 -26 1 -8 7 -14 6 -19 -1 -5 -8 -11 -8 -20
0 -10 8 -19 8 -34 1 -13 -7 -22 -8 -26 -1 -3 5 -11 10 -16 10 -6 0 -8 -4 -5
-8 3 -5 -1 -9 -9 -9 -8 0 -15 4 -15 9 0 11 -23 6 -32 -7 -5 -6 -8 -5 -8 3 0 6
-5 12 -11 12 -5 0 -7 -5 -3 -11 5 -8 1 -8 -14 0 -25 13 -35 14 -28 3 3 -5 -1
-9 -9 -9 -8 0 -15 4 -15 9 0 11 -23 6 -32 -7 -5 -6 -8 -5 -8 3 0 6 -5 12 -11
12 -5 0 -7 -5 -3 -11 5 -8 1 -8 -14 0 -26 14 -35 14 -27 1 8 -13 -17 -9 -27 4
-4 6 -12 5 -21 -3 -10 -8 -17 -9 -22 -1 -4 7 -12 7 -25 0 -13 -7 -21 -7 -25 0
-5 8 -12 7 -23 -2 -12 -10 -14 -10 -8 0 8 14 -3 16 -24 2 -9 -5 -19 -5 -27 2
-10 8 -13 7 -13 -3 0 -11 -2 -11 -9 0 -8 12 -12 12 -24 2 -12 -9 -16 -9 -19 1
-4 10 -8 10 -21 -1 -11 -9 -17 -10 -17 -2 0 12 -40 9 -61 -5 -8 -4 -9 -3 -5 4
4 7 3 12 -3 12 -5 0 -12 -4 -16 -10 -3 -5 -15 -6 -29 0 -12 4 -29 5 -36 0 -7
-5 -24 -4 -37 1 -30 11 -36 11 -29 1 3 -5 -1 -9 -9 -9 -8 0 -15 3 -15 7 0 3
-9 6 -20 7 -11 1 -18 -2 -16 -6 6 -9 -31 -7 -40 2 -10 10 -26 9 -20 -1 7 -12
-38 -9 -46 3 -5 6 -8 4 -8 -5 0 -12 -2 -12 -9 -1 -7 10 -13 11 -30 2 -13 -8
-21 -8 -21 -2 0 7 -9 7 -25 1 -14 -5 -25 -6 -25 -1 0 10 -31 8 -49 -4 -10 -6
-12 -4 -6 6 8 12 6 12 -8 0 -14 -11 -17 -11 -17 0 0 12 -2 12 -9 0 -7 -10 -10
-10 -13 -1 -3 10 -9 10 -26 1 -12 -6 -22 -8 -22 -3 0 4 -9 8 -19 8 -11 0 -17
-4 -15 -8 3 -4 0 -8 -5 -8 -6 0 -11 4 -11 9 0 10 -19 9 -37 -2 -6 -4 -14 -3
-18 3 -3 5 -11 10 -16 10 -6 0 -7 -5 -3 -11 4 -7 -1 -7 -16 1 -15 8 -20 8 -16
1 4 -6 2 -11 -3 -11 -6 0 -11 5 -11 10 0 7 -6 7 -20 0 -15 -8 -20 -8 -20 2 0
10 -2 10 -9 -1 -7 -10 -10 -10 -13 -1 -3 10 -9 10 -26 1 -14 -7 -22 -8 -22 -2
0 7 -9 7 -25 1 -14 -5 -25 -6 -25 -1 0 5 -8 8 -17 6 -10 -2 -22 -4 -26 -4 -5
-1 -5 -7 -2 -13 4 -7 -1 -4 -10 7 -14 17 -17 18 -25 5 -9 -13 -11 -13 -20 0
-9 13 -10 13 -10 0 0 -13 -1 -13 -10 0 -9 13 -11 13 -21 0 -8 -11 -12 -12 -16
-3 -3 10 -10 10 -25 2 -16 -8 -19 -8 -13 1 6 9 2 9 -14 1 -13 -7 -21 -8 -21
-2 0 6 -7 8 -15 5 -8 -4 -12 -10 -9 -15 3 -5 -2 -6 -10 -3 -9 3 -16 9 -16 13
0 4 -7 8 -15 8 -8 0 -12 -4 -9 -9 3 -4 0 -8 -5 -8 -6 0 -11 5 -11 11 0 5 -5 7
-12 3 -20 -12 -59 -14 -52 -2 4 6 -1 6 -14 -1 -26 -14 -35 -14 -26 0 5 8 1 8
-14 0 -26 -14 -35 -14 -27 -1 4 7 -3 7 -20 0 -32 -12 -38 -12 -31 -2 3 5 -1 9
-9 9 -8 0 -15 -3 -15 -7 0 -4 -7 -7 -15 -7 -8 0 -15 4 -15 9 0 5 -5 6 -10 3
-21 -13 -62 -16 -55 -4 6 8 2 8 -14 0 -11 -7 -21 -8 -21 -3 0 10 -30 9 -48 -2
-6 -4 -12 -3 -12 3 0 6 -7 8 -15 5 -8 -4 -12 -10 -9 -15 3 -5 -2 -6 -10 -3 -9
3 -16 10 -16 15 0 5 -11 4 -25 -1 -18 -7 -25 -6 -25 3 0 6 -5 4 -11 -6 -6 -9
-14 -15 -18 -12 -9 5 -13 -28 -10 -87 0 -7 -2 -25 -4 -40 -3 -16 0 -28 7 -28
6 0 5 -4 -3 -9 -9 -6 -10 -11 -2 -15 6 -4 8 -12 5 -18 -10 -17 -10 -78 0 -81
5 -2 4 -13 -3 -25 -8 -15 -8 -22 -1 -22 6 0 8 -5 4 -12 -13 -21 -13 -58 -1
-58 7 0 6 -4 -3 -10 -13 -9 -13 -10 0 -10 13 0 13 -1 0 -10 -11 -7 -11 -10 -2
-10 8 0 10 -5 6 -12 -11 -18 -12 -48 -2 -48 5 0 4 -10 -3 -21 -8 -16 -8 -20 1
-14 9 6 9 2 1 -14 -8 -15 -9 -21 -1 -21 6 0 8 -5 4 -12 -13 -21 -13 -58 -1
-58 7 0 6 -4 -3 -10 -13 -9 -13 -10 0 -10 13 0 13 -1 0 -10 -11 -7 -11 -10 -2
-10 8 0 10 -5 6 -12 -11 -18 -12 -48 -2 -48 5 0 4 -10 -3 -21 -8 -16 -8 -20 1
-14 9 6 9 2 1 -14 -8 -15 -9 -21 -1 -21 6 0 8 -5 4 -12 -12 -19 -14 -58 -3
-58 6 0 6 -8 -1 -20 -8 -15 -8 -20 2 -20 8 0 9 -3 3 -8 -12 -9 -14 -62 -2 -62
4 0 5 -5 1 -12 -12 -20 -14 -59 -2 -52 6 4 5 -3 -2 -15 -8 -16 -8 -26 -1 -35
6 -7 8 -15 5 -19 -11 -11 -11 -117 0 -117 7 0 8 -3 1 -8 -14 -10 -16 -45 -2
-54 7 -4 7 -8 2 -8 -12 0 -13 -59 -2 -76 3 -6 3 -14 0 -18 -11 -11 -9 -96 1
-96 6 0 1 -6 -9 -14 -18 -13 -18 -13 1 -24 10 -6 14 -12 9 -12 -12 0 -13 -59
-2 -77 4 -6 4 -14 -1 -17 -11 -6 -9 -57 3 -75 5 -9 4 -12 -2 -8 -14 9 -12 -45
2 -55 7 -5 7 -8 0 -8 -12 0 -13 -59 -2 -76 3 -6 3 -14 0 -18 -11 -11 -9 -96 1
-96 6 0 1 -7 -10 -16 -10 -8 -14 -13 -8 -10 7 3 15 -1 18 -10 4 -10 2 -13 -6
-8 -8 5 -9 2 -5 -9 3 -10 2 -17 -4 -17 -6 0 -3 -7 5 -16 18 -17 21 -28 6 -19
-5 3 -10 1 -10 -4 0 -6 6 -11 13 -11 8 0 8 -3 -2 -9 -13 -8 -13 -12 0 -27 8
-11 9 -15 2 -10 -14 8 -13 -50 1 -73 6 -10 5 -12 -2 -7 -8 5 -12 0 -12 -13 0
-12 6 -21 13 -21 8 0 8 -3 -2 -9 -13 -8 -13 -12 0 -27 8 -11 9 -15 2 -10 -14
8 -13 -50 1 -73 6 -10 5 -12 -2 -7 -8 5 -12 0 -12 -13 0 -12 6 -21 13 -21 8 0
8 -3 -2 -9 -13 -8 -13 -12 0 -27 8 -10 9 -15 3 -11 -8 5 -12 -6 -11 -33 1 -22
6 -40 11 -40 7 0 8 -3 1 -8 -15 -11 -17 -32 -3 -32 6 0 3 -7 -8 -16 -10 -8
-14 -13 -8 -10 7 3 15 -1 18 -10 3 -8 2 -13 -3 -10 -5 3 -8 -12 -8 -34 1 -22
6 -40 11 -40 7 0 8 -3 1 -8 -12 -8 -18 -65 -6 -58 4 3 8 -1 8 -9 0 -8 -4 -12
-8 -10 -4 3 -6 -13 -6 -35 1 -22 6 -40 11 -40 7 0 8 -3 1 -8 -15 -11 -17 -32
-3 -32 6 0 3 -7 -8 -16 -10 -8 -14 -13 -8 -10 7 3 15 -1 18 -10 3 -8 2 -13 -3
-10 -5 3 -8 -12 -8 -34 1 -22 6 -40 11 -40 7 0 8 -3 1 -8 -12 -8 -18 -65 -6
-58 4 3 8 -1 8 -9 0 -8 -4 -12 -9 -9 -13 8 -10 -10 5 -25 10 -11 9 -13 -1 -7
-14 8 -12 -19 2 -43 6 -9 5 -12 -1 -8 -5 3 -9 -10 -9 -34 0 -21 5 -39 11 -39
6 0 7 -3 0 -8 -15 -11 -16 -65 -2 -74 9 -5 9 -8 0 -8 -12 0 -12 -17 0 -36 3
-6 3 -14 0 -18 -12 -11 -11 -131 1 -138 7 -5 7 -8 1 -8 -12 0 -12 -70 0 -90 5
-8 4 -11 -3 -6 -12 7 -9 -64 4 -85 4 -8 3 -10 -4 -5 -14 8 -12 -20 2 -43 7
-10 6 -12 -4 -6 -10 6 -12 4 -7 -7 3 -9 1 -20 -5 -26 -6 -6 -6 -12 3 -17 8 -6
10 -4 4 5 -5 8 -4 11 1 7 8 -4 11 -62 4 -62 -1 0 -3 -21 -4 -47 0 -27 3 -48 8
-48 6 0 1 -6 -9 -14 -18 -13 -18 -13 1 -24 10 -6 14 -12 9 -12 -12 0 -13 -59
-2 -77 4 -6 4 -14 -1 -17 -11 -6 -9 -57 3 -75 5 -9 4 -12 -2 -8 -14 9 -12 -45
2 -55 7 -5 7 -8 0 -8 -12 0 -13 -59 -2 -76 3 -6 3 -14 0 -18 -11 -11 -9 -96 1
-96 6 0 1 -7 -10 -16 -10 -8 -14 -13 -8 -10 7 3 15 -1 18 -10 3 -9 2 -12 -5
-9 -12 8 -8 -33 5 -54 6 -9 5 -12 -1 -8 -7 4 -10 -9 -8 -36 1 -23 -3 -51 -8
-62 -9 -17 -8 -18 5 -8 12 10 15 10 15 -2 0 -8 -3 -15 -6 -15 -4 0 -6 -20 -6
-45 0 -25 4 -45 9 -45 6 0 1 -6 -9 -14 -18 -13 -18 -13 1 -24 10 -6 14 -12 9
-12 -12 0 -13 -59 -2 -76 3 -6 3 -14 0 -18 -11 -11 -9 -96 1 -96 6 0 1 -6 -9
-14 -18 -13 -18 -13 1 -24 10 -6 15 -12 9 -12 -5 0 -10 -18 -11 -40 0 -22 4
-37 9 -33 5 3 5 -2 -1 -13 -5 -11 -8 -42 -7 -71 1 -30 -2 -50 -8 -46 -5 3 -4
-4 2 -15 8 -15 7 -23 -4 -32 -8 -6 -19 -9 -25 -5 -5 3 -10 0 -10 -7 0 -10 -2
-10 -9 1 -7 11 -9 11 -14 0 -4 -10 -6 -10 -6 -2 -1 9 -8 10 -24 4 -13 -5 -30
-5 -38 -1 -8 6 -16 4 -21 -3 -6 -9 -8 -8 -8 2 0 11 -3 11 -15 1 -12 -10 -15
-10 -15 1 0 12 -2 12 -9 0 -6 -9 -11 -10 -15 -2 -4 6 -13 8 -19 4 -22 -14
-138 -15 -155 -1 -11 9 -14 10 -8 1 4 -8 2 -11 -6 -8 -8 3 -19 19 -25 35 -6
17 -8 28 -3 25 4 -2 7 6 7 20 0 14 -4 22 -10 18 -6 -3 -7 -1 -3 6 13 20 18 63
6 56 -5 -3 -10 -2 -10 4 0 5 4 12 8 15 10 6 8 118 -2 134 -3 6 -2 13 3 17 7 3
7 15 1 30 -6 15 -6 27 0 30 6 4 10 11 10 16 0 6 -5 7 -12 3 -7 -4 -8 -3 -4 5
11 18 18 63 8 57 -10 -6 -9 30 1 40 12 12 8 26 -5 18 -7 -4 -8 -3 -4 5 11 18
18 63 8 57 -10 -6 -9 30 1 40 11 12 8 26 -4 18 -8 -5 -8 -1 0 14 8 14 8 23 1
27 -8 5 -7 11 1 21 8 10 8 14 0 14 -8 0 -8 6 1 21 10 17 10 23 1 26 -10 3 -10
10 -2 25 8 16 8 19 -1 13 -9 -6 -9 -2 -1 14 8 15 9 21 1 21 -6 0 -8 5 -4 12
11 17 14 58 5 58 -4 0 -8 7 -8 15 0 8 5 12 10 8 5 -3 6 4 1 18 -8 25 -8 27 -1
72 2 15 0 30 -5 33 -5 3 -4 11 2 19 8 9 8 15 0 20 -6 4 -7 13 -1 23 5 9 5 26
1 37 -4 11 -3 26 2 33 7 8 7 12 -1 12 -8 0 -8 6 1 21 11 17 11 23 0 26 -6 3
-9 9 -6 14 3 6 8 25 10 42 4 26 3 29 -7 17 -9 -12 -10 -11 -4 5 12 36 16 67 7
61 -10 -6 -9 30 1 40 12 12 8 26 -5 18 -7 -5 -8 -3 -3 6 12 20 15 91 2 83 -5
-3 -7 -1 -4 4 10 16 17 84 9 79 -9 -6 -8 41 1 51 12 11 8 25 -5 17 -10 -6 -10
-4 -3 7 12 17 13 39 1 58 -6 9 -5 12 1 8 5 -4 10 6 10 23 0 17 -5 27 -10 23
-6 -4 -7 -1 -1 8 12 19 11 41 -1 58 -7 11 -7 13 1 8 7 -4 11 5 12 25 1 24 -2
28 -8 18 -6 -9 -10 -10 -10 -3 0 6 4 14 9 17 10 7 9 25 -2 43 -4 6 -3 14 1 17
10 6 10 46 -1 62 -3 6 -3 14 1 18 10 11 10 89 -1 104 -6 8 -6 12 1 12 12 0 11
18 -2 39 -6 9 -5 12 1 8 6 -4 10 6 11 23 0 17 -5 30 -11 30 -8 0 -8 3 -2 8 12
9 20 46 8 39 -5 -3 -9 3 -9 13 0 10 4 16 8 14 10 -6 5 26 -6 45 -6 9 -5 12 1
8 5 -4 10 6 10 23 0 17 -5 27 -10 23 -6 -4 -7 -1 -1 8 12 20 14 80 1 72 -6 -4
-7 -1 -1 8 12 20 14 80 1 72 -6 -4 -7 -1 -1 8 12 20 14 80 1 72 -6 -4 -7 -1
-1 8 12 20 13 100 1 92 -6 -4 -7 -1 -1 8 11 18 12 40 1 63 -6 13 -6 16 2 12 6
-4 11 -2 11 4 0 6 -5 21 -11 32 -6 11 -7 18 -2 15 6 -4 10 7 11 24 0 19 -3 27
-10 23 -7 -5 -8 -2 -3 7 14 21 15 60 3 53 -7 -5 -8 -2 -3 7 14 21 15 60 3 53
-7 -5 -8 -2 -2 7 13 21 13 80 0 72 -8 -5 -8 -3 0 8 12 17 12 58 0 78 -6 10 -5
12 2 7 7 -4 12 -2 12 3 0 6 -6 11 -12 11 -9 0 -9 3 1 9 13 8 13 12 0 27 -8 10
-9 15 -2 11 13 -8 13 69 -1 92 -6 10 -5 12 2 7 7 -4 12 -2 12 3 0 6 -6 11 -12
11 -9 0 -9 3 1 9 13 8 13 12 0 27 -8 10 -9 15 -2 11 13 -8 13 69 -1 92 -6 10
-5 12 2 7 7 -4 12 -2 12 3 0 6 -6 11 -12 11 -9 0 -9 3 1 9 13 8 13 12 0 27 -8
10 -9 15 -2 11 13 -8 13 69 -1 92 -6 10 -5 12 2 7 7 -4 12 -2 12 3 0 6 -6 11
-12 11 -9 0 -9 3 1 9 13 8 13 12 0 27 -8 10 -9 15 -2 11 8 -5 11 4 10 33 -1
22 -6 40 -12 40 -6 0 -6 3 0 8 11 8 16 504 4 497 -3 -2 -6 2 -6 10 0 8 4 12 9
9 11 -7 6 36 -6 55 -6 10 -5 12 2 7 7 -4 12 -2 12 3 0 6 -6 11 -12 11 -9 0 -9
3 1 9 13 8 13 12 0 27 -9 11 -9 15 -1 10 15 -9 16 17 2 45 -6 11 -7 25 -3 32
12 19 15 99 3 92 -5 -3 -10 0 -10 7 0 8 -9 20 -19 28 -11 7 -18 17 -15 22 3 4
-2 8 -10 8 -8 0 -18 9 -21 20 -3 11 -14 20 -22 20 -9 0 -14 3 -11 6 8 7 -45
62 -54 57 -5 -2 -8 0 -8 6 0 6 -81 91 -180 190 -99 99 -180 185 -180 192 0 7
-3 10 -6 7 -6 -7 -180 164 -177 174 2 4 -6 10 -17 13 -11 4 -20 14 -20 22 0 9
-2 14 -6 11 -7 -8 -222 205 -217 215 3 4 0 6 -5 5 -6 -2 -26 14 -45 34 -19 21
-37 35 -41 31 -3 -3 -6 -2 -6 4 0 16 -87 103 -95 95 -4 -4 -5 0 -3 8 2 8 -7
19 -19 25 -13 5 -23 13 -23 18 0 11 -84 92 -92 89 -5 -1 -8 8 -8 20 0 12 -3
18 -6 15 -4 -3 -26 14 -49 38 -23 25 -47 45 -54 45 -7 0 -10 3 -8 8 4 9 -70
81 -78 74 -5 -5 -9 14 -6 30 0 5 -5 7 -12 5 -6 -1 -11 4 -10 11 2 6 -2 12 -8
12 -7 0 -25 13 -41 30 -15 16 -33 30 -40 30 -6 0 -9 3 -5 6 8 8 -18 34 -34 34
-7 0 -10 3 -6 6 6 6 -16 34 -27 34 -10 0 -54 49 -48 54 3 3 -2 6 -11 6 -9 0
-16 6 -14 13 1 6 -3 11 -9 10 -6 -1 -17 9 -24 22 -7 14 -20 27 -29 30 -9 3
-27 21 -41 39 -14 19 -28 32 -32 30 -4 -2 -9 5 -13 16 -3 11 -14 20 -22 20 -9
0 -14 3 -10 6 6 7 -82 94 -95 94 -4 0 -8 6 -8 14 0 8 -9 18 -20 21 -11 3 -20
12 -20 18 0 7 -14 20 -30 29 -17 9 -30 25 -30 34 0 10 -2 15 -5 12 -7 -7 -95
80 -95 93 0 5 -5 9 -11 9 -6 0 -35 25 -64 55 -30 30 -60 55 -66 55 -7 0 -9 3
-6 7 7 6 -72 83 -86 83 -5 0 -5 5 -2 10 3 6 -2 13 -12 17 -10 4 -26 17 -37 30
-12 16 -24 22 -36 18 -10 -3 -21 -1 -25 5 -3 6 -12 7 -18 3 -17 -10 -47 -11
-47 -1 0 5 -5 6 -12 2 -14 -9 -58 -12 -58 -4 0 3 -23 5 -50 5 -28 0 -50 -3
-50 -7 0 -4 -7 -5 -16 -1 -23 9 -107 8 -122 0 -6 -5 -12 -5 -12 0 0 4 -38 8
-85 8 -47 0 -85 -4 -85 -8 0 -4 -8 -3 -19 2 -10 6 -21 7 -25 4 -9 -9 -56 -10
-56 -2 0 9 -21 6 -38 -5 -8 -5 -22 2 -38 19 -20 22 -23 30 -12 36 8 6 9 12 3
17 -11 8 -16 25 -19 59 0 13 -3 23 -6 23 -3 0 -6 10 -7 22 -1 11 -6 24 -10 27
-4 3 -10 15 -11 26 -2 11 -8 24 -13 30 -5 5 -9 17 -9 27 0 10 -4 18 -8 18 -4
0 -14 16 -21 35 -7 19 -17 35 -22 35 -5 0 -9 9 -9 20 0 11 -4 20 -10 20 -5 0
-10 7 -10 15 0 8 -4 15 -10 15 -5 0 -10 5 -10 10 0 6 -10 22 -22 36 -13 13
-31 34 -40 44 -10 11 -18 25 -18 30 0 6 -7 10 -16 10 -8 0 -13 4 -10 8 3 5 -7
17 -21 28 -14 10 -42 34 -61 52 -20 17 -40 32 -45 32 -4 0 -5 5 -1 12 4 6 3 8
-3 5 -5 -3 -22 5 -37 18 -16 14 -33 22 -37 19 -5 -3 -9 0 -9 5 0 6 -5 11 -11
11 -6 0 -22 9 -36 20 -14 11 -29 17 -34 14 -5 -3 -9 0 -9 5 0 6 -9 11 -20 11
-11 0 -20 5 -20 11 0 5 -4 8 -9 5 -5 -4 -12 0 -14 6 -4 9 -6 9 -6 -1 -1 -11
-5 -10 -17 5 -8 10 -13 13 -9 7 3 -7 2 -13 -4 -13 -5 0 -11 5 -13 11 -2 5 -10
11 -18 12 -8 2 -21 6 -27 10 -7 5 -13 6 -13 2 0 -3 -16 1 -35 10 -22 8 -33 10
-29 3 5 -7 2 -8 -7 -2 -13 8 -57 13 -136 17 -18 1 -33 5 -33 10 0 5 -12 2 -26
-8 -15 -9 -24 -13 -20 -7 3 6 -5 9 -19 8 -14 0 -25 -3 -25 -6 0 -3 -21 -4 -47
-3 -26 1 -53 -3 -60 -9 -10 -8 -13 -7 -13 3 0 10 -2 11 -8 2 -4 -6 -19 -13
-34 -15 -15 -2 -30 -7 -34 -11 -4 -4 -14 -1 -22 6 -13 9 -14 9 -8 0 5 -9 0
-13 -13 -13 -12 0 -21 -6 -21 -12 0 -9 -4 -8 -10 2 -5 8 -10 10 -10 5 0 -13
-59 -37 -71 -29 -5 3 -9 0 -9 -6 0 -6 -4 -8 -10 -5 -5 3 -10 1 -10 -4 0 -6 -7
-11 -15 -11 -7 0 -19 -8 -24 -17 -6 -10 -11 -14 -11 -9 0 5 -7 3 -15 -4 -8 -7
-15 -9 -15 -6 0 7 -23 -10 -47 -36 -9 -9 -20 -15 -25 -12 -4 3 -11 -2 -14 -10
-3 -9 -11 -16 -16 -16 -6 0 -24 -13 -39 -30 -16 -16 -29 -27 -29 -25 0 3 -6 0
-14 -7 -8 -7 -12 -16 -10 -20 2 -4 -5 -10 -17 -13 -11 -4 -18 -9 -15 -12 3 -3
-6 -14 -19 -25 -14 -11 -25 -25 -25 -31 0 -7 -12 -23 -26 -36 -14 -13 -32 -38
-41 -55 -9 -16 -22 -36 -29 -44 -8 -7 -12 -18 -9 -23 4 -5 2 -9 -3 -9 -4 0
-14 -16 -22 -35 -7 -19 -16 -32 -20 -30 -3 2 -7 -5 -8 -16 -4 -41 -6 -49 -12
-49 -3 0 -6 -10 -7 -22 -1 -11 -8 -25 -15 -29 -7 -5 -10 -9 -6 -9 4 0 3 -11
-2 -25 -6 -16 -6 -26 1 -31 7 -4 2 -15 -11 -29 -16 -17 -18 -24 -8 -28 9 -4 9
-6 1 -6 -7 -1 -10 -8 -6 -18 4 -10 2 -14 -4 -10 -5 3 -10 0 -10 -8 0 -8 5 -11
11 -8 6 3 5 0 -1 -8 -15 -15 -17 -33 -4 -25 10 6 9 -12 -1 -29 -11 -19 -8
-179 5 -194 9 -12 9 -13 0 -7 -7 4 -13 2 -13 -3 0 -6 5 -11 10 -11 6 0 10 -5
10 -11 0 -5 -4 -7 -10 -4 -5 3 -10 2 -10 -3 0 -6 8 -13 17 -16 14 -6 15 -9 4
-15 -11 -7 -10 -13 3 -32 8 -14 16 -39 18 -57 1 -17 5 -32 8 -32 7 0 9 -10 13
-54 1 -13 5 -22 10 -19 6 4 11 -12 8 -29 0 -5 4 -8 10 -8 5 0 8 -4 4 -9 -3 -5
1 -15 8 -23 8 -7 12 -19 9 -26 -2 -6 1 -12 8 -12 6 0 8 -4 5 -10 -3 -5 -2 -10
3 -10 5 0 17 -18 27 -40 10 -22 22 -40 27 -40 5 0 7 -4 4 -8 -3 -5 4 -15 15
-22 10 -8 19 -19 19 -25 0 -6 14 -23 31 -38 17 -15 28 -27 24 -27 -13 0 87
-89 106 -95 11 -4 17 -10 14 -15 -7 -11 30 -32 39 -23 3 3 6 -1 6 -10 0 -10 6
-17 13 -17 7 0 23 -9 35 -20 12 -11 28 -20 37 -20 10 0 13 -5 9 -12 -5 -7 -2
-9 9 -5 9 3 17 2 19 -2 2 -4 27 -20 56 -34 29 -15 50 -22 46 -16 -3 6 5 4 18
-5 14 -9 28 -13 31 -9 4 3 7 1 7 -5 0 -7 15 -12 36 -12 19 0 33 -4 29 -9 -3
-6 3 -8 15 -6 11 2 22 0 25 -5 3 -5 12 -7 20 -3 9 3 22 0 29 -6 10 -8 16 -9
21 -1 3 6 12 7 18 3 19 -12 37 -12 37 -1 0 5 7 2 16 -6 10 -11 21 -13 32 -8 9
5 43 7 74 6 32 -1 56 1 54 5 -3 4 4 7 14 7 10 0 16 -5 13 -10 -3 -5 -1 -6 4
-3 6 4 28 9 49 13 22 3 42 11 46 18 5 8 8 7 8 -3 0 -9 4 -10 12 -4 7 6 25 10
40 9 14 -1 24 2 22 6 -3 4 4 8 16 8 12 0 18 4 15 10 -3 6 -2 10 4 10 5 0 12
-6 14 -12 4 -10 6 -10 6 0 1 6 10 12 22 12 11 0 17 4 14 10 -3 6 1 7 9 4 9 -3
16 -1 16 5 0 6 9 11 20 11 11 0 20 5 20 11 0 5 4 8 8 5 5 -3 21 4 38 15 16 11
39 24 52 29 12 5 22 14 22 20 0 6 4 8 10 5 5 -3 10 -1 10 6 0 7 2 10 5 7 6 -6
55 36 140 119 35 34 61 64 58 67 -3 3 2 8 11 12 9 3 16 12 16 20 0 8 8 14 17
14 9 0 14 3 10 6 -3 4 7 26 23 50 17 23 30 47 30 53 0 6 5 11 10 11 6 0 10 7
10 15 0 8 4 15 10 15 5 0 7 7 4 15 -4 8 -1 15 6 15 6 0 8 5 5 10 -3 6 -1 10 5
10 6 0 9 4 5 9 -3 5 -1 12 5 16 6 4 7 11 4 17 -4 7 -2 8 4 4 7 -4 12 -3 12 2
0 5 15 8 34 5 19 -2 38 1 41 7 5 8 11 7 21 -1 7 -6 21 -9 29 -5 8 3 15 0 15
-7 0 -7 3 -8 8 -2 4 6 23 10 42 10 19 0 38 -4 42 -10 5 -7 8 -7 8 0 0 13 347
8 363 -5 35 -28 101 -87 111 -97 59 -66 168 -173 175 -173 5 0 13 -9 16 -20 3
-11 11 -20 16 -20 6 0 7 -5 4 -10 -4 -6 -1 -9 7 -8 7 2 12 -3 11 -9 -2 -7 1
-12 5 -10 12 3 158 -144 154 -156 -1 -4 2 -6 7 -3 5 3 21 -10 37 -29 15 -19
34 -35 41 -35 8 0 12 -3 10 -7 -2 -5 67 -78 154 -165 88 -86 159 -154 159
-151 0 2 12 -10 28 -28 15 -18 80 -86 145 -151 64 -64 117 -122 117 -128 0 -5
3 -9 8 -9 17 3 35 -2 29 -7 -4 -4 11 -24 33 -44 22 -20 37 -40 33 -44 -6 -5
12 -10 30 -7 4 0 7 -4 7 -9 0 -6 19 -29 43 -51 23 -23 41 -45 39 -50 -2 -8 12
-13 31 -10 4 0 7 -8 7 -19 0 -11 3 -19 8 -18 4 2 54 -43 110 -100 57 -56 108
-102 113 -102 5 0 8 -3 7 -7 -3 -10 60 -73 73 -73 5 0 8 -4 7 -8 -2 -5 85 -97
194 -204 108 -108 194 -199 190 -202 -3 -3 -1 -6 5 -6 22 0 80 -68 78 -94 0
-13 3 -22 7 -20 13 8 9 -11 -4 -24 -9 -9 -9 -12 1 -12 11 0 11 -3 1 -15 -8 -9
-8 -15 -2 -15 6 0 9 -12 8 -28 -2 -15 1 -36 7 -47 9 -17 8 -18 -4 -8 -11 9
-14 7 -14 -12 0 -13 3 -21 8 -18 9 5 4 -34 -6 -43 -13 -14 -7 -26 7 -15 12 10
13 8 9 -11 -3 -13 -10 -28 -15 -35 -6 -7 -4 -14 3 -19 8 -5 9 -3 4 6 -6 9 -4
11 5 5 10 -6 9 -11 -5 -22 -11 -7 -14 -13 -8 -13 16 0 24 -28 11 -36 -7 -5 -8
-2 -3 6 5 8 4 11 -3 6 -15 -9 -3 -38 12 -29 6 3 2 -4 -9 -17 -11 -13 -15 -20
-9 -17 15 9 27 -20 12 -29 -7 -5 -8 -2 -3 6 5 8 4 11 -3 6 -15 -9 -3 -38 12
-29 6 3 2 -4 -9 -17 -11 -13 -15 -20 -9 -17 15 9 27 -20 12 -29 -7 -5 -8 -2
-3 6 6 9 4 11 -5 5 -10 -6 -9 -11 5 -22 11 -7 13 -13 7 -13 -8 0 -10 -12 -6
-35 4 -25 1 -35 -8 -35 -9 0 -9 -3 2 -10 8 -5 11 -10 7 -10 -4 0 -3 -10 4 -21
8 -16 8 -20 0 -14 -8 5 -10 -1 -5 -21 6 -21 4 -25 -7 -19 -12 8 -12 6 0 -8 7
-9 10 -17 7 -17 -4 0 -2 -9 4 -19 8 -16 6 -22 -7 -30 -12 -7 -13 -11 -5 -11 8
0 12 -6 9 -12 -2 -7 0 -26 4 -41 6 -21 4 -29 -7 -34 -12 -4 -12 -8 3 -20 10
-8 13 -12 7 -9 -13 7 -12 -43 1 -64 6 -10 4 -12 -8 -7 -11 4 -14 2 -10 -8 3
-8 10 -12 16 -8 6 4 7 1 2 -7 -10 -16 -11 -110 -2 -134 4 -11 3 -15 -4 -11 -6
4 -7 -3 -3 -19 4 -18 2 -26 -7 -27 -8 0 -5 -4 6 -9 11 -5 15 -9 10 -9 -12 -1
-12 -82 0 -101 5 -7 4 -11 -1 -7 -13 7 -12 -216 1 -225 6 -5 5 -8 -2 -8 -7 0
-13 -5 -13 -11 0 -5 5 -7 12 -3 7 5 8 3 3 -5 -11 -19 -11 -91 0 -91 6 0 4 -4
-3 -9 -15 -9 -15 -17 -1 -43 7 -12 4 -20 -8 -27 -10 -6 -13 -11 -7 -11 15 0
16 -70 1 -89 -8 -10 -8 -12 -1 -8 7 4 15 0 18 -9 3 -9 2 -12 -5 -9 -6 4 -7 -3
-3 -21 6 -21 4 -25 -7 -19 -11 7 -12 6 -3 -6 6 -8 10 -34 9 -58 -2 -25 1 -57
6 -73 5 -17 4 -30 -3 -34 -7 -5 -8 -2 -3 6 5 8 4 11 -3 6 -15 -9 -3 -38 12
-29 6 3 3 -3 -7 -14 -10 -12 -14 -24 -9 -27 14 -9 21 -56 9 -63 -6 -4 -7 -1
-2 7 5 8 4 11 -3 6 -15 -9 -3 -38 12 -29 6 3 2 -4 -9 -17 -11 -13 -15 -20 -9
-17 15 9 27 -20 12 -29 -7 -5 -8 -2 -3 6 5 8 4 11 -3 6 -15 -9 -3 -38 12 -29
6 3 2 -4 -9 -17 -11 -13 -15 -20 -9 -17 15 9 27 -20 12 -29 -7 -5 -8 -2 -3 6
5 8 4 11 -3 6 -15 -9 -3 -38 12 -29 6 3 2 -4 -9 -17 -11 -13 -15 -20 -9 -17
15 9 27 -20 12 -29 -7 -5 -8 -2 -3 6 5 8 4 11 -3 6 -15 -9 -3 -38 12 -29 6 3
3 -3 -7 -14 -11 -13 -14 -23 -8 -27 6 -4 9 -23 8 -44 -2 -20 0 -49 4 -64 5
-17 3 -30 -3 -34 -7 -5 -8 -2 -3 6 5 8 4 11 -3 6 -15 -9 -3 -38 12 -29 6 3 3
-3 -7 -14 -11 -13 -14 -23 -8 -27 12 -8 12 -67 -1 -83 -6 -7 -5 -14 3 -19 8
-5 9 -3 4 6 -5 9 -4 11 4 6 6 -4 8 -13 4 -19 -4 -7 -8 -41 -8 -77 0 -36 -4
-70 -8 -77 -4 -6 -2 -15 4 -19 8 -5 9 -3 4 6 -6 9 -4 11 5 5 10 -6 9 -11 -5
-22 -11 -7 -15 -13 -9 -13 5 0 10 -13 10 -30 1 -20 -2 -27 -10 -23 -6 3 -2 -4
9 -17 11 -13 15 -20 8 -16 -9 5 -11 -14 -9 -77 2 -46 6 -89 10 -95 3 -6 1 -14
-5 -18 -8 -5 -9 -3 -4 6 5 8 4 11 -3 6 -15 -9 -3 -38 12 -29 6 3 3 -3 -7 -14
-10 -12 -14 -24 -9 -27 5 -3 12 -15 15 -26 3 -11 1 -18 -3 -15 -10 6 -7 -186
3 -202 4 -7 2 -15 -4 -19 -8 -5 -9 -3 -4 6 5 8 4 11 -3 6 -15 -9 -3 -38 12
-29 6 3 3 -3 -7 -14 -10 -12 -14 -24 -9 -27 5 -3 12 -15 15 -26 3 -11 1 -18
-3 -15 -10 6 -7 -186 3 -202 4 -7 2 -15 -4 -19 -8 -5 -9 -3 -4 6 5 8 4 11 -3
6 -15 -9 -3 -38 12 -29 6 3 3 -3 -7 -14 -11 -13 -14 -23 -8 -27 12 -8 12 -67
-1 -83 -6 -7 -5 -14 3 -19 8 -5 9 -3 4 6 -5 9 -4 11 4 6 6 -4 8 -13 4 -19 -13
-20 -12 -128 1 -120 6 4 3 -5 -6 -19 -13 -19 -15 -29 -6 -34 7 -5 8 -3 3 6 -6
9 -4 11 4 6 9 -6 8 -12 -4 -26 -11 -12 -13 -20 -6 -25 8 -4 8 -12 2 -23 -7
-12 -5 -23 7 -36 11 -13 12 -16 3 -11 -11 6 -13 3 -9 -13 4 -12 2 -24 -2 -27
-4 -3 -6 -15 -2 -27 4 -18 2 -20 -16 -16 -12 3 -23 1 -25 -5 -2 -7 -11 -7 -23
-2 -25 10 -46 12 -59 4 -5 -4 -63 -7 -127 -7 -86 0 -116 3 -111 12 5 8 3 8 -8
0 -11 -9 -18 -7 -33 7 -11 11 -14 19 -8 19 7 0 12 5 12 11 0 5 -3 8 -8 6 -4
-3 -7 10 -7 29 0 19 2 34 5 34 7 0 3 77 -5 90 -3 6 -2 10 4 10 6 0 6 11 1 30
-6 21 -5 30 3 30 7 0 6 4 -3 10 -11 7 -11 10 -2 10 10 0 10 5 2 20 -8 15 -8
20 2 20 9 0 9 3 -2 10 -13 9 -13 10 0 10 13 0 13 1 0 10 -9 6 -10 10 -3 10 8
0 9 9 3 30 -5 17 -5 30 0 30 5 0 5 13 0 30 -5 19 -5 30 1 30 6 0 5 8 -1 20 -6
12 -7 20 -1 20 6 0 6 11 1 30 -6 20 -5 30 2 30 6 0 6 6 -2 15 -10 12 -10 15 1
15 11 0 11 2 -1 10 -11 7 -11 10 -2 10 8 0 10 5 6 12 -12 18 -11 92 1 100 6 5
6 8 -2 8 -8 0 -9 9 -3 30 5 19 5 28 -1 25 -5 -4 -9 -1 -9 4 0 6 4 11 8 11 5 0
9 7 9 15 0 8 -4 12 -9 9 -4 -3 -8 0 -8 5 0 6 5 11 10 11 7 0 7 6 0 20 -8 15
-8 20 2 20 9 0 9 3 -2 10 -11 7 -11 10 -2 10 10 0 10 5 2 20 -8 15 -8 20 2 20
10 0 10 2 -1 9 -8 5 -9 10 -3 12 8 3 8 17 3 42 -5 20 -5 37 -1 37 5 0 5 14 0
30 -6 21 -5 30 3 30 8 0 7 3 -2 9 -10 7 -10 10 -1 13 10 3 10 9 1 26 -9 17 -9
22 1 22 9 0 9 3 -2 10 -11 7 -11 10 -2 10 9 0 10 5 2 19 -7 14 -6 21 3 24 9 4
8 6 -2 6 -11 1 -11 4 -1 16 10 12 10 15 -1 15 -8 0 -6 6 7 16 10 8 14 13 8 10
-7 -3 -14 3 -17 14 -3 11 0 20 6 20 7 0 5 5 -3 10 -11 7 -11 10 -2 10 9 0 10
5 2 19 -7 14 -6 21 3 24 9 4 8 6 -2 6 -11 1 -11 4 -1 16 10 12 10 15 -1 15
-12 0 -12 2 0 9 10 7 11 13 2 30 -9 16 -9 21 1 21 9 0 9 3 -2 10 -8 5 -10 10
-4 10 8 0 9 11 4 35 -5 24 -4 35 4 35 7 0 6 4 -3 9 -8 5 -9 10 -3 12 8 3 8 17
3 42 -6 24 -5 37 1 37 6 0 5 6 -2 15 -10 12 -10 15 1 15 11 0 11 2 -1 10 -11
7 -11 10 -2 10 10 0 10 5 2 20 -6 11 -7 20 -1 20 5 0 6 14 1 35 -5 24 -4 35 4
35 6 0 4 5 -4 10 -11 7 -11 10 -2 10 10 0 10 5 2 20 -8 15 -8 20 2 20 9 0 9 3
-2 10 -8 5 -10 10 -5 10 6 0 8 37 5 100 -3 55 -2 100 2 100 4 0 3 14 -2 30 -5
17 -5 30 0 30 5 0 5 13 0 30 -6 20 -5 30 2 30 6 0 6 6 -2 15 -10 12 -10 15 1
15 11 0 11 2 -1 10 -13 8 -13 10 0 10 10 0 11 3 3 11 -7 7 -8 21 -3 40 5 16 5
27 0 24 -4 -2 -7 20 -6 50 0 30 6 55 11 55 6 0 2 5 -8 11 -11 7 -15 15 -10 22
13 17 9 138 -5 163 -6 12 -9 24 -7 28 3 3 2 4 -1 2 -3 -3 -25 15 -48 40 -23
24 -48 44 -54 44 -6 0 -14 9 -17 20 -3 11 -13 20 -21 20 -8 0 -13 3 -11 8 6 9
-90 102 -98 94 -3 -3 -5 0 -5 6 0 13 -78 92 -91 92 -5 0 -9 3 -9 8 0 12 -58
72 -69 72 -6 0 -11 4 -11 8 0 13 -56 72 -68 72 -7 0 -12 5 -12 11 0 15 -26 39
-34 32 -3 -4 -6 -2 -6 4 0 14 -157 173 -170 173 -6 0 -10 4 -10 10 0 10 -59
70 -69 70 -3 0 -15 14 -26 30 -11 16 -24 30 -28 30 -12 0 -37 27 -37 39 0 6
-3 11 -7 11 -14 1 -93 78 -93 91 0 7 -3 10 -6 6 -3 -3 -37 25 -75 64 -37 38
-73 69 -79 69 -6 0 -9 4 -6 8 3 5 -6 15 -19 22 -14 7 -27 20 -30 29 -3 9 -21
27 -40 41 -19 14 -37 33 -40 43 -4 9 -10 17 -14 17 -12 0 -79 68 -73 74 3 3
-3 6 -13 6 -10 0 -16 3 -12 6 6 6 -16 34 -28 34 -9 0 -85 82 -85 92 0 4 -4 7
-8 6 -4 -2 -27 16 -51 40 -23 23 -47 42 -52 42 -6 0 -7 4 -4 10 9 15 -32 20
-165 17 -69 -2 -133 1 -142 5 -10 5 -18 5 -18 1 0 -6 -359 -7 -407 -1 -12 1
-18 32 -14 66 1 6 -2 12 -8 12 -5 0 -8 11 -6 25 1 14 -1 25 -6 25 -5 0 -5 7
-2 17 5 11 3 14 -6 8 -9 -5 -12 -2 -9 11 2 11 -3 25 -12 32 -13 11 -13 12 0 6
12 -6 13 -5 3 7 -6 8 -13 23 -15 34 -1 11 -12 28 -23 38 -11 10 -14 16 -8 12
8 -3 6 6 -5 24 -9 17 -21 31 -25 31 -5 0 -5 5 -2 10 3 6 1 10 -4 10 -6 0 -11
7 -11 15 0 8 -4 15 -10 15 -5 0 -10 6 -10 13 0 6 -18 32 -40 56 -22 25 -40 48
-40 53 0 4 -7 8 -17 8 -9 0 -14 3 -10 6 7 7 -38 54 -53 54 -5 0 -9 6 -8 13 2
6 -3 11 -9 9 -7 -1 -13 5 -13 13 0 8 -3 14 -8 13 -12 -5 -62 39 -54 47 4 5 1
5 -6 1 -8 -5 -20 1 -32 14 -10 12 -22 21 -27 21 -20 -2 -43 11 -37 21 4 6 2 8
-4 4 -6 -3 -16 0 -24 7 -7 8 -19 12 -26 9 -6 -2 -12 2 -12 10 0 10 -3 9 -10
-2 -8 -13 -10 -12 -10 3 0 9 -3 16 -7 16 -19 -3 -34 2 -29 9 3 5 -8 8 -24 7
-16 -1 -27 2 -25 6 3 4 -2 10 -11 13 -10 4 -13 2 -8 -7 6 -9 4 -9 -8 1 -9 7
-22 11 -29 10 -8 -2 -13 2 -12 7 1 6 -17 11 -40 12 -77 3 -107 8 -107 17 0 4
-7 3 -15 -4 -8 -7 -15 -8 -15 -3 0 11 -194 10 -227 -1 -16 -5 -23 -3 -23 6 0
10 -2 10 -9 -1 -5 -8 -23 -15 -39 -16 -17 -1 -37 -7 -45 -13 -7 -7 -17 -9 -20
-6 -4 4 -18 -1 -31 -10 -18 -11 -27 -12 -32 -5 -5 8 -10 6 -16 -5 -5 -9 -20
-16 -33 -16 -14 0 -25 -5 -25 -11 0 -5 -4 -8 -9 -4 -5 3 -13 0 -16 -6 -4 -5
-14 -8 -22 -5 -8 3 -11 1 -8 -4 3 -6 1 -11 -4 -11 -6 -1 -15 -2 -20 -3 -5 0
-23 -13 -41 -28 -18 -15 -37 -25 -42 -22 -4 3 -8 1 -8 -5 0 -5 -19 -21 -43
-35 -23 -14 -38 -26 -34 -26 5 0 -6 -12 -24 -28 -41 -33 -80 -72 -74 -72 3 0
-13 -19 -35 -41 -22 -23 -40 -48 -40 -56 0 -8 -5 -11 -10 -8 -9 5 -11 1 -10
-20 1 -3 -5 -12 -12 -20 -31 -34 -36 -43 -31 -49 4 -3 1 -6 -5 -6 -7 0 -12 -7
-12 -15 0 -8 -5 -15 -11 -15 -5 0 -8 -4 -5 -9 3 -5 -4 -21 -16 -37 -13 -15
-17 -25 -10 -21 8 6 10 3 6 -7 -3 -9 -10 -16 -15 -16 -5 0 -8 -3 -7 -7 0 -5
-1 -15 -4 -23 -20 -57 -28 -89 -28 -109 0 -12 -3 -20 -7 -18 -5 3 -9 -16 -10
-41 -1 -25 -7 -50 -13 -56 -5 -5 -10 -15 -10 -20 0 -6 5 -4 10 4 6 9 10 10 10
3 0 -6 -4 -14 -9 -17 -14 -9 -10 -236 3 -236 6 0 4 -5 -4 -10 -12 -8 -12 -10
-1 -10 11 0 11 -3 1 -16 -8 -8 -9 -14 -4 -13 23 4 26 -2 8 -16 -13 -11 -14
-14 -4 -13 10 2 15 -5 15 -24 -1 -14 3 -24 7 -22 4 3 9 -6 9 -20 2 -29 3 -34
13 -58 7 -15 13 -41 15 -61 1 -5 5 -6 10 -3 5 4 7 -3 4 -14 -3 -13 0 -20 8
-20 11 0 11 -2 -1 -10 -13 -8 -12 -10 3 -10 9 0 17 -3 18 -7 3 -30 9 -48 19
-51 5 -2 8 -8 4 -13 -3 -5 0 -9 6 -9 6 0 8 -4 5 -10 -3 -5 -1 -10 4 -10 6 0
11 -5 11 -11 0 -6 7 -17 15 -26 8 -8 13 -19 10 -24 -4 -5 1 -9 9 -9 9 0 15 -3
14 -8 -3 -8 3 -16 53 -72 16 -18 29 -36 29 -41 0 -5 3 -8 8 -7 10 4 52 -40 52
-55 0 -9 3 -8 9 2 7 11 10 9 16 -8 3 -11 13 -21 21 -21 8 0 14 -4 14 -9 0 -8
49 -41 75 -51 6 -2 19 -12 29 -22 11 -10 26 -18 33 -18 7 0 13 -5 13 -10 0 -6
3 -9 8 -8 4 1 25 -7 47 -17 22 -10 49 -20 60 -22 11 -2 21 -8 23 -13 2 -5 10
-6 19 -3 10 4 14 2 10 -4 -4 -7 2 -11 16 -11 12 0 33 -3 47 -7 14 -4 39 -8 55
-10 17 -2 31 -4 33 -5 1 -2 6 -3 11 -4 5 0 13 -4 17 -8 4 -4 13 -3 21 3 9 9
13 8 13 0 0 -6 5 -11 11 -11 5 0 7 5 3 12 -5 7 -3 8 7 2 17 -10 209 -12 209
-1 0 4 5 7 11 7 5 0 7 -6 3 -12 -4 -7 2 -4 14 6 13 11 22 14 22 7 0 -8 6 -9
18 -3 9 5 27 8 39 7 13 -1 23 2 23 6 0 4 7 10 16 13 10 4 13 2 8 -7 -5 -8 -2
-7 9 2 9 7 17 10 17 5 0 -5 5 -1 11 9 6 9 14 15 20 12 12 -8 79 16 79 29 0 5
3 6 6 3 4 -3 16 -1 28 5 11 7 24 11 29 10 4 -1 7 2 7 8 0 5 6 10 14 10 8 0 22
7 30 16 9 8 16 13 16 9 0 -3 12 6 27 20 15 14 31 25 35 25 3 0 14 8 24 17 10
10 20 18 24 18 3 0 25 19 48 43 22 23 46 42 52 42 5 0 9 4 8 9 -2 5 10 20 25
35 15 14 25 26 22 26 -3 0 6 11 20 24 15 14 24 29 21 34 -3 6 1 12 9 16 8 3
15 12 15 21 0 8 4 15 9 15 5 0 13 9 16 20 4 11 11 17 17 14 7 -4 8 -2 4 5 -4
6 -2 18 4 26 7 8 9 15 4 15 -4 0 0 6 9 13 9 6 18 23 21 37 2 14 9 24 16 22 7
-2 9 5 5 18 -7 22 18 55 35 45 5 -3 10 0 10 7 0 9 3 9 10 -2 5 -8 10 -10 10
-5 0 6 20 10 45 10 25 0 45 -3 45 -7 0 -4 11 -3 25 2 15 6 25 6 25 0 0 -5 12
-5 28 -1 15 5 37 4 50 0 13 -5 21 -5 18 -1 -2 4 18 7 45 7 27 0 49 -4 49 -8 0
-4 7 -4 17 1 9 5 29 6 44 2 17 -5 32 -4 39 3 10 9 14 9 17 0 4 -10 10 -10 26
-2 12 7 19 8 15 5 -8 -9 21 -40 46 -49 10 -4 14 -12 10 -18 -4 -8 -3 -9 5 -5
6 4 14 0 17 -8 3 -9 10 -13 15 -10 5 3 9 0 9 -6 0 -6 7 -18 15 -26 8 -9 15
-13 15 -11 0 3 17 -11 38 -32 21 -20 37 -38 36 -41 -1 -3 4 -11 12 -18 8 -7
14 -10 14 -6 0 4 11 -6 25 -22 14 -16 25 -32 25 -36 0 -5 7 -8 16 -8 8 0 12
-4 9 -10 -3 -5 1 -10 10 -10 9 0 14 -4 11 -8 -3 -5 6 -15 19 -22 13 -7 22 -16
20 -20 -2 -3 5 -13 17 -21 12 -8 33 -27 47 -43 57 -63 81 -86 92 -86 7 0 9 -3
6 -7 -4 -3 7 -16 23 -28 16 -12 27 -25 23 -29 -4 -4 3 -9 15 -13 12 -3 20 -9
17 -13 -3 -5 4 -11 15 -15 11 -3 20 -13 20 -21 0 -8 8 -14 17 -14 9 0 14 -3
10 -6 -8 -8 16 -33 26 -27 4 2 7 -3 7 -11 0 -9 7 -16 16 -16 8 0 13 -4 10 -8
-2 -4 9 -17 25 -27 16 -11 27 -26 24 -32 -2 -7 -1 -12 3 -10 11 3 82 -57 82
-70 0 -7 4 -13 9 -13 13 0 71 -59 71 -72 0 -6 3 -9 6 -6 7 7 74 -62 74 -76 0
-5 3 -7 6 -3 7 7 54 -41 54 -55 0 -5 4 -6 10 -3 6 3 10 -2 10 -11 0 -10 3 -15
6 -12 6 7 54 -39 54 -52 0 -6 4 -10 9 -10 13 0 96 -83 93 -92 -1 -5 2 -8 7 -8
13 0 91 -76 91 -89 0 -6 5 -11 10 -11 6 0 10 -5 10 -11 0 -5 -5 -7 -12 -3 -7
5 -8 3 -3 -6 11 -18 13 -91 3 -112 -6 -12 -5 -18 3 -18 8 0 8 -4 -1 -15 -7 -8
-8 -15 -4 -15 5 0 9 -20 9 -44 0 -24 -3 -42 -7 -39 -5 2 -8 -1 -8 -6 0 -6 3
-11 8 -11 4 0 7 -24 7 -54 0 -30 -3 -52 -7 -49 -5 2 -8 -1 -8 -6 0 -6 5 -11
10 -11 6 0 10 -5 10 -11 0 -5 -6 -7 -12 -3 -10 6 -10 5 -1 -7 7 -9 8 -20 3
-29 -5 -8 -5 -21 1 -31 6 -12 5 -19 -4 -22 -9 -3 -9 -7 0 -19 10 -11 10 -17 1
-26 -9 -9 -9 -12 0 -12 9 0 10 -6 4 -17 -9 -20 -8 -60 2 -70 3 -3 1 -12 -5
-20 -9 -9 -8 -13 0 -13 8 0 9 -5 2 -18 -5 -10 -6 -24 -1 -32 5 -8 5 -21 -1
-31 -6 -12 -5 -19 4 -23 9 -5 9 -7 0 -12 -7 -3 -13 -10 -13 -15 0 -6 6 -7 12
-3 10 6 10 4 0 -8 -10 -13 -10 -17 0 -22 10 -5 10 -7 1 -12 -7 -3 -13 -10 -13
-15 0 -6 4 -8 8 -5 8 5 8 -29 -1 -86 -2 -14 -1 -32 4 -39 4 -8 3 -19 -3 -26
-7 -9 -7 -13 2 -13 10 0 10 -3 0 -15 -7 -8 -9 -15 -4 -15 12 0 11 -81 0 -99
-7 -11 -6 -12 5 -6 12 8 12 6 0 -8 -9 -11 -10 -17 -2 -17 6 0 11 -5 11 -11 0
-5 -5 -7 -10 -4 -13 8 -9 -17 4 -27 6 -4 4 -13 -3 -22 -10 -11 -10 -16 -2 -16
8 0 9 -5 2 -18 -5 -10 -6 -24 -1 -32 5 -8 5 -21 -1 -31 -6 -12 -5 -19 4 -22 9
-3 9 -7 -2 -20 -11 -14 -11 -17 0 -17 11 0 11 -2 -1 -10 -10 -6 -11 -10 -2
-10 6 0 12 -5 12 -11 0 -5 -5 -7 -10 -4 -13 8 -9 -17 4 -27 6 -4 4 -13 -3 -22
-10 -11 -10 -16 -2 -16 9 0 9 -5 1 -20 -8 -14 -8 -20 0 -20 6 0 8 -5 3 -13
-11 -17 -10 -40 2 -50 6 -6 6 -10 -2 -14 -7 -2 -13 -9 -13 -14 0 -6 6 -7 12
-3 10 6 10 4 0 -8 -10 -13 -10 -17 0 -22 10 -5 10 -7 1 -12 -7 -3 -13 -10 -13
-15 0 -6 6 -7 13 -3 9 6 9 4 -1 -8 -10 -13 -10 -17 0 -22 10 -5 10 -7 1 -12
-7 -3 -13 -10 -13 -15 0 -6 6 -7 13 -3 9 6 9 4 -1 -8 -10 -13 -10 -17 0 -20
10 -4 10 -8 -1 -21 -9 -12 -10 -17 -2 -17 8 0 9 -6 3 -17 -9 -20 -8 -60 2 -70
3 -3 1 -12 -5 -20 -9 -9 -8 -13 0 -13 8 0 9 -5 2 -18 -5 -10 -6 -24 -1 -32 5
-8 5 -21 -1 -31 -6 -12 -5 -19 4 -23 9 -5 9 -7 0 -12 -7 -3 -13 -10 -13 -15 0
-6 6 -7 13 -3 9 6 9 4 -1 -8 -10 -13 -10 -17 0 -22 10 -5 10 -7 1 -12 -7 -3
-13 -10 -13 -15 0 -6 6 -7 13 -3 9 6 9 4 -1 -8 -10 -13 -10 -17 0 -22 10 -5
10 -7 1 -12 -7 -3 -13 -10 -13 -15 0 -6 6 -7 13 -3 9 6 9 4 -1 -8 -10 -13 -10
-17 0 -22 10 -5 10 -7 1 -12 -7 -3 -13 -10 -13 -15 0 -6 6 -7 13 -3 9 6 9 4
-1 -8 -10 -13 -10 -17 0 -22 10 -5 10 -7 0 -12 -6 -3 -12 -10 -12 -15 0 -6 6
-7 13 -3 8 5 8 2 -2 -9 -9 -12 -10 -17 -2 -17 7 0 9 -5 4 -12 -10 -18 -10 -42
1 -50 6 -4 4 -13 -3 -22 -10 -12 -11 -16 -1 -16 8 0 9 -6 5 -17 -10 -23 -10
-33 -1 -62 5 -14 4 -21 -1 -18 -11 7 -11 -23 0 -40 5 -7 3 -21 -2 -31 -7 -13
-7 -22 1 -30 9 -9 8 -18 0 -37 -7 -15 -8 -24 -2 -20 5 3 10 2 10 -4 0 -5 -5
-13 -10 -16 -6 -3 -7 -14 -2 -23 10 -21 9 -103 -1 -120 -5 -7 -3 -12 4 -12 8
0 8 -4 -1 -15 -9 -11 -9 -15 -1 -15 7 0 10 -4 6 -9 -11 -18 30 -29 98 -27 37
1 70 0 73 -3 8 -8 43 -8 39 0 -3 4 11 7 29 6 20 0 32 -5 29 -11 -3 -5 -1 -6 6
-2 23 15 63 16 79 4 12 -10 14 -10 8 0 -9 15 -5 15 29 2 18 -7 24 -7 20 0 -7
12 36 7 56 -6 7 -4 9 -3 6 3 -4 6 4 10 18 11 14 0 22 -5 18 -11 -4 -6 -1 -7 7
-2 18 11 122 13 137 2 6 -4 14 -3 18 3 5 8 11 7 23 -2 9 -7 13 -8 9 -2 -4 7 5
11 23 11 16 0 27 -5 23 -10 -3 -5 2 -6 13 0 24 10 55 10 73 -1 10 -6 12 -5 7
2 -9 15 -5 15 29 2 17 -7 24 -7 20 0 -7 11 23 9 41 -3 6 -3 14 -3 18 0 12 13
48 14 40 1 -5 -7 -3 -8 5 -3 22 13 93 16 85 3 -5 -7 -3 -8 7 -2 20 12 38 14
45 3 3 -5 11 -6 17 -2 19 12 197 10 197 -2 0 -7 3 -7 8 0 8 13 22 13 41 1 10
-6 12 -5 7 2 -4 7 -1 12 9 12 10 0 13 -5 9 -12 -5 -7 -3 -8 7 -2 23 14 51 16
43 2 -4 -7 -3 -8 5 -4 22 14 62 16 82 5 15 -8 19 -8 15 0 -7 11 58 6 78 -7 5
-3 6 0 3 5 -5 7 6 11 27 10 20 0 32 -5 29 -11 -3 -5 -1 -6 6 -2 18 11 63 18
57 8 -3 -5 1 -9 9 -9 8 0 12 4 9 9 -7 11 9 10 41 -2 17 -7 24 -7 20 0 -7 11
23 9 41 -3 6 -3 14 -3 18 0 12 13 48 14 40 1 -4 -7 -3 -8 5 -4 22 14 62 16 82
5 15 -8 19 -8 15 0 -7 11 58 6 78 -7 5 -3 6 -1 3 4 -3 6 20 10 58 10 35 -1 61
-5 58 -9 -3 -5 3 -4 14 2 14 7 23 7 31 -1 9 -9 12 -9 12 1 0 11 3 11 17 0 14
-12 16 -12 8 0 -6 11 -4 13 7 8 32 -12 51 17 49 72 -1 40 2 51 11 46 7 -4 4 1
-6 9 -13 10 -15 16 -7 16 11 0 11 3 0 17 -12 15 -12 16 3 10 12 -4 15 -2 11 8
-3 8 -8 13 -13 10 -4 -2 -5 8 -3 23 9 57 8 157 0 170 -5 6 -6 12 -1 12 5 0 9
179 9 399 0 263 -3 397 -10 394 -5 -3 -5 -1 1 6 6 7 9 32 6 56 -3 30 0 45 8
45 6 0 8 5 5 10 -4 6 -11 7 -17 4 -7 -5 -8 -2 -2 7 12 19 12 30 1 53 -6 12 -6
16 1 12 7 -4 9 29 6 95 -3 73 -1 98 8 93 7 -5 8 -3 2 7 -14 23 -15 159 -1 159
8 0 8 3 2 8 -15 10 -15 613 -1 604 7 -4 7 -1 0 9 -7 9 -10 110 -9 304 1 160
-3 298 -8 309 -5 11 -5 16 0 13 6 -4 9 82 7 214 -1 157 2 219 10 219 7 0 8 3
1 8 -6 4 -11 42 -10 87 1 44 -3 88 -8 99 -5 10 -5 16 0 13 4 -3 8 133 8 303 0
202 -3 306 -10 303 -5 -3 -5 -1 1 6 6 7 9 32 6 56 -3 30 0 45 8 45 6 0 8 5 5
10 -4 6 -11 7 -17 4 -7 -5 -8 -2 -2 7 12 19 11 72 -1 81 -6 5 -5 8 3 8 6 0 12
7 12 16 0 9 -5 12 -12 8 -7 -5 -8 -3 -2 7 11 18 13 131 2 146 -5 6 -5 14 0 17
10 6 8 79 -3 97 -5 8 -4 10 4 5 12 -8 9 53 -5 75 -4 7 -3 9 4 5 11 -7 10 63
-2 83 -4 6 -3 11 3 11 6 0 7 21 4 51 -5 42 -3 50 8 45 8 -4 5 0 -5 8 -11 9
-16 16 -10 16 10 0 11 247 1 257 -4 3 3 14 15 25 17 14 23 16 30 6 6 -10 10
-10 16 -1 5 8 13 9 22 3 9 -5 19 -5 27 2 9 7 13 7 13 -1 0 -6 5 -11 11 -11 5
0 7 5 3 11 -5 8 -1 8 14 0 27 -14 35 -14 26 2 -5 9 -4 9 6 0 9 -9 19 -9 33 -2
14 8 18 8 13 0 -10 -15 7 -14 23 2 11 10 12 9 6 -3 -8 -13 -7 -13 8 -1 11 9
17 10 17 2 0 -13 22 -10 32 4 5 6 8 5 8 -2 0 -7 5 -13 11 -13 5 0 7 5 3 11 -5
8 -1 8 14 0 26 -14 35 -14 26 0 -4 7 1 7 16 -1 15 -8 20 -8 16 -1 -4 6 -2 11
3 11 6 0 11 -4 11 -9 0 -10 26 -9 36 2 4 4 13 2 21 -4 10 -9 13 -8 13 2 0 11
2 11 9 0 8 -12 12 -12 25 -2 13 11 16 11 16 0 0 -11 2 -11 10 1 5 8 10 10 10
4 0 -12 49 -12 68 0 7 4 12 2 12 -5 0 -8 4 -8 16 2 13 10 17 10 25 -2 8 -12
10 -12 18 0 7 11 13 12 23 3 11 -9 17 -9 26 0 9 9 12 9 12 -1 0 -11 3 -11 15
-1 12 10 15 10 15 0 0 -10 3 -10 15 0 12 10 15 10 15 -1 0 -11 2 -11 10 1 9
13 10 13 10 0 0 -13 1 -13 10 0 9 13 10 13 10 0 0 -13 1 -13 10 0 9 13 10 13
10 0 0 -13 1 -13 10 0 9 13 10 13 10 0 0 -13 1 -13 10 0 9 13 10 13 10 0 0
-13 1 -13 10 0 9 13 10 13 10 0 0 -13 1 -13 10 0 9 13 10 13 10 0 0 -13 1 -13
10 0 9 13 10 13 10 0 0 -13 1 -13 10 0 9 13 10 13 10 0 0 -13 1 -13 10 0 9 13
10 13 10 0 0 -13 1 -13 10 0 9 13 10 13 10 0 0 -13 1 -13 10 0 9 13 10 13 10
0 0 -13 1 -13 10 0 9 13 10 13 10 0 0 -13 1 -13 10 0 9 13 10 13 10 0 0 -13 1
-13 10 0 9 13 10 13 10 0 0 -13 1 -13 10 0 9 13 10 13 10 0 0 -13 1 -13 10 0
9 13 10 13 10 0 0 -13 1 -13 10 0 5 8 10 10 10 3 0 -6 8 -10 18 -8 9 2 21 4
25 4 5 1 5 7 2 14 -4 6 1 3 10 -8 12 -14 19 -16 22 -8 3 9 10 10 23 3 13 -7
21 -7 25 0 4 7 13 6 27 -1 15 -8 19 -8 14 0 -4 6 -2 11 3 11 6 0 11 -4 11 -9
0 -9 57 -8 67 2 3 4 15 2 26 -4 14 -8 18 -8 13 0 -4 6 -2 11 3 11 6 0 11 -4
11 -9 0 -9 57 -8 67 2 3 4 15 2 26 -4 14 -8 18 -8 13 0 -4 6 -2 11 3 11 6 0
11 -4 11 -9 0 -10 51 -8 68 3 7 4 12 2 12 -5 0 -8 4 -8 16 2 13 10 17 10 25
-2 8 -12 10 -12 19 1 9 13 11 13 20 0 9 -13 10 -13 10 0 0 13 1 13 10 0 9 -13
10 -13 10 0 0 13 1 13 10 0 9 -13 10 -13 10 0 0 13 1 13 10 0 9 -13 10 -13 10
0 0 12 2 13 9 1 7 -11 9 -11 14 0 5 12 6 12 6 0 1 -11 4 -11 16 -1 11 9 15 9
15 1 0 -7 5 -9 13 -4 19 12 37 12 37 1 0 -6 6 -5 15 2 11 9 15 9 15 1 0 -7 5
-9 13 -4 20 12 37 12 37 0 0 -7 5 -5 10 3 6 10 10 11 10 3 0 -7 5 -13 11 -13
5 0 8 4 5 8 -6 11 25 9 43 -3 10 -5 12 -4 7 3 -4 7 -2 12 3 12 6 0 11 -5 11
-10 0 -7 6 -7 20 0 15 8 20 8 20 -1 0 -8 4 -8 13 -1 8 7 18 7 27 2 8 -5 21 -5
32 1 12 6 18 6 18 0 0 -6 7 -8 15 -5 8 4 12 10 9 15 -3 5 2 6 10 3 9 -3 16
-11 16 -18 0 -6 5 -4 10 4 9 13 10 13 10 0 0 -13 1 -13 10 0 8 12 10 12 10 1
0 -11 3 -11 15 -1 10 9 15 9 15 1 0 -8 6 -7 20 1 17 11 22 10 30 -1 7 -12 11
-12 24 -2 9 8 16 10 16 6 0 -4 7 -2 15 5 13 11 14 10 10 -2 -5 -12 0 -15 19
-13 14 2 30 6 35 10 6 3 11 1 11 -6 0 -8 4 -9 13 0 10 8 17 7 27 -2 10 -9 11
-9 6 1 -4 7 -1 12 8 12 9 0 16 -4 16 -10 0 -5 5 -10 11 -10 5 0 8 3 6 8 -3 4
6 8 19 8 15 1 21 -2 17 -10 -4 -6 1 -5 10 3 9 7 17 10 17 6 0 -4 6 -2 14 4 11
9 16 9 21 0 6 -8 10 -7 16 2 7 11 9 11 9 1 0 -9 5 -10 18 -4 9 5 26 8 37 6 10
-1 26 3 34 9 12 10 13 9 6 -3 -8 -13 -7 -13 8 -1 12 9 17 10 17 2 0 -7 5 -9
10 -6 6 4 8 9 6 13 -2 4 24 7 57 6 72 0 89 4 80 20 -4 6 1 5 10 -3 9 -7 17 -9
17 -4 0 4 21 8 46 8 25 0 49 5 52 10 4 6 16 10 27 11 42 2 105 17 105 25 0 5
7 6 15 3 8 -4 15 -1 15 6 0 6 5 8 10 5 15 -9 51 5 44 17 -5 7 -1 7 11 1 13 -8
29 -4 62 13 24 13 41 18 37 12 -6 -10 -5 -10 8 -1 8 7 18 10 21 6 4 -3 7 -1 7
6 0 7 6 11 13 8 6 -2 27 5 45 15 18 10 37 16 43 13 5 -4 9 -1 9 6 0 7 3 9 7 6
3 -4 12 1 20 11 9 10 11 11 7 2 -7 -13 -5 -13 9 -1 9 7 17 10 17 5 0 -5 4 -3
9 4 4 7 14 14 22 16 8 1 28 10 45 19 17 9 34 13 38 10 3 -4 6 -1 6 6 0 7 5 9
10 6 6 -3 10 -1 10 5 0 7 7 10 15 6 8 -3 14 0 12 6 -1 7 3 13 8 14 28 5 55 17
55 25 0 5 6 9 14 9 7 0 29 11 49 24 19 13 38 22 41 18 3 -3 6 0 6 6 0 7 7 12
15 12 8 0 15 5 15 12 0 6 3 9 6 5 3 -3 15 3 27 13 11 11 24 17 28 14 4 -2 12
4 18 13 6 10 11 14 11 10 0 -8 13 1 51 36 10 9 22 18 27 18 13 3 57 33 77 54
11 12 28 24 38 28 9 3 17 11 17 17 0 6 4 9 9 6 5 -3 11 1 15 9 3 8 11 15 17
15 6 0 20 10 30 22 11 11 19 17 20 12 0 -5 4 -1 8 9 4 10 11 19 16 20 5 1 26
19 47 39 21 21 38 36 38 34 0 -2 33 28 73 68 40 39 72 73 71 74 -1 2 15 21 36
42 21 21 36 41 33 44 -4 3 1 6 10 6 10 0 17 4 17 10 0 12 26 45 57 73 12 11
20 24 17 29 -3 4 -1 8 4 8 5 0 27 25 47 55 21 30 42 55 46 55 5 0 5 7 2 17 -4
10 -2 14 4 10 10 -7 28 19 25 36 -1 4 5 7 14 7 8 0 13 4 9 10 -3 5 3 18 13 28
19 19 36 52 34 65 -1 4 2 7 7 7 5 0 15 16 22 34 7 19 16 33 21 30 7 -5 10 3 7
22 0 4 4 10 9 13 6 3 12 13 14 21 2 8 10 21 18 28 9 8 10 11 2 7 -11 -6 -11
-3 0 16 7 13 17 27 22 30 5 4 6 11 2 17 -3 5 1 13 10 16 8 3 13 10 10 15 -3 5
2 12 11 15 13 5 14 9 5 15 -9 5 -7 12 6 27 18 18 37 70 34 87 -1 4 3 7 9 7 6
0 9 7 5 15 -3 8 -1 15 4 15 6 0 10 9 10 20 0 11 4 20 8 20 5 0 9 6 10 13 3 34
11 52 23 49 9 -2 9 1 2 10 -9 13 8 64 18 53 3 -2 3 12 1 32 -4 28 -1 35 9 31
11 -4 14 7 14 47 0 29 3 51 8 48 6 -4 11 12 8 30 0 4 5 7 11 7 9 0 8 4 -2 10
-12 8 -12 10 -1 10 11 0 11 3 0 17 -8 9 -9 14 -3 10 7 -4 14 0 18 8 3 8 0 15
-7 15 -9 0 -8 3 1 9 8 4 13 14 12 22 -4 26 0 50 8 46 4 -3 7 17 6 44 0 38 3
49 15 49 10 0 12 3 5 8 -6 4 -9 16 -7 27 2 11 5 34 5 50 1 17 7 33 13 37 6 5
5 8 -3 8 -10 0 -10 5 -2 20 8 15 8 20 -2 20 -6 0 -3 7 8 16 10 8 14 13 8 10
-7 -3 -11 6 -10 24 1 17 3 30 6 30 3 0 5 36 5 79 -1 48 3 77 9 74 5 -3 6 -1 2
5 -14 23 -16 56 -3 64 8 5 9 10 2 16 -12 8 -13 42 -2 60 5 6 5 12 0 12 -12 0
-10 64 2 73 6 4 5 10 -3 16 -19 12 -19 15 -2 36 8 11 11 16 5 13 -10 -6 -13
118 -3 128 3 3 2 20 -2 39 -5 23 -4 36 4 39 8 3 8 5 0 5 -11 1 -10 53 1 72 4
5 1 9 -4 9 -6 0 -11 5 -11 11 0 5 5 7 11 3 8 -5 9 -2 1 12 -8 15 -7 23 6 37
13 15 13 18 2 15 -17 -4 -21 58 -5 81 8 12 7 13 -5 6 -13 -8 -13 -7 -1 8 9 12
10 17 2 17 -7 0 -9 4 -6 10 11 18 14 50 4 50 -6 0 -6 8 1 20 8 14 8 20 0 20
-8 0 -8 6 0 20 8 14 8 20 0 20 -8 0 -8 6 0 20 8 14 8 20 0 20 -6 0 -8 5 -5 10
4 6 11 8 16 5 5 -3 6 1 3 9 -3 9 -11 13 -18 9 -6 -4 -4 2 4 12 9 11 10 16 3
11 -7 -4 -13 -2 -13 3 0 6 4 11 9 11 6 0 6 12 1 30 -5 18 -5 32 1 35 5 4 9 1
9 -6 0 -7 2 -10 5 -7 8 8 -6 39 -14 33 -4 -2 -8 2 -8 10 0 8 4 12 9 9 4 -3 8
2 8 11 0 10 -5 13 -12 9 -8 -5 -7 0 2 11 9 11 10 16 3 11 -7 -4 -13 -2 -13 3
0 6 5 11 10 11 7 0 7 6 1 18 -6 11 -6 24 0 33 11 18 12 42 1 35 -5 -3 -9 1 -9
9 0 8 5 11 10 8 6 -4 8 0 4 10 -3 9 -1 18 6 21 7 2 3 5 -8 5 -17 1 -17 3 -5
11 13 9 13 10 0 10 -13 0 -13 1 0 10 8 5 10 10 4 10 -12 0 -12 29 0 48 4 6 4
12 -1 12 -4 0 -1 5 7 10 13 8 12 10 -2 10 -21 0 -23 11 -6 28 6 6 12 21 13 32
1 15 -1 17 -12 9 -18 -16 -16 1 3 23 14 14 14 19 3 23 -10 4 -14 25 -14 76 1
39 -3 73 -7 75 -4 3 -5 11 -1 19 3 9 0 22 -6 29 -9 10 -9 16 -1 21 8 5 8 11
-1 21 -9 11 -8 14 2 14 9 0 10 3 4 8 -6 4 -11 27 -12 51 -2 25 -8 48 -15 53
-10 6 -10 8 2 8 10 0 11 3 4 8 -6 4 -10 20 -10 35 1 16 -2 31 -6 33 -4 3 -4
12 -1 21 4 9 2 14 -3 11 -5 -4 -10 8 -12 25 -5 70 -6 77 -15 77 -4 0 -6 4 -2
9 3 5 1 12 -5 16 -6 4 -8 11 -4 16 3 5 0 17 -8 26 -11 14 -11 16 2 8 12 -6 13
-5 3 6 -7 7 -13 23 -13 34 0 12 -3 25 -7 29 -4 4 -9 19 -11 34 -2 14 -8 32
-14 39 -6 8 -8 16 -4 20 3 3 6 0 6 -7 0 -7 3 -10 7 -6 4 4 -3 16 -17 28 -14
11 -19 17 -12 13 6 -3 12 -1 12 4 0 6 -5 11 -11 11 -5 0 -7 5 -4 10 3 6 0 10
-7 10 -11 0 -10 2 0 9 11 6 10 10 -4 15 -16 6 -16 8 -4 16 8 6 10 10 4 10 -6
0 -17 19 -24 43 -8 23 -18 45 -23 48 -5 4 -9 18 -9 33 0 17 -6 26 -17 26 -12
0 -13 2 -3 9 11 6 10 10 -3 15 -10 3 -15 12 -12 20 3 8 3 16 -1 18 -10 4 -87
160 -85 170 2 4 -4 8 -13 8 -10 0 -14 6 -10 15 3 8 1 15 -4 15 -6 0 -10 7 -10
15 0 8 -4 15 -10 15 -5 0 -10 9 -10 21 0 11 -4 17 -10 14 -9 -5 -15 16 -11 38
1 5 -2 6 -7 3 -5 -3 -16 8 -26 25 -9 16 -14 29 -10 29 4 0 -2 8 -12 18 -11 9
-30 34 -44 54 -14 21 -29 38 -33 38 -5 0 -5 4 -2 10 3 5 -5 19 -19 31 -14 12
-23 26 -20 31 3 5 2 7 -3 6 -4 -2 -9 1 -10 5 -1 5 -12 17 -24 28 -12 10 -19
19 -15 19 4 0 -11 18 -33 39 -23 22 -41 42 -41 46 0 4 -16 21 -35 37 -19 17
-32 35 -29 40 3 4 2 8 -3 8 -15 0 -73 55 -73 69 0 8 -3 12 -6 8 -3 -3 -24 12
-45 33 -21 21 -39 36 -39 34 0 -3 -7 1 -15 10 -8 8 -15 19 -15 25 0 6 -4 10
-8 8 -12 -3 -72 50 -72 65 0 9 -3 9 -10 -2 -8 -13 -10 -12 -10 3 0 9 -6 17
-13 17 -7 0 -20 8 -29 18 -34 35 -61 57 -53 43 5 -9 4 -12 -3 -7 -7 4 -12 14
-12 22 0 8 -4 13 -9 10 -5 -3 -14 1 -21 9 -7 8 -17 15 -22 15 -5 0 -16 6 -23
13 -36 31 -46 38 -53 33 -5 -3 -15 4 -22 15 -8 10 -20 19 -27 19 -7 0 -13 5
-13 10 0 6 -7 10 -16 10 -9 0 -27 9 -41 20 -14 11 -32 20 -40 20 -8 0 -11 5
-8 10 5 9 -15 15 -37 11 -5 0 -8 4 -8 9 0 6 -7 10 -15 10 -8 0 -15 5 -15 10 0
6 -9 10 -20 10 -11 0 -20 5 -20 10 0 6 -6 10 -13 10 -18 0 -67 24 -67 33 0 4
-11 7 -24 7 -13 0 -26 5 -28 11 -2 6 -15 12 -30 12 -14 1 -26 6 -25 12 1 5 -5
10 -13 11 -29 3 -60 16 -60 26 0 6 -8 4 -17 -3 -11 -10 -14 -10 -9 -1 4 7 2
12 -8 12 -8 0 -27 5 -43 12 -15 6 -31 11 -35 10 -5 -1 -8 2 -8 8 0 5 -7 7 -15
4 -8 -4 -22 -1 -30 6 -8 7 -15 9 -15 4 0 -4 -5 -3 -12 4 -7 7 -20 12 -30 12
-10 0 -18 5 -18 10 0 7 -6 7 -20 0 -18 -10 -23 -7 -22 11 0 3 -10 6 -24 7 -13
1 -35 4 -49 5 -14 1 -25 6 -25 10 0 5 -9 5 -20 2 -11 -3 -20 -3 -20 2 0 5 -12
10 -27 11 -15 1 -30 8 -35 15 -5 8 -8 9 -8 0 0 -12 -24 -12 -36 0 -4 4 -18 7
-31 7 -14 0 -32 4 -42 9 -9 5 -23 6 -31 1 -8 -5 -22 -3 -36 6 -17 12 -24 12
-30 3 -5 -8 -3 -9 6 -4 9 6 11 4 5 -4 -5 -9 -13 -8 -29 7 -21 20 -52 19 -40 0
5 -7 2 -8 -7 -2 -19 12 -42 14 -215 18 -84 2 -158 7 -165 12 -10 6 -10 3 1
-11 14 -17 14 -17 -5 -8 -11 6 -48 10 -83 9 -34 -2 -65 1 -68 6 -3 5 -12 3
-21 -3 -12 -10 -16 -10 -24 2 -5 8 -9 9 -9 4 0 -13 -193 -13 -202 0 -5 6 -8 6
-8 -2 0 -13 -18 -12 -39 1 -9 6 -12 5 -8 -1 4 -6 -21 -9 -66 -7 -40 1 -77 -2
-84 -8 -7 -6 -14 -5 -19 3 -5 8 -3 9 6 4 9 -5 11 -4 6 4 -4 6 -13 8 -19 4 -18
-11 -247 -9 -247 2 0 7 -3 7 -8 0 -9 -13 -115 -14 -124 0 -5 7 -8 6 -8 -1 0
-15 -82 -14 -92 0 -5 8 -8 8 -8 0 0 -7 -11 -9 -26 -6 -21 4 -25 2 -20 -9 4 -8
0 -5 -8 5 -9 11 -16 15 -16 9 0 -7 -12 -9 -31 -6 -24 3 -29 1 -24 -9 3 -7 -1
-4 -9 6 -9 11 -16 16 -16 10 0 -12 -113 -12 -122 1 -5 6 -8 6 -8 -2 0 -7 -10
-10 -26 -7 -19 3 -24 1 -19 -8 4 -7 0 -5 -8 5 -11 14 -16 15 -20 5 -4 -10 -8
-10 -16 2 -6 8 -11 10 -11 4 0 -15 -82 -14 -92 0 -5 7 -8 7 -8 1 0 -6 -54 -10
-141 -10 -77 0 -143 -3 -146 -8 -2 -4 -10 -4 -16 0 -17 11 -117 12 -123 1 -3
-4 -13 -4 -22 1 -9 5 -27 7 -40 5 -16 -3 -21 0 -16 8 5 7 3 8 -7 2 -21 -13
-193 -13 -201 0 -5 8 -8 8 -8 0 0 -6 -17 -10 -40 -9 -22 1 -40 -3 -40 -7 0 -5
-5 -6 -10 -3 -6 4 -7 11 -4 17 5 7 2 8 -7 2 -8 -5 -39 -9 -69 -9 -30 0 -60 -4
-67 -8 -6 -4 -14 -3 -18 2 -3 6 -21 8 -40 6 -24 -3 -35 -1 -35 8 0 7 -3 8 -8
2 -11 -15 -132 -17 -132 -2 0 8 -3 8 -8 2 -9 -14 -125 -14 -134 0 -5 7 -8 6
-8 -1 0 -15 -82 -14 -92 0 -5 8 -8 8 -8 0 0 -7 -11 -9 -26 -6 -21 4 -25 2 -20
-9 4 -8 0 -5 -8 5 -9 11 -16 15 -16 9 0 -7 -12 -9 -31 -6 -24 3 -29 1 -24 -9
3 -7 -1 -4 -9 6 -9 11 -16 16 -16 10 0 -12 -113 -12 -122 1 -5 6 -8 5 -8 -3 0
-9 -5 -10 -19 -2 -14 7 -22 7 -27 -2 -5 -7 -3 -8 6 -3 9 6 11 4 5 -4 -5 -9
-11 -9 -17 -3 -6 6 -17 8 -26 5 -11 -5 -13 -3 -7 8 7 11 6 12 -6 3 -8 -6 -29
-10 -47 -8 -22 2 -30 -1 -25 -9 5 -9 3 -9 -8 -1 -8 6 -24 10 -37 8 -17 -3 -21
0 -16 8 6 10 4 10 -7 2 -18 -13 -61 -16 -54 -3 4 5 4 9 1 9 -3 0 -7 -4 -10 -8z
m-4101 -4444 c17 0 33 -6 37 -12 5 -7 8 -6 8 4 0 10 3 11 8 4 4 -7 21 -14 37
-15 17 -2 36 -10 43 -17 8 -7 18 -10 23 -7 5 4 9 1 9 -6 0 -7 3 -10 6 -6 4 3
13 -1 21 -9 8 -8 18 -12 23 -9 4 3 10 -2 14 -10 3 -8 13 -15 21 -15 9 0 13 -4
10 -10 -3 -5 3 -10 15 -10 12 0 19 -4 16 -8 -2 -4 9 -18 25 -31 16 -13 26 -27
23 -32 -3 -5 2 -9 10 -9 9 0 16 -9 16 -20 0 -11 3 -19 8 -18 4 2 8 -1 9 -6 1
-5 5 -12 10 -15 17 -13 45 -73 39 -87 -3 -8 1 -14 10 -14 8 0 14 -6 12 -12 -1
-7 4 -24 12 -38 13 -24 12 -24 -5 -10 -17 14 -18 14 -5 -10 8 -14 14 -37 14
-52 1 -14 4 -29 8 -33 4 -4 3 -17 -1 -29 -5 -11 -7 -31 -6 -43 1 -13 -1 -23
-5 -23 -4 0 -4 -14 -2 -31 4 -24 2 -30 -8 -24 -10 6 -12 4 -7 -10 4 -9 2 -24
-4 -31 -6 -8 -8 -14 -4 -14 4 0 2 -7 -5 -15 -7 -8 -9 -15 -4 -15 5 0 5 -4 -1
-8 -5 -4 -18 -24 -28 -45 -10 -24 -22 -35 -29 -31 -6 4 -8 3 -4 -4 3 -6 -1
-17 -9 -25 -8 -9 -15 -18 -15 -22 0 -11 -94 -95 -106 -95 -7 0 -15 -7 -18 -16
-4 -9 -9 -14 -13 -10 -3 3 -15 -2 -26 -11 -11 -10 -17 -12 -13 -5 7 11 4 12
-13 3 -11 -7 -21 -16 -21 -20 0 -5 -11 -8 -25 -6 -15 1 -29 -4 -34 -13 -6 -11
-10 -11 -16 -3 -5 8 -11 9 -19 2 -7 -6 -32 -13 -56 -16 -24 -3 -47 -8 -51 -11
-5 -3 -6 3 -2 12 5 13 3 15 -7 9 -18 -11 -60 -16 -60 -6 0 3 -12 8 -26 9 -15
1 -34 8 -42 15 -13 10 -14 9 -8 -1 6 -10 1 -10 -22 2 -16 8 -32 12 -36 9 -3
-4 -6 -1 -6 6 0 7 -4 9 -10 6 -5 -3 -10 -2 -10 3 0 5 -18 17 -40 27 -22 10
-40 22 -40 27 0 4 -7 8 -16 8 -8 0 -12 5 -9 10 3 6 1 10 -5 10 -13 0 -83 75
-80 86 1 4 -5 11 -14 16 -9 5 -16 17 -16 27 0 9 -8 26 -17 37 -19 21 -26 38
-27 66 0 9 -5 14 -10 11 -5 -4 -7 3 -4 15 4 12 2 22 -3 22 -5 0 -8 3 -8 8 1 4
0 9 -1 12 -1 3 -4 18 -6 33 -4 22 -2 27 8 21 10 -5 11 -4 1 7 -16 16 -17 81
-2 96 8 8 7 13 -2 18 -8 6 -10 4 -4 -5 6 -9 4 -11 -4 -6 -9 6 -9 12 2 24 8 10
12 23 10 30 -3 6 1 12 7 12 10 0 10 4 0 15 -7 9 -8 15 -2 15 5 0 13 7 16 16 4
10 2 13 -7 8 -13 -9 12 26 28 38 6 4 6 8 2 8 -4 0 -2 10 5 23 7 12 12 26 13
30 0 4 7 12 15 17 8 5 11 10 7 10 -8 0 2 14 43 58 14 14 24 31 22 37 -2 5 -1
7 3 3 4 -3 30 11 58 33 29 21 58 39 65 39 7 0 10 4 7 10 -3 6 1 7 9 4 9 -3 16
-1 16 5 0 6 7 8 15 5 9 -4 15 0 15 7 0 11 3 11 10 -1 9 -13 10 -13 10 1 0 11
10 15 39 14 22 -1 38 2 35 6 -5 8 68 16 101 11 11 -1 34 -3 50 -4z m-82 -2951
c11 10 57 10 57 0 0 -5 7 -4 15 3 11 9 15 10 15 1 0 -8 8 -10 20 -6 12 4 20 2
20 -6 0 -8 4 -9 13 -1 10 9 23 6 49 -8 20 -10 39 -16 42 -12 4 3 11 0 16 -7 4
-8 17 -15 27 -16 18 -1 29 -8 68 -42 7 -7 17 -13 22 -13 4 0 26 -20 47 -45 22
-24 44 -41 49 -38 6 3 7 1 3 -5 -4 -7 -2 -12 4 -12 6 0 9 -4 6 -9 -4 -5 -3
-11 1 -13 5 -1 19 -18 32 -37 13 -19 17 -31 10 -27 -8 4 -4 -1 8 -12 12 -11
19 -22 16 -26 -3 -3 0 -13 8 -23 12 -15 12 -16 -1 -8 -9 5 -7 -1 5 -15 11 -13
14 -20 8 -16 -9 5 -11 2 -7 -8 3 -9 10 -14 14 -11 5 3 6 -5 2 -17 -4 -16 -2
-19 9 -13 11 6 11 5 3 -4 -7 -8 -9 -25 -4 -46 5 -21 3 -38 -3 -44 -8 -8 -8
-11 1 -11 6 0 9 -6 7 -12 -4 -12 -15 -85 -17 -115 -1 -7 -6 -13 -11 -13 -5 0
-7 -7 -3 -15 3 -8 1 -15 -5 -15 -6 0 -8 -4 -4 -9 3 -5 0 -13 -6 -16 -5 -4 -8
-13 -5 -20 3 -8 -2 -19 -10 -25 -8 -7 -14 -16 -14 -21 0 -9 -21 -38 -52 -71
-10 -10 -18 -21 -18 -24 0 -8 -49 -54 -57 -54 -3 0 -14 -10 -24 -22 -11 -11
-19 -17 -19 -12 0 5 -4 5 -8 -1 -12 -17 -89 -55 -96 -48 -3 3 -6 2 -6 -4 0 -6
-7 -14 -16 -17 -10 -4 -13 -2 -8 7 5 8 2 7 -9 -2 -9 -7 -17 -10 -17 -5 0 4 -5
3 -12 -4 -16 -16 -31 -15 -22 1 4 6 -2 3 -14 -7 -17 -14 -22 -16 -22 -5 0 9
-3 10 -8 4 -8 -12 -126 -14 -137 -3 -4 4 -17 3 -28 -3 -14 -8 -18 -8 -13 0 4
6 0 11 -11 11 -11 0 -25 6 -32 13 -11 9 -12 9 -7 0 5 -9 2 -11 -8 -7 -9 3 -13
11 -9 17 3 6 1 7 -6 3 -15 -10 -92 25 -84 37 4 6 0 8 -10 4 -10 -3 -17 -2 -17
3 0 6 -7 10 -15 10 -8 0 -15 4 -15 8 0 5 -11 15 -25 22 -13 7 -22 17 -19 22 3
4 -2 8 -11 8 -9 0 -13 5 -10 10 3 6 -1 10 -10 10 -9 0 -14 4 -10 9 3 5 -5 17
-17 25 -12 9 -18 16 -13 16 6 0 2 5 -7 11 -10 5 -18 17 -18 26 0 9 -11 31 -25
48 -13 18 -21 35 -18 39 3 3 0 12 -6 20 -7 8 -10 20 -7 25 4 5 1 13 -5 16 -5
4 -8 13 -5 21 3 8 2 14 -2 14 -12 0 -10 94 2 102 8 5 8 8 0 8 -6 0 -10 14 -10
30 0 17 3 30 6 30 4 0 6 10 5 23 -1 12 5 33 13 46 8 13 10 21 4 17 -6 -3 -5 4
1 19 7 14 15 25 19 25 4 0 5 7 2 15 -4 8 -1 15 6 15 6 0 8 5 5 10 -3 6 -1 10
5 10 6 0 9 4 5 9 -3 6 3 14 12 20 10 6 14 11 10 11 -5 0 5 17 22 38 55 68 78
92 90 92 6 0 11 8 11 17 0 9 3 14 6 10 4 -3 21 5 39 18 17 14 35 22 38 18 4
-3 7 -2 7 4 0 9 25 17 68 24 4 0 12 4 17 8 6 4 23 8 40 9 16 1 33 6 39 12 6 6
14 6 21 0 7 -5 15 -7 18 -3z"/>
<path d="M2600 11728 c0 -4 -6 -5 -14 -2 -8 3 -17 0 -21 -6 -5 -8 -10 -8 -20
0 -9 8 -15 8 -20 0 -3 -6 -11 -8 -16 -5 -5 4 -9 1 -9 -5 0 -6 -8 -10 -17 -8
-10 1 -24 -1 -32 -6 -9 -6 -12 -5 -8 1 3 5 0 10 -8 10 -8 0 -12 -4 -9 -9 3 -4
-6 -8 -20 -8 -13 0 -26 -4 -28 -9 -1 -6 -16 -11 -31 -13 -15 -2 -36 -12 -47
-21 -14 -11 -20 -13 -20 -4 0 6 -10 1 -21 -13 -11 -14 -18 -19 -14 -12 6 11 3
11 -16 0 -13 -7 -29 -19 -37 -26 -7 -7 -18 -10 -23 -6 -5 3 -8 0 -7 -8 2 -8
-4 -12 -16 -10 -10 2 -15 -1 -12 -6 3 -5 -13 -19 -34 -31 -22 -12 -40 -26 -40
-32 0 -5 -5 -9 -10 -9 -6 0 -28 -18 -49 -40 -21 -22 -36 -40 -33 -40 3 0 -7
-11 -22 -25 -14 -13 -26 -29 -26 -35 0 -6 -4 -9 -9 -6 -5 3 -14 -8 -20 -25 -7
-19 -15 -28 -22 -23 -8 4 -9 3 -5 -4 4 -7 2 -12 -4 -12 -6 0 -8 -5 -5 -10 3
-6 -1 -13 -9 -16 -9 -3 -16 -12 -16 -20 0 -8 -11 -32 -25 -55 -14 -22 -23 -44
-20 -49 3 -4 -1 -15 -9 -23 -8 -8 -12 -17 -9 -21 4 -3 1 -6 -5 -6 -7 0 -12
-11 -12 -25 0 -14 -4 -25 -9 -25 -6 0 -8 -9 -6 -20 2 -11 0 -20 -5 -20 -4 0
-7 -8 -6 -17 2 -10 0 -20 -4 -23 -5 -3 -9 -21 -11 -40 -2 -19 -5 -39 -8 -45
-10 -20 -12 -247 -2 -276 6 -18 6 -27 1 -24 -6 4 -10 1 -10 -4 0 -6 4 -11 10
-11 12 0 9 -22 -5 -32 -6 -5 -5 -8 3 -8 7 0 12 -13 12 -29 0 -17 5 -33 11 -37
8 -4 7 -9 -2 -15 -10 -6 -11 -9 -1 -9 6 0 12 -12 12 -26 0 -14 3 -23 8 -21 4
3 8 -9 9 -26 4 -48 6 -56 12 -52 4 2 11 -8 18 -21 7 -16 8 -22 1 -17 -14 8 -1
-14 26 -47 20 -23 20 -24 1 -10 -18 13 -18 12 2 -10 11 -14 23 -34 25 -45 2
-11 11 -19 19 -17 8 2 11 0 7 -4 -4 -3 2 -18 12 -32 11 -13 20 -31 20 -39 0
-8 5 -11 10 -8 6 3 10 0 10 -7 0 -7 15 -25 33 -41 17 -16 25 -26 17 -21 -8 4
5 -12 30 -37 25 -25 48 -43 51 -42 4 2 9 -4 13 -12 3 -8 13 -15 21 -15 9 0 13
-4 10 -10 -3 -5 1 -10 10 -10 10 0 13 -5 9 -12 -4 -6 -3 -8 3 -5 6 4 16 0 23
-8 7 -8 19 -15 26 -15 8 0 14 -4 14 -10 0 -5 5 -10 10 -10 6 0 28 -11 51 -25
22 -14 44 -23 49 -20 6 4 10 1 10 -4 0 -6 7 -11 16 -11 9 0 12 -5 8 -11 -4 -7
-1 -10 7 -7 8 3 29 -1 47 -8 17 -7 32 -10 32 -7 0 3 8 -1 18 -9 9 -8 24 -16
32 -16 63 -3 79 -6 75 -11 -2 -4 13 -7 33 -8 81 -3 102 -7 102 -17 0 -6 4 -5
9 3 8 12 12 12 24 2 10 -8 17 -9 22 -1 4 7 12 7 25 0 13 -7 21 -7 25 0 5 8 12
7 23 -2 13 -11 14 -11 7 1 -6 11 -3 13 13 9 13 -4 22 -1 23 5 0 7 4 3 9 -8 6
-14 9 -15 9 -4 1 14 14 17 74 20 9 0 17 6 17 12 0 7 4 6 10 -3 6 -9 10 -10 10
-3 0 6 9 10 19 8 11 -2 22 3 25 12 5 12 9 13 21 3 11 -9 15 -9 15 -1 0 7 4 9
10 6 5 -3 21 2 35 11 14 9 25 13 25 8 0 -4 5 -3 11 3 6 6 18 9 27 6 9 -4 13
-2 9 4 -4 6 0 13 8 17 10 3 81 -61 215 -194 111 -110 205 -200 211 -200 6 0 7
-4 4 -10 -3 -5 2 -10 11 -10 10 0 15 -3 11 -6 -7 -8 17 -34 32 -34 5 0 13 -9
16 -20 3 -11 12 -20 20 -20 12 0 30 -27 27 -43 -1 -4 1 -6 5 -6 20 3 34 -2 28
-11 -3 -5 6 -15 19 -22 14 -7 26 -17 28 -23 2 -5 6 -9 11 -7 4 1 7 -5 7 -13 0
-8 7 -15 16 -15 8 0 12 -4 9 -10 -3 -5 1 -10 9 -10 8 0 18 -5 22 -12 5 -7 3
-8 -7 -3 -12 8 -12 6 0 -8 7 -9 20 -17 28 -17 8 0 11 -4 8 -10 -3 -5 1 -10 10
-10 8 0 20 -10 25 -22 5 -13 9 -20 9 -17 1 4 18 -9 39 -30 21 -20 36 -39 34
-43 -2 -5 2 -8 7 -8 13 0 191 -178 191 -191 0 -5 7 -9 16 -9 8 0 12 -4 9 -10
-3 -5 1 -10 10 -10 9 0 14 -3 12 -7 -5 -10 30 -43 37 -35 3 3 6 0 6 -6 0 -6
14 -26 31 -44 18 -18 28 -27 24 -19 -5 9 -4 12 3 7 7 -4 12 -11 12 -16 0 -13
48 -59 54 -52 3 3 6 -3 6 -13 0 -10 2 -16 6 -13 6 7 61 -44 57 -54 -2 -4 6 -9
17 -13 11 -3 20 -12 20 -20 0 -8 8 -16 18 -20 9 -3 33 -26 52 -50 19 -24 40
-44 47 -44 6 -1 15 -10 18 -21 4 -11 11 -18 16 -15 5 4 9 -1 9 -10 0 -9 4 -13
10 -10 5 3 10 -1 10 -9 0 -9 3 -16 8 -16 11 0 112 -100 112 -111 0 -5 6 -9 14
-9 8 0 18 -9 21 -20 3 -11 10 -20 16 -20 10 0 109 -101 109 -112 0 -5 6 -8 14
-8 13 0 31 -27 28 -42 -1 -4 6 -4 15 -1 10 4 14 2 10 -4 -4 -5 4 -15 17 -21
14 -6 27 -20 31 -32 3 -11 11 -18 16 -15 5 4 9 -1 9 -9 0 -9 7 -16 17 -16 9 0
14 -3 11 -6 -8 -7 40 -54 54 -54 6 0 9 -3 5 -6 -7 -8 17 -34 32 -34 5 0 13 -9
16 -20 4 -11 11 -18 16 -15 5 4 9 0 9 -7 0 -7 13 -22 29 -33 16 -10 29 -22 28
-25 -3 -9 51 -58 57 -52 3 3 6 -2 6 -11 0 -10 7 -17 16 -17 8 0 12 -4 9 -10
-3 -6 1 -10 9 -10 8 0 18 -5 22 -12 5 -7 3 -8 -7 -3 -12 8 -12 6 0 -8 7 -9 17
-15 21 -12 4 2 13 -7 20 -20 7 -14 20 -25 27 -25 8 0 11 -4 8 -10 -3 -5 1 -10
10 -10 9 0 15 -3 13 -7 -2 -5 11 -22 29 -40 18 -17 33 -29 33 -26 0 3 11 -6
25 -21 14 -15 25 -32 25 -38 0 -6 3 -9 6 -6 6 7 74 -61 74 -74 0 -5 5 -6 10
-3 6 3 10 1 10 -6 0 -12 46 -59 98 -100 13 -10 24 -21 25 -26 1 -4 5 -7 10 -6
4 2 7 -4 7 -12 0 -8 5 -15 11 -15 5 0 7 -5 4 -10 -4 -6 -3 -10 2 -9 13 3 43
-12 43 -23 0 -14 27 -38 34 -31 3 4 6 1 6 -5 0 -6 23 -35 50 -63 28 -28 50
-48 50 -43 0 4 6 -1 14 -11 8 -11 12 -24 9 -30 -4 -5 -3 -7 1 -3 4 3 85 -71
180 -165 208 -208 214 -212 249 -212 15 1 27 -4 27 -9 0 -6 5 -5 12 2 7 7 17
8 30 1 12 -6 18 -6 18 0 0 7 8 7 23 2 12 -5 32 -5 45 0 15 6 22 5 22 -3 0 -9
3 -9 12 0 7 7 17 8 30 1 12 -7 18 -6 18 1 0 7 6 8 17 1 14 -8 31 5 92 67 41
42 74 80 73 85 -1 4 2 7 8 7 5 0 38 28 72 63 35 34 66 61 71 59 4 -1 7 5 7 13
0 8 4 15 8 15 5 0 39 29 76 65 37 36 72 65 77 65 6 0 7 5 4 10 -6 10 9 15 30
10 6 -1 7 2 3 5 -8 9 52 71 64 67 4 -1 7 2 6 6 -2 5 54 65 125 135 70 69 127
124 127 121 0 -2 13 10 30 28 17 17 30 35 30 39 0 5 5 9 10 9 6 0 49 38 95 85
47 47 85 84 85 82 0 -2 24 19 53 47 29 28 52 54 49 59 -2 4 3 7 11 7 7 0 23
14 36 30 12 17 27 28 33 24 7 -4 8 -3 4 4 -3 6 3 16 14 22 11 6 18 15 15 21
-4 5 3 9 15 9 12 0 19 4 15 9 -3 6 3 15 14 20 11 6 22 20 26 31 3 11 9 19 13
19 17 -3 35 2 29 7 -8 8 25 44 35 38 4 -3 8 -1 8 5 0 6 14 24 30 41 17 17 30
27 30 23 0 -4 6 2 14 12 8 11 12 23 9 28 -2 4 -1 6 4 5 5 -2 21 10 36 26 15
16 27 26 27 22 0 -4 6 -1 14 6 8 7 12 16 10 19 -4 7 33 39 47 39 5 0 8 3 6 8
-3 4 1 13 9 20 8 7 14 11 14 8 0 -3 12 6 26 19 24 22 26 23 54 7 16 -9 26 -20
24 -24 -3 -4 2 -5 11 -1 10 3 20 0 25 -7 4 -6 19 -13 33 -13 14 -1 23 -6 20
-11 -3 -5 0 -7 8 -4 8 3 20 -2 28 -9 11 -12 15 -12 22 -1 7 10 9 10 9 1 0 -7
7 -13 15 -13 8 0 15 -5 15 -11 0 -8 4 -8 14 0 10 8 16 8 25 -3 6 -8 21 -12 31
-9 11 3 27 0 35 -7 22 -18 335 -20 354 -2 9 9 17 10 26 2 10 -8 15 -8 20 0 4
7 20 10 36 8 15 -3 26 -1 23 4 -3 4 4 8 15 8 12 0 21 4 21 8 0 4 9 9 20 10 44
4 50 6 50 14 0 5 4 7 9 3 5 -3 12 -1 16 4 3 6 13 7 22 4 11 -4 14 -3 9 5 -6
11 12 17 37 13 4 0 7 4 7 11 0 6 3 9 6 5 3 -3 15 3 27 13 11 11 24 17 29 14 4
-3 8 0 8 5 0 6 6 11 14 11 8 0 17 7 20 16 3 8 10 13 15 10 5 -3 12 1 15 10 4
9 9 14 12 11 3 -3 23 12 44 34 21 21 43 39 49 39 7 0 9 5 6 10 -3 6 -2 10 4
10 5 0 32 27 59 59 27 33 53 57 57 53 5 -4 5 -2 1 5 -3 6 -2 14 4 18 6 4 8 10
5 15 -3 4 2 11 11 14 8 3 13 10 10 15 -3 5 1 12 10 15 8 3 12 10 9 16 -3 5 -3
10 2 10 10 0 46 75 46 95 0 8 4 12 8 10 7 -5 22 36 24 65 0 8 7 14 15 12 11
-3 11 0 1 11 -9 12 -9 16 0 19 7 2 14 13 15 24 11 70 15 88 25 100 8 10 8 14
1 14 -6 0 -9 7 -6 15 4 8 11 12 18 8 6 -4 4 2 -4 12 -9 10 -11 20 -5 22 6 2 9
47 8 115 -3 125 -6 159 -18 178 -6 10 -4 12 10 6 15 -5 16 -4 6 8 -7 8 -9 21
-5 27 4 8 3 9 -4 5 -8 -5 -12 2 -12 18 0 14 -6 26 -12 26 -10 0 -9 3 1 9 9 6
10 11 2 15 -6 4 -11 17 -11 29 0 13 -7 32 -15 43 -8 12 -11 24 -8 28 3 3 1 6
-6 6 -8 0 -11 7 -7 15 3 8 1 15 -5 15 -6 0 -7 5 -4 10 3 6 2 10 -3 10 -6 0
-13 11 -16 25 -4 14 -11 23 -16 20 -6 -3 -7 1 -4 9 3 9 1 16 -6 16 -6 0 -9 4
-6 8 3 5 -3 18 -12 28 -10 10 -28 36 -41 57 -13 22 -34 50 -47 62 -13 13 -24
29 -24 35 0 6 -4 9 -9 5 -5 -3 -12 4 -16 15 -3 11 -12 20 -20 20 -8 0 -17 9
-20 20 -3 11 -12 20 -20 20 -7 0 -15 7 -19 15 -3 8 -11 14 -18 13 -7 -2 -12 3
-10 11 2 9 -3 11 -15 7 -9 -4 -14 -4 -10 0 3 4 -3 15 -15 25 -25 22 -32 24
-23 7 4 -7 -2 -3 -13 9 -11 12 -22 19 -26 16 -3 -4 -6 -1 -6 5 0 7 -7 12 -15
12 -8 0 -15 5 -15 10 0 6 -9 10 -20 10 -11 0 -20 5 -20 11 0 5 -4 8 -9 4 -5
-3 -12 -1 -16 5 -4 6 -11 8 -16 5 -5 -4 -9 -1 -9 4 0 6 -9 11 -20 11 -11 0
-20 4 -20 8 0 5 -7 9 -15 10 -8 1 -22 3 -30 4 -8 1 -15 6 -15 11 0 6 -3 8 -6
4 -3 -3 -28 1 -56 10 -28 8 -59 12 -69 10 -11 -3 -22 0 -26 5 -4 7 -1 8 7 3 9
-5 11 -4 6 4 -6 8 -12 9 -20 2 -7 -6 -16 -8 -19 -5 -9 10 -189 12 -208 3 -8
-4 -21 -4 -29 1 -15 9 -42 2 -35 -9 2 -4 -9 -5 -25 -3 -16 2 -43 0 -59 -6 -22
-8 -31 -7 -35 1 -3 9 -5 9 -5 0 -1 -7 -10 -13 -21 -13 -11 0 -20 -4 -20 -10 0
-5 -5 -10 -11 -10 -5 0 -7 6 -4 13 4 6 1 5 -7 -4 -7 -9 -19 -14 -25 -12 -7 3
-13 -1 -13 -8 0 -7 -3 -9 -7 -6 -3 4 -16 1 -27 -6 -12 -8 -29 -13 -39 -11 -9
1 -15 -1 -12 -6 6 -9 -24 -24 -42 -21 -6 1 -17 -6 -25 -16 -7 -10 -20 -19 -28
-21 -8 -2 -22 -10 -31 -18 -8 -8 -21 -14 -28 -14 -7 0 -9 -5 -5 -12 5 -8 2 -9
-12 -4 -10 4 -15 4 -12 0 7 -6 -40 -50 -52 -49 -3 1 -21 -15 -40 -34 -19 -19
-28 -31 -20 -27 8 5 -2 -8 -23 -28 -21 -20 -35 -36 -32 -36 3 0 0 -6 -7 -14
-7 -8 -17 -11 -22 -8 -5 3 -6 0 -2 -6 3 -6 -2 -18 -11 -28 -10 -10 -18 -21
-18 -26 0 -5 -5 -12 -11 -16 -6 -4 -17 -22 -25 -39 -8 -18 -18 -33 -22 -33 -5
0 -5 -5 -2 -10 3 -6 -1 -13 -10 -16 -9 -4 -14 -13 -11 -20 3 -7 1 -16 -5 -19
-5 -4 -7 -11 -4 -16 4 -5 0 -12 -9 -15 -8 -3 -12 -12 -10 -19 3 -7 1 -16 -5
-20 -6 -3 -11 -15 -11 -26 0 -10 -4 -19 -9 -19 -5 0 -8 -8 -6 -17 1 -10 -5
-27 -14 -37 -15 -18 -15 -19 3 -12 16 6 17 4 5 -10 -14 -17 -17 -29 -21 -79
-1 -16 -7 -33 -13 -37 -6 -5 -5 -8 4 -8 11 0 11 -3 0 -17 -12 -15 -12 -16 1
-8 13 7 13 6 2 -7 -13 -16 -13 -53 1 -75 4 -6 3 -14 -3 -18 -10 -6 -9 -40 3
-51 4 -4 2 -13 -4 -21 -6 -7 -7 -13 -2 -13 5 0 10 -7 10 -15 0 -8 -5 -15 -11
-15 -7 0 -7 -3 -1 -8 6 -4 11 -12 12 -18 2 -11 13 -108 15 -131 1 -7 5 -13 10
-13 5 0 6 -4 3 -10 -3 -5 -1 -10 5 -10 7 0 10 -7 6 -15 -3 -8 0 -20 7 -27 7
-7 12 -23 11 -35 -1 -13 3 -23 8 -23 5 0 6 -4 3 -10 -3 -5 -2 -10 3 -10 5 0
14 -12 21 -27 11 -25 11 -25 -5 -12 -15 12 -15 10 1 -13 11 -15 23 -28 28 -28
23 -1 3 -24 -108 -125 -16 -15 -29 -32 -27 -37 1 -5 -2 -7 -8 -3 -5 3 -10 1
-10 -4 0 -6 -7 -11 -15 -11 -8 0 -15 -8 -15 -17 0 -9 -3 -13 -7 -10 -3 4 -14
-4 -23 -19 -10 -14 -20 -25 -24 -25 -3 1 -6 -2 -7 -6 0 -5 -11 -14 -25 -21
-13 -7 -22 -17 -19 -22 4 -6 1 -10 -4 -10 -12 0 -71 -59 -71 -71 0 -5 -7 -6
-15 -3 -8 4 -15 1 -15 -5 0 -16 -32 -51 -42 -45 -4 3 -8 1 -8 -3 0 -13 -58
-73 -70 -73 -6 0 -8 -5 -5 -11 4 -6 -2 -13 -14 -16 -12 -3 -21 -12 -21 -19 0
-8 -7 -14 -15 -14 -8 0 -14 -6 -12 -12 1 -7 -4 -12 -10 -11 -7 2 -13 -5 -13
-14 0 -9 -3 -14 -6 -11 -7 8 -44 -28 -44 -42 0 -5 -5 -10 -10 -10 -6 0 -34
-25 -62 -55 -28 -29 -56 -51 -61 -48 -6 3 -7 1 -4 -4 4 -6 0 -14 -9 -17 -9 -3
-12 -11 -8 -18 4 -7 4 -10 -1 -6 -4 4 -22 -7 -39 -25 -17 -17 -32 -31 -33 -29
-2 1 -3 0 -3 -3 1 -9 -52 -55 -62 -55 -5 0 -6 -4 -3 -10 3 -5 -1 -10 -9 -10
-8 0 -18 -9 -21 -21 -4 -11 -9 -18 -12 -16 -6 7 -73 -61 -73 -74 0 -5 -3 -8
-7 -7 -5 2 -56 -45 -115 -104 -58 -58 -109 -104 -112 -100 -3 3 -6 1 -6 -5 0
-15 -36 -54 -44 -46 -3 3 -6 1 -6 -6 0 -14 -30 -47 -30 -34 -1 4 -7 -3 -15
-17 -8 -14 -14 -22 -15 -17 0 4 -10 -3 -22 -15 -13 -13 -22 -27 -20 -32 2 -5
-4 -6 -12 -3 -9 4 -15 3 -13 -1 1 -4 -2 -8 -7 -9 -5 -1 -13 -7 -17 -15 -7 -10
-19 -3 -49 29 -22 23 -43 43 -47 45 -5 1 -23 20 -40 41 -18 20 -36 37 -40 36
-4 0 -10 8 -14 18 -4 10 -8 14 -8 9 -1 -12 -51 42 -51 55 0 5 -4 9 -8 9 -5 0
-17 7 -28 16 -10 8 -12 12 -4 8 8 -4 2 6 -15 23 -16 16 -32 29 -35 28 -3 -2
-11 3 -18 11 -7 8 -10 14 -6 14 4 0 -6 11 -22 25 -16 14 -33 25 -38 25 -5 0
-7 3 -3 6 7 7 -61 74 -76 74 -5 0 -7 3 -4 7 4 3 -6 17 -21 31 -15 14 -26 30
-24 35 1 5 -1 6 -6 3 -5 -3 -22 10 -38 29 -16 19 -35 35 -42 35 -7 0 -10 5 -7
10 3 6 -1 10 -9 10 -9 0 -16 4 -16 9 0 14 -67 80 -74 74 -3 -4 -6 2 -6 12 0
10 -3 15 -7 12 -3 -4 -11 3 -18 16 -6 12 -17 21 -23 20 -11 -3 -16 10 -13 30
1 5 -3 6 -8 3 -5 -4 -18 5 -29 19 -11 14 -25 25 -31 25 -6 0 -11 6 -11 14 0 8
-9 18 -20 21 -11 4 -18 10 -15 14 2 4 -7 14 -20 21 -14 7 -25 17 -25 21 0 8
-77 85 -115 115 -11 8 -13 12 -5 9 8 -4 2 4 -14 19 -16 14 -33 26 -38 26 -5 0
-6 5 -3 10 3 6 -1 10 -9 10 -8 0 -18 9 -21 20 -3 11 -13 20 -21 20 -8 0 -14 6
-14 14 0 8 -9 18 -21 21 -11 4 -19 9 -16 11 5 6 -62 74 -73 74 -4 0 -10 9 -13
20 -3 11 -13 20 -22 20 -9 0 -13 5 -10 10 3 6 -2 10 -11 10 -10 0 -15 3 -12 6
7 6 -141 154 -154 154 -4 0 -8 5 -8 11 0 12 -60 69 -73 69 -5 0 -6 3 -4 8 2 4
-6 17 -19 30 -13 12 -24 19 -24 15 0 -4 -11 8 -25 27 -14 19 -25 31 -25 27 0
-3 -11 4 -25 17 -14 13 -25 29 -25 35 0 7 -4 9 -10 6 -6 -3 -10 2 -10 11 0 10
-3 15 -6 11 -8 -8 -34 18 -34 33 0 6 -4 9 -9 5 -5 -3 -12 4 -16 15 -3 11 -13
20 -21 20 -8 0 -14 6 -14 14 0 8 -9 18 -20 21 -11 3 -20 13 -20 21 0 8 -4 14
-9 14 -10 0 -61 47 -56 52 2 2 -9 12 -26 23 -16 11 -29 26 -29 33 0 7 -4 10
-10 7 -5 -3 -10 2 -10 11 0 10 -3 15 -6 11 -7 -7 -54 38 -54 52 0 5 -9 13 -20
16 -11 4 -18 11 -15 16 4 5 -1 9 -10 9 -9 0 -13 5 -10 10 3 6 1 10 -5 10 -15
0 -40 25 -40 40 0 6 -3 9 -7 7 -10 -4 -53 40 -45 47 3 3 -1 6 -9 6 -8 0 -23
11 -33 25 -10 13 -22 22 -27 19 -5 -3 -6 1 -4 8 3 8 -8 21 -25 31 -17 10 -28
23 -25 28 4 5 -1 9 -9 9 -9 0 -16 7 -16 17 0 9 -2 14 -5 11 -7 -7 -70 54 -67
65 1 4 -4 6 -10 5 -7 -2 -12 3 -10 10 1 6 -2 12 -8 12 -5 0 -93 83 -195 185
-102 102 -190 185 -195 185 -6 0 -9 4 -8 9 3 9 -52 61 -65 61 -4 0 -6 4 -5 8
3 9 -62 72 -74 72 -5 0 -8 5 -8 11 0 7 -7 17 -15 23 -22 16 -27 53 -8 60 9 4
13 9 10 12 -3 4 4 15 16 26 12 11 16 17 10 13 -7 -3 -13 -3 -13 0 0 4 6 13 13
20 30 34 35 43 30 49 -4 3 -1 6 5 6 6 0 9 7 6 15 -4 8 -1 15 4 15 6 0 9 9 7
20 -2 11 -1 18 4 16 4 -3 13 4 20 16 7 11 8 17 2 13 -6 -3 -11 -1 -11 4 0 6 5
11 12 11 6 0 8 3 5 7 -4 3 -2 12 5 20 6 7 8 16 5 20 -4 3 1 12 11 19 15 12 15
15 2 24 -8 5 -10 10 -5 10 6 0 12 14 13 32 2 17 8 38 15 47 10 12 9 13 -3 6
-13 -8 -13 -7 -1 8 11 14 11 17 0 17 -9 0 -10 3 -3 8 14 10 14 262 0 262 -6 0
-4 5 4 10 12 8 12 10 1 10 -11 0 -11 3 0 17 10 11 10 14 2 9 -9 -5 -13 0 -13
16 0 13 -4 30 -10 38 -6 9 -5 20 3 29 9 12 9 13 0 7 -13 -7 -16 0 -16 36 0 10
-3 15 -7 13 -4 -3 -11 2 -14 11 -3 8 -2 12 4 9 6 -3 7 1 4 9 -3 9 -10 16 -16
16 -5 0 -6 5 -3 10 3 6 1 10 -5 10 -6 0 -9 4 -5 9 3 5 -7 31 -23 58 -15 26
-36 65 -46 86 -9 20 -22 35 -27 31 -6 -3 -9 0 -8 7 3 13 -14 36 -73 99 -14 16
-24 31 -21 33 2 3 -5 8 -16 12 -12 3 -19 10 -16 14 2 5 -7 13 -21 20 -15 6
-22 16 -18 23 4 6 3 8 -4 4 -6 -3 -15 2 -21 11 -6 10 -11 14 -11 10 0 -4 -11
3 -24 17 -13 15 -31 26 -40 26 -10 0 -15 4 -12 9 5 8 -29 25 -47 22 -4 -1 -6
5 -5 11 2 7 -7 14 -20 16 -13 2 -20 8 -16 14 4 6 2 8 -4 5 -15 -10 -43 3 -35
17 3 6 3 8 -2 4 -4 -4 -14 -3 -22 3 -7 6 -13 9 -13 5 0 -4 -13 0 -30 9 -16 9
-30 13 -30 10 0 -4 -7 1 -16 10 -14 13 -19 14 -25 3 -7 -10 -9 -10 -9 3 0 17
-30 22 -30 5 0 -6 -4 -5 -9 2 -4 7 -18 14 -29 15 -12 1 -22 4 -22 7 0 4 -7 7
-15 7 -8 0 -15 -5 -15 -11 0 -6 -4 -5 -9 2 -6 10 -45 14 -155 15 -80 1 -146
-1 -146 -5z m90 -502 c0 8 11 9 35 4 20 -5 33 -4 29 1 -3 5 0 9 5 9 6 0 11 -4
11 -10 0 -5 5 -10 11 -10 5 0 7 6 3 13 -6 8 -3 8 9 -1 9 -8 21 -11 27 -7 5 3
10 3 10 -2 0 -4 12 -9 26 -10 15 0 30 -7 35 -15 7 -10 9 -10 9 2 0 13 1 13 10
0 5 -8 10 -10 10 -5 0 6 5 2 11 -8 6 -9 15 -15 20 -11 5 3 16 0 24 -6 8 -7 15
-10 15 -6 0 3 8 -1 18 -9 9 -8 20 -15 25 -15 12 0 44 -34 40 -42 -2 -5 5 -8
16 -8 12 0 21 -5 21 -12 0 -6 15 -25 33 -42 19 -17 33 -39 31 -49 -1 -9 2 -15
7 -11 5 3 9 0 9 -6 0 -6 7 -18 15 -27 8 -8 13 -19 10 -24 -4 -5 -1 -9 6 -9 7
0 9 -3 6 -7 -4 -3 -1 -16 7 -27 7 -12 16 -43 19 -69 3 -26 9 -52 13 -59 4 -7
3 -8 -4 -4 -7 4 -12 2 -12 -3 0 -6 5 -11 11 -11 8 0 8 -4 0 -14 -9 -11 -9 -16
0 -22 8 -5 9 -3 4 6 -5 9 -4 11 4 6 9 -6 9 -11 0 -22 -6 -8 -8 -14 -4 -14 4 0
3 -6 -3 -13 -7 -8 -7 -18 -2 -27 5 -9 5 -19 -1 -26 -5 -7 -11 -25 -12 -42 -1
-16 -6 -28 -11 -24 -5 3 -7 -2 -3 -11 3 -10 2 -17 -4 -17 -6 0 -7 -4 -4 -10 3
-5 1 -10 -4 -10 -6 0 -11 -6 -11 -13 0 -18 -24 -67 -32 -67 -5 0 -8 -7 -8 -15
0 -8 -4 -15 -10 -15 -5 0 -10 -5 -10 -10 0 -6 -22 -33 -50 -61 -27 -28 -50
-47 -50 -43 0 4 -11 -3 -25 -16 -14 -13 -25 -19 -25 -14 0 5 -5 1 -11 -8 -5
-10 -16 -18 -24 -18 -8 0 -31 -9 -50 -20 -20 -11 -34 -16 -30 -10 3 6 0 7 -9
4 -9 -3 -16 -10 -16 -15 0 -5 -3 -8 -7 -8 -5 1 -10 1 -13 0 -3 -1 -20 -4 -37
-5 -22 -3 -31 0 -26 8 4 7 1 6 -9 -1 -18 -16 -98 -14 -98 1 0 6 -4 5 -9 -3 -8
-12 -12 -12 -25 -2 -13 11 -16 11 -16 0 0 -9 -5 -7 -11 5 -9 15 -13 16 -20 5
-6 -10 -9 -11 -9 -1 0 6 -7 12 -17 12 -19 0 -122 49 -141 67 -8 7 -18 10 -24
7 -6 -4 -9 -3 -6 2 3 5 -4 18 -15 29 -11 11 -16 13 -12 5 4 -8 -2 -5 -14 7
-12 13 -21 26 -20 29 0 4 -6 11 -15 16 -9 5 -14 13 -11 19 4 5 -2 9 -11 9 -10
0 -14 3 -11 6 4 4 -3 15 -15 25 -14 13 -16 19 -7 19 9 0 10 3 3 8 -6 4 -17 22
-25 40 -8 17 -16 32 -19 32 -3 0 -6 11 -6 25 -1 14 -5 33 -9 43 -12 28 -13 52
-1 52 6 0 4 5 -4 10 -8 5 -11 10 -6 10 5 0 2 8 -5 17 -12 15 -12 16 1 8 13 -8
13 -7 1 8 -9 11 -10 17 -2 17 6 0 11 5 11 11 0 5 -4 8 -8 5 -5 -3 -6 8 -4 25
2 16 9 32 14 35 5 3 4 12 -3 20 -9 11 -9 14 0 14 9 0 9 5 0 21 -8 15 -8 19 0
15 6 -4 11 -4 12 1 2 27 11 50 43 115 19 40 35 69 36 65 0 -4 6 -2 14 5 8 7
12 16 10 19 -2 4 12 19 31 34 19 16 32 33 28 38 -3 6 -2 7 4 4 5 -4 19 2 30
13 12 10 24 16 27 13 3 -4 6 -1 6 6 0 7 5 9 10 6 6 -3 10 -1 10 6 0 7 3 9 7 6
3 -4 12 1 20 11 9 10 12 11 7 2 -5 -10 0 -9 14 4 12 11 22 16 22 11 0 -4 6 -2
13 4 8 6 17 8 20 4 4 -3 7 0 7 7 0 7 3 10 7 7 3 -4 12 -2 20 4 9 9 13 8 13 0
0 -9 5 -9 20 -1 11 6 25 8 30 5 6 -3 10 0 10 7 0 9 3 9 10 -2 5 -8 10 -10 10
-4z m6409 -1710 c5 -4 13 -2 16 4 5 8 11 7 21 -1 11 -9 14 -9 14 1 0 9 4 9 13
2 8 -7 18 -7 27 -2 9 5 19 5 27 -1 7 -6 16 -8 22 -5 5 4 15 0 23 -7 7 -7 21
-13 31 -13 38 -3 44 -5 63 -21 11 -10 26 -19 34 -21 8 -2 17 -8 18 -13 2 -5
10 -9 18 -9 8 0 14 -4 14 -10 0 -5 7 -10 15 -10 8 0 15 -7 15 -17 0 -9 3 -14
6 -10 8 8 33 -16 27 -25 -2 -5 3 -8 11 -8 8 0 17 -8 20 -17 3 -10 16 -29 28
-43 13 -14 24 -32 26 -40 2 -8 7 -17 10 -20 8 -6 34 -70 35 -87 0 -7 5 -13 11
-13 6 0 4 -5 -4 -10 -11 -7 -11 -10 -2 -10 7 0 10 -4 7 -10 -3 -5 -1 -10 4
-10 6 0 11 -5 11 -11 0 -5 -4 -8 -9 -5 -5 3 -3 -11 4 -32 8 -20 10 -38 7 -39
-4 -2 -6 -21 -6 -43 1 -22 -3 -40 -8 -40 -7 0 -6 -5 1 -14 9 -10 8 -15 -2 -19
-8 -3 -12 -18 -11 -36 1 -17 -2 -31 -8 -31 -5 0 -7 -4 -3 -9 3 -5 1 -12 -5
-16 -6 -4 -8 -11 -5 -16 4 -5 1 -9 -5 -9 -6 0 -8 -4 -5 -10 3 -5 1 -10 -5 -10
-7 0 -10 -7 -6 -15 3 -9 0 -15 -9 -15 -9 0 -12 -6 -8 -17 4 -11 3 -14 -5 -9
-7 4 -12 1 -12 -7 0 -8 -7 -18 -16 -21 -9 -4 -14 -9 -11 -12 7 -7 -61 -74 -75
-74 -5 0 -6 -4 -3 -10 3 -5 -1 -10 -9 -10 -9 0 -16 -5 -16 -11 0 -6 -7 -9 -15
-5 -8 3 -14 0 -12 -7 1 -7 -4 -11 -10 -10 -7 2 -13 -2 -13 -7 0 -6 -6 -10 -14
-10 -8 0 -21 -6 -28 -12 -7 -7 -22 -15 -33 -16 -11 -2 -22 -8 -23 -13 -2 -6
-10 -5 -18 2 -8 7 -14 7 -14 1 0 -14 -47 -21 -61 -8 -9 8 -10 8 -5 -2 6 -10
-7 -12 -58 -10 -39 2 -66 -1 -66 -7 0 -6 -3 -6 -8 1 -9 13 -54 26 -46 13 3 -5
1 -9 -5 -9 -5 0 -11 5 -13 11 -2 5 -11 11 -20 12 -9 2 -24 9 -34 17 -11 9 -15
10 -10 3 10 -18 -9 -16 -24 2 -7 8 -21 15 -31 15 -11 0 -19 4 -19 9 0 5 -13
14 -28 20 -15 7 -40 23 -54 36 -14 13 -29 21 -33 17 -4 -4 -5 -2 -3 3 4 12
-37 55 -53 55 -5 0 -8 4 -4 9 3 5 -1 15 -8 23 -7 7 -14 16 -15 21 -1 4 -9 18
-18 32 -9 13 -12 30 -8 36 4 8 3 9 -4 5 -11 -6 -18 20 -13 48 1 5 -6 5 -16 2
-14 -6 -15 -5 -6 5 8 8 9 18 2 31 -5 10 -7 23 -4 28 3 6 1 10 -5 10 -7 0 -8 5
-1 17 6 11 6 24 -1 37 -7 13 -6 21 3 27 12 7 12 9 0 9 -11 0 -11 3 0 17 10 11
10 14 2 9 -16 -9 -17 6 -1 22 9 9 9 12 -1 12 -11 0 -11 3 0 17 12 14 12 16 0
8 -11 -6 -12 -5 -5 6 4 8 10 23 11 33 2 11 8 25 14 32 6 7 8 17 5 23 -3 5 -2
11 4 13 6 2 12 13 14 25 6 27 35 73 48 73 5 0 6 5 3 11 -4 5 5 21 20 35 14 13
23 24 20 24 -3 0 10 14 29 31 20 17 40 28 46 24 6 -3 7 0 4 9 -4 11 0 16 10
16 9 0 16 5 16 11 0 5 5 7 10 4 6 -3 13 0 16 9 3 8 12 12 20 9 8 -3 14 0 14 7
0 6 5 8 10 5 6 -3 10 -1 10 5 0 7 7 10 15 6 8 -3 15 -1 15 5 0 6 6 9 12 7 7
-3 23 1 36 8 14 7 30 10 37 8 7 -3 16 -1 19 4 6 10 48 8 65 -2z"/>
<path d="M6505 10446 c-11 -7 -23 -15 -26 -17 -3 -2 -13 2 -22 10 -10 7 -17 9
-17 4 0 -6 -16 -9 -34 -8 -19 1 -33 -2 -31 -6 3 -4 -2 -10 -11 -13 -8 -3 -13
-2 -10 2 3 5 -10 4 -29 -2 -18 -6 -31 -15 -27 -21 3 -5 -2 -4 -11 4 -13 10
-17 10 -17 1 0 -7 -7 -10 -15 -6 -8 3 -15 1 -15 -5 0 -6 -6 -9 -14 -6 -8 3
-17 -1 -20 -9 -3 -9 -10 -13 -15 -9 -5 3 -12 1 -16 -5 -4 -6 -11 -8 -16 -5 -5
4 -9 2 -9 -4 0 -8 -30 -22 -50 -24 -7 -1 -25 -16 -57 -47 -14 -14 -22 -19 -19
-12 4 6 5 12 3 12 -6 0 -60 -48 -112 -97 -19 -18 -39 -33 -45 -33 -5 0 -10 -6
-10 -13 0 -7 -8 -20 -17 -28 -28 -25 -88 -99 -85 -104 1 -3 -7 -14 -18 -25
-12 -12 -18 -25 -15 -30 4 -6 2 -10 -4 -10 -5 0 -15 -16 -22 -35 -7 -19 -17
-35 -21 -35 -4 0 -8 -5 -8 -12 0 -6 -8 -20 -17 -31 -10 -11 -12 -17 -5 -13 6
4 12 2 12 -3 0 -6 -5 -11 -11 -11 -5 0 -8 -4 -4 -9 3 -5 1 -12 -4 -15 -4 -3
-12 -20 -16 -38 -8 -36 -11 -45 -15 -53 -1 -3 -4 -9 -5 -15 -1 -5 -4 -11 -5
-12 -3 -3 -10 -60 -13 -105 -1 -17 -5 -29 -8 -27 -4 2 -9 -5 -12 -15 -3 -14
-1 -18 10 -14 13 5 13 3 2 -16 -11 -17 -11 -25 -2 -41 10 -15 10 -18 0 -14 -8
3 -13 -3 -13 -16 0 -11 5 -20 11 -20 5 0 3 -5 -5 -10 -13 -9 -13 -10 0 -10 13
0 13 -1 0 -10 -10 -6 -11 -10 -2 -10 6 0 12 -5 12 -11 0 -5 -5 -7 -11 -3 -8 4
-8 1 -1 -12 5 -11 8 -27 7 -36 -2 -10 0 -18 3 -18 12 0 10 -50 -2 -51 -6 0 -2
-4 9 -9 11 -5 14 -9 7 -9 -9 -1 -10 -6 -3 -20 6 -10 7 -21 4 -25 -3 -3 -1 -6
6 -6 7 0 11 -6 8 -12 -2 -7 1 -27 8 -45 8 -17 11 -34 8 -37 -3 -3 -1 -12 5
-19 7 -8 9 -17 5 -20 -3 -4 -2 -7 4 -7 5 0 10 -6 10 -13 0 -18 73 -160 87
-169 6 -4 7 -8 2 -8 -6 0 -1 -7 10 -15 10 -8 16 -15 12 -15 -7 0 11 -25 40
-55 6 -8 12 -16 12 -19 0 -12 35 -46 47 -46 7 0 12 -4 11 -9 -3 -10 41 -53 78
-77 13 -9 21 -20 18 -25 -3 -5 4 -9 15 -9 12 0 21 -4 21 -10 0 -5 7 -10 15
-10 8 0 15 -6 15 -12 1 -13 134 -83 158 -83 7 0 16 -5 20 -12 4 -6 18 -13 32
-14 14 -2 27 -7 30 -11 3 -4 19 -9 35 -11 17 -2 29 -10 27 -16 -1 -6 1 -11 6
-11 9 0 8 -131 -1 -147 -4 -6 -4 -14 1 -17 10 -6 9 -127 -1 -143 -4 -7 -4 -14
1 -17 10 -6 9 -117 -1 -133 -5 -7 -4 -13 1 -13 5 0 8 -28 7 -62 -2 -89 0 -94
43 -93 20 0 40 -4 44 -10 5 -6 8 -6 8 1 0 7 31 10 95 8 73 -3 94 0 88 9 -5 9
-3 9 8 1 8 -6 32 -10 54 -9 22 1 48 -3 59 -8 11 -6 16 -5 12 1 -3 5 13 9 38 8
64 -1 71 10 70 101 0 45 4 81 10 85 8 5 7 8 -1 8 -8 0 -10 20 -8 63 1 34 0 67
-3 72 -10 17 -11 35 -1 29 5 -3 6 -10 3 -16 -4 -6 -2 -8 4 -4 7 4 8 17 2 36
-11 37 -11 40 2 64 7 13 7 16 -2 11 -14 -9 -10 27 5 37 6 5 5 8 -2 8 -13 0
-11 69 2 90 3 5 0 10 -7 10 -9 0 -9 3 2 10 8 5 10 10 3 10 -6 0 -9 9 -6 20 3
11 9 18 13 15 5 -3 10 0 12 6 2 6 19 12 37 14 18 1 36 7 40 14 5 7 15 9 26 5
13 -5 16 -4 11 4 -6 11 5 17 27 13 4 0 7 4 7 10 0 5 4 8 9 4 5 -3 16 1 24 9 8
8 17 12 21 9 3 -4 6 -1 6 5 0 7 3 11 8 10 10 -2 72 36 72 45 0 5 4 6 9 2 5 -3
17 5 25 17 9 12 16 19 16 15 0 -4 12 3 27 17 15 14 30 23 35 20 5 -3 8 -2 7 3
-3 20 2 34 10 28 6 -3 20 8 32 24 12 17 26 28 31 25 7 -4 12 11 6 19 -1 1 15
19 36 40 22 20 35 37 30 37 -5 0 -1 5 9 11 9 5 17 17 17 24 0 8 5 15 10 15 6
0 10 7 10 15 0 9 7 18 15 21 8 4 13 10 10 14 -3 5 2 15 10 24 9 8 16 19 17 23
2 16 23 58 33 65 5 4 6 8 1 8 -5 0 -2 8 5 17 12 14 12 16 0 8 -9 -5 -7 3 6 21
11 16 19 39 18 52 -1 12 3 22 8 22 6 0 7 3 4 7 -4 3 -1 13 6 21 10 13 9 14 -3
7 -12 -7 -13 -6 -3 7 7 8 10 18 6 21 -3 4 -2 7 4 7 6 0 10 15 8 35 -2 19 0 37
5 40 4 3 7 16 5 30 -1 14 2 25 6 25 5 0 9 5 9 11 0 5 -4 8 -9 4 -10 -6 -7 27
4 44 3 5 0 13 -6 17 -8 4 -7 9 2 15 12 8 11 11 -1 19 -13 9 -13 10 0 10 13 0
13 1 0 10 -13 9 -13 10 0 10 11 0 12 2 3 8 -8 5 -9 13 -3 22 6 10 3 21 -8 34
-11 12 -12 16 -3 11 10 -6 12 -4 5 6 -13 21 -14 39 -1 39 8 0 8 3 2 8 -12 9
-18 30 -16 60 0 13 -3 21 -8 18 -5 -3 -9 6 -10 19 -3 48 -4 55 -13 55 -4 0 -7
3 -7 8 1 4 0 9 -1 12 -3 10 -11 45 -12 58 -1 6 -6 12 -11 12 -5 0 -6 7 -3 16
3 8 2 12 -4 9 -6 -3 -10 1 -10 9 0 9 -4 16 -10 16 -5 0 -7 7 -4 15 4 8 2 15
-3 15 -6 0 -18 18 -28 40 -10 22 -22 40 -27 40 -5 0 -6 5 -3 10 3 6 3 10 -2
10 -4 0 -19 17 -33 37 -14 21 -41 53 -60 72 -19 19 -34 39 -32 45 2 6 0 8 -3
4 -4 -4 -20 5 -35 20 -38 36 -70 63 -70 57 0 -3 -14 8 -31 25 -17 16 -35 27
-40 25 -4 -3 -12 3 -18 12 -6 10 -11 14 -11 10 0 -5 -7 -1 -16 7 -8 9 -24 16
-35 16 -10 0 -19 4 -19 10 0 5 -11 12 -25 16 -14 3 -25 10 -25 16 0 5 -4 7 -8
4 -5 -3 -21 2 -37 10 -15 8 -40 16 -56 19 -15 3 -39 9 -53 15 -15 5 -26 7 -26
4 0 -4 -6 -1 -14 5 -10 9 -16 9 -21 1 -5 -8 -12 -5 -22 7 -8 10 -11 11 -7 3 7
-13 5 -13 -9 -1 -14 11 -17 11 -17 0 0 -11 -2 -11 -10 1 -8 12 -10 12 -10 1 0
-11 -3 -11 -17 0 -14 12 -16 12 -8 0 6 -10 4 -12 -6 -6 -17 11 -159 13 -159 3
0 -5 -5 -8 -11 -8 -5 0 -7 5 -4 10 8 14 3 13 -20 -4z m95 -500 c0 11 40 11 58
0 7 -4 12 -2 12 5 0 7 7 4 15 -7 15 -19 15 -19 8 1 -6 18 -5 18 10 6 10 -8 20
-11 24 -7 3 3 15 -1 25 -11 13 -12 18 -13 18 -3 0 10 4 10 18 -2 9 -8 32 -20
50 -28 17 -7 32 -17 32 -22 0 -5 4 -7 9 -4 5 3 11 -1 15 -9 3 -8 13 -15 23
-15 10 0 31 -16 47 -35 16 -19 34 -32 40 -28 6 3 8 3 4 -1 -3 -4 6 -21 20 -38
15 -17 26 -34 24 -39 -1 -5 2 -9 8 -9 6 0 10 -6 10 -14 0 -7 6 -19 14 -26 8
-6 12 -19 9 -27 -4 -11 -2 -14 5 -9 8 5 12 -1 12 -18 0 -14 5 -26 11 -26 6 0
9 -7 5 -15 -3 -8 -1 -15 3 -15 5 0 7 -9 4 -20 -3 -11 -1 -20 3 -20 5 0 9 -26
9 -57 0 -32 5 -61 10 -65 6 -5 6 -8 -2 -8 -6 0 -9 -8 -6 -19 3 -10 -1 -29 -7
-41 -7 -12 -7 -20 -2 -16 6 4 8 -2 5 -14 -3 -11 -10 -17 -17 -13 -6 4 -5 -1 3
-10 9 -11 10 -17 2 -17 -6 0 -10 -3 -9 -7 3 -15 -25 -93 -34 -93 -4 0 -8 -6
-8 -14 0 -7 -7 -19 -15 -26 -9 -7 -14 -15 -11 -17 9 -10 -136 -144 -149 -139
-8 3 -14 0 -12 -7 1 -7 -4 -11 -10 -10 -7 2 -13 -2 -13 -7 0 -5 -7 -10 -15
-10 -8 0 -15 -5 -15 -12 0 -6 -3 -9 -6 -5 -4 3 -19 0 -34 -8 -15 -8 -30 -12
-33 -9 -3 3 -17 -2 -31 -11 -18 -12 -26 -14 -26 -5 0 8 -4 9 -12 3 -16 -11
-48 -11 -67 1 -9 6 -12 5 -8 -1 4 -6 0 -13 -8 -17 -8 -3 -15 -1 -15 5 0 6 -7
6 -19 -1 -14 -7 -22 -7 -27 1 -3 6 -15 9 -25 6 -11 -3 -19 -2 -19 3 0 4 -11 6
-25 5 -14 -2 -25 1 -25 7 0 6 -7 8 -15 4 -8 -3 -15 -1 -15 5 0 6 -6 9 -14 6
-8 -3 -16 -1 -18 4 -2 5 -13 11 -25 12 -12 0 -20 4 -17 8 2 4 -7 10 -21 13
-14 4 -25 11 -25 17 0 6 -4 8 -9 5 -5 -3 -11 1 -15 9 -3 8 -12 15 -21 15 -8 0
-15 6 -15 13 0 8 -11 20 -25 27 -14 7 -23 15 -20 18 2 2 -1 10 -8 17 -35 36
-55 64 -50 69 4 3 1 6 -6 6 -7 0 -9 5 -6 10 3 6 1 10 -5 10 -6 0 -8 5 -4 12 4
6 1 16 -7 22 -8 6 -15 18 -16 26 -6 43 -17 76 -27 82 -7 5 -7 8 2 8 8 0 10 5
5 13 -4 6 -9 29 -10 50 -1 21 -4 45 -7 54 -5 11 -2 14 10 9 13 -5 14 -3 6 7
-6 7 -9 24 -7 37 10 63 18 96 26 106 5 6 6 14 2 17 -3 4 -1 7 6 7 7 0 10 4 7
9 -6 10 16 61 27 61 4 0 7 6 7 13 0 8 8 23 18 35 9 11 23 29 31 41 8 11 19 17
25 14 5 -4 7 1 3 10 -4 11 -1 17 7 17 7 0 22 11 34 25 12 14 27 25 33 25 5 0
7 4 4 10 -3 5 0 7 8 4 8 -3 17 2 21 11 3 9 10 13 16 10 5 -3 10 -1 10 5 0 6 5
8 10 5 6 -3 10 -1 10 5 0 6 4 9 9 5 5 -3 12 -1 16 5 4 6 11 8 16 5 5 -4 9 -1
9 4 0 6 3 10 8 10 22 -4 52 2 48 9 -3 5 11 7 30 6 22 -2 32 1 28 7 -4 7 3 6
16 -1 21 -11 22 -10 16 6 -6 18 -5 18 9 0 8 -11 15 -15 15 -10z"/>
<path d="M9790 6390 c0 -5 5 -10 11 -10 5 0 7 5 4 10 -3 6 -8 10 -11 10 -2 0
-4 -4 -4 -10z"/>
</g>
</svg>
