<?xml version="1.0" standalone="no"?>
<!DOCTYPE svg PUBLIC "-//W3C//DTD SVG 20010904//EN"
 "http://www.w3.org/TR/2001/REC-SVG-20010904/DTD/svg10.dtd">
<svg version="1.0" xmlns="http://www.w3.org/2000/svg"
 width="1280.000000pt" height="1280.000000pt" viewBox="0 0 1280.000000 1280.000000"
 preserveAspectRatio="xMidYMid meet">
<metadata>
Created by potrace 1.14, written by Peter Selinger 2001-2017
</metadata>
<g transform="translate(0.000000,1280.000000) scale(0.100000,-0.100000)"
fill="#000000" stroke="none">
<path d="M6215 12783 c-334 -59 -611 -265 -766 -571 -42 -81 -71 -158 -85
-227 -21 -95 -26 -133 -28 -220 -11 -341 134 -651 404 -868 129 -103 320 -191
462 -211 l46 -7 0 -324 c0 -240 -3 -323 -12 -318 -8 5 -842 529 -1049 660
l-37 23 25 50 c165 325 136 730 -73 1035 -98 142 -278 288 -435 354 -170 70
-377 97 -549 71 -436 -66 -773 -397 -853 -835 -17 -96 -13 -290 8 -385 79
-352 342 -643 680 -751 175 -56 406 -62 573 -15 151 42 297 118 399 208 30 26
38 28 51 17 9 -7 25 -18 35 -24 17 -9 500 -313 1056 -663 l181 -115 0 -887 c0
-488 2 -896 6 -906 5 -16 1 -20 -22 -22 -99 -8 -302 -91 -432 -177 -65 -43
-83 -58 -151 -122 l-36 -34 -132 182 c-73 101 -135 188 -137 194 -3 6 8 18 23
26 90 46 208 149 294 257 121 150 184 299 224 527 6 35 7 231 1 261 -2 12 -7
39 -10 60 -23 142 -90 300 -185 434 -136 194 -391 367 -611 415 -307 67 -593
16 -845 -151 -257 -170 -435 -458 -469 -758 -3 -27 -7 -51 -10 -53 -2 -3 -101
92 -220 211 l-216 216 51 66 c146 193 208 434 175 679 -34 251 -182 487 -396
629 -103 69 -202 110 -325 137 -199 42 -446 6 -621 -91 -247 -138 -418 -380
-469 -665 -11 -65 -6 -243 10 -320 67 -328 309 -595 627 -693 97 -30 139 -36
273 -36 138 0 227 17 352 68 l83 33 323 -321 c314 -311 343 -339 414 -394 19
-14 40 -40 48 -59 43 -102 182 -276 300 -373 122 -102 306 -182 488 -214 77
-13 264 -14 343 -2 l42 7 183 -252 c101 -139 188 -258 192 -265 4 -8 -4 -39
-22 -76 -31 -69 -76 -202 -85 -258 -3 -19 -8 -46 -11 -60 -15 -63 -11 -297 6
-385 91 -461 419 -809 869 -924 l75 -19 1 -1106 c1 -608 0 -1106 -2 -1106 -2
0 -111 134 -241 298 -131 163 -244 303 -250 310 -18 19 -18 20 28 87 108 158
158 319 160 511 5 476 -384 877 -861 886 -84 2 -209 -8 -218 -17 -5 -5 -108
159 -117 186 -3 9 16 38 50 75 114 121 204 286 251 459 22 84 27 122 28 240 2
210 -22 321 -104 490 -252 523 -884 748 -1406 501 -216 -102 -379 -256 -491
-462 l-39 -72 -381 382 -381 381 52 105 c77 157 106 273 111 450 3 125 -7 212
-41 326 -85 295 -288 533 -568 665 -339 159 -722 133 -1036 -70 -77 -50 -95
-65 -183 -154 -404 -406 -401 -1079 6 -1488 90 -91 179 -155 292 -212 52 -26
189 -73 240 -82 17 -3 48 -9 70 -13 22 -4 101 -7 175 -6 111 0 153 5 239 27
123 31 278 104 372 175 l67 50 306 -307 306 -307 -97 2 c-54 1 -102 2 -108 3
-5 1 -18 22 -29 47 -44 107 -159 220 -271 267 -218 91 -484 9 -618 -190 -54
-80 -77 -158 -82 -270 -5 -136 50 -270 151 -370 193 -190 493 -197 694 -16 57
51 109 125 131 186 l13 37 241 0 241 0 1 -58 c3 -282 110 -539 308 -738 303
-306 734 -401 1138 -249 l88 33 23 -37 c12 -20 32 -52 44 -72 l22 -36 -43 -30
c-156 -113 -282 -299 -332 -493 -52 -197 -32 -421 53 -600 28 -59 99 -166 138
-209 20 -23 35 -43 33 -45 -6 -5 -434 311 -433 320 0 5 12 34 26 65 137 292
-22 631 -333 711 -204 53 -428 -33 -545 -208 -76 -115 -105 -284 -70 -411 48
-179 192 -320 374 -367 69 -17 239 -11 274 10 7 5 178 -113 178 -122 0 -2
-121 -4 -268 -4 l-269 0 -134 96 c-74 52 -143 102 -154 110 -11 8 -90 64 -175
125 -85 61 -158 116 -161 122 -6 11 -45 170 -55 223 -2 12 -18 78 -34 147 -17
69 -30 132 -30 139 0 8 29 33 64 56 160 105 263 289 270 482 11 335 -247 618
-579 633 -210 10 -414 -93 -535 -269 -142 -205 -134 -500 18 -704 96 -128 252
-220 405 -239 l51 -6 19 -80 c55 -237 75 -330 72 -333 -4 -5 -42 -7 -410 -27
-60 -3 -120 -8 -132 -11 -21 -4 -23 -1 -24 48 -2 106 -11 157 -48 257 -88 242
-276 412 -525 477 -160 41 -362 24 -506 -44 -484 -226 -597 -864 -218 -1233
147 -144 329 -220 528 -220 52 0 106 2 120 5 14 3 41 9 60 12 60 11 162 55
234 102 92 58 167 131 225 217 39 59 52 70 76 71 17 1 82 5 145 9 63 3 149 8
190 10 41 2 113 7 160 9 47 3 128 8 180 11 l95 6 138 -98 c89 -62 132 -99 120
-100 -10 -1 -106 -4 -213 -6 -196 -4 -235 -8 -274 -29 -12 -6 -21 -10 -21 -9
0 5 -83 -19 -180 -51 -314 -103 -547 -315 -668 -608 -87 -210 -97 -491 -26
-710 162 -494 670 -800 1173 -706 46 9 110 25 142 37 33 11 68 23 78 26 11 3
56 26 100 51 292 161 488 448 531 777 4 28 8 51 9 52 5 6 106 8 106 3 0 -3
-15 -35 -34 -70 -99 -187 -96 -400 8 -583 89 -158 256 -275 431 -302 276 -42
546 106 657 360 35 80 49 153 49 250 -1 96 -20 177 -64 265 -17 36 -32 69 -32
74 0 6 1214 13 1334 7 28 -2 -4 -1082 -44 -1466 -2 -22 -7 -67 -10 -100 -27
-254 -71 -464 -117 -550 -29 -54 -47 -68 -201 -160 -263 -159 -487 -253 -757
-319 -80 -19 -158 -37 -175 -39 -16 -3 -59 -10 -95 -16 -65 -11 -93 -14 -205
-26 -86 -10 -123 -12 -182 -14 -31 0 -53 -6 -53 -12 0 -8 473 -9 1703 -5 936
3 1851 8 2032 10 182 2 402 5 489 5 158 1 186 5 110 16 -30 5 -193 42 -299 69
-225 57 -517 175 -703 285 -168 99 -302 236 -355 362 -13 32 -43 149 -52 204
-21 127 -30 200 -40 325 -2 36 -7 94 -10 130 -18 225 -37 943 -25 953 3 2 70
60 150 128 80 68 151 129 158 136 7 6 33 29 57 49 l45 37 398 -1 c521 -1 468
2 450 -19 -36 -41 -83 -163 -94 -242 -36 -259 82 -500 307 -628 62 -35 160
-64 243 -71 456 -40 787 415 613 843 -11 28 -29 63 -40 78 -10 16 -17 31 -13
34 4 5 195 8 254 4 6 -1 12 -11 12 -24 0 -97 97 -337 186 -457 211 -287 532
-443 878 -427 140 7 166 11 260 38 440 130 743 534 743 991 1 285 -102 539
-295 736 -133 135 -255 206 -482 282 -85 28 -164 55 -175 60 -52 22 -109 24
-453 15 l-144 -4 61 47 c174 136 213 162 240 157 14 -2 51 -7 81 -10 30 -3 66
-8 80 -10 54 -8 136 -18 165 -21 17 -1 44 -4 60 -7 17 -3 59 -9 95 -13 36 -4
72 -8 80 -10 40 -5 149 -16 180 -18 31 -1 39 -8 71 -56 112 -172 309 -308 487
-336 21 -3 41 -8 45 -11 5 -3 54 -5 110 -4 353 2 652 234 739 574 24 94 28
253 8 339 -85 377 -409 626 -784 605 -124 -7 -139 -10 -237 -48 -288 -111
-483 -390 -488 -697 l-1 -54 -63 6 c-34 4 -72 8 -82 10 -30 5 -104 15 -160 21
-27 3 -66 7 -85 10 -19 2 -59 7 -89 11 -30 3 -62 8 -70 9 -9 2 -19 4 -22 4 -3
1 18 108 46 238 l51 238 50 3 c324 19 582 291 577 612 -2 168 -64 312 -184
431 -117 116 -280 179 -446 173 -158 -6 -295 -65 -409 -180 -144 -143 -207
-350 -167 -547 16 -80 49 -158 94 -223 38 -55 119 -137 160 -161 16 -10 29
-22 29 -28 -1 -30 -129 -598 -136 -605 -5 -4 -128 -97 -274 -205 -146 -109
-279 -211 -296 -227 l-31 -29 -172 -5 c-94 -2 -171 -2 -171 1 0 4 28 137 45
210 4 19 12 21 82 22 43 0 98 6 123 13 171 46 305 173 359 341 18 56 21 79 22
149 2 365 -367 610 -706 469 -64 -26 -93 -46 -151 -103 -39 -39 -83 -94 -97
-121 -67 -134 -78 -284 -30 -415 21 -56 91 -170 105 -170 11 0 6 -65 -11 -135
-5 -22 -12 -56 -15 -76 -3 -20 -8 -42 -10 -50 -3 -8 -7 -30 -10 -49 -3 -19 -9
-48 -14 -65 -10 -34 7 -32 -244 -38 l-158 -3 16 23 c109 168 156 322 156 513
-1 286 -141 556 -373 720 l-67 46 69 121 70 121 64 -29 c202 -91 423 -117 661
-75 57 10 184 56 257 92 216 109 381 278 487 499 72 150 102 285 102 463 l1
92 333 0 334 0 64 -65 c110 -112 262 -159 407 -125 249 58 396 323 311 562
-101 287 -459 382 -690 183 -56 -49 -99 -112 -126 -187 l-21 -61 -168 -1 c-92
-1 -167 1 -167 4 0 3 130 135 288 293 249 249 291 287 303 275 32 -33 163
-120 228 -153 161 -81 322 -116 506 -110 158 5 238 20 363 69 509 200 784 755
637 1281 -197 703 -1024 1003 -1630 592 -297 -202 -469 -541 -460 -906 4 -169
38 -308 112 -454 l34 -69 -382 -381 c-210 -210 -384 -377 -386 -371 -2 6 -27
49 -55 95 -33 54 -86 118 -147 179 -108 108 -174 154 -295 212 -222 106 -453
130 -718 73 -15 -3 -60 -17 -100 -31 -358 -129 -613 -430 -693 -819 -14 -66
-13 -293 1 -371 36 -192 132 -390 254 -523 22 -24 40 -46 40 -50 0 -3 -41 -76
-89 -161 -84 -145 -91 -155 -118 -153 -92 7 -227 4 -281 -6 -361 -67 -643
-341 -717 -697 -22 -105 -21 -259 1 -369 27 -135 124 -318 223 -422 l30 -31
-67 -60 c-37 -32 -125 -110 -197 -172 -71 -62 -132 -116 -135 -119 -3 -3 -33
-30 -66 -59 l-62 -52 0 1099 0 1100 36 6 c21 3 51 8 68 10 138 17 329 97 466
195 313 224 495 571 495 947 1 200 -43 382 -133 552 -43 80 -44 84 -25 97 10
7 83 111 162 229 l144 216 35 -6 c19 -4 87 -8 150 -10 402 -13 778 207 971
569 14 27 35 54 47 60 11 6 40 29 64 51 24 22 77 69 118 105 41 36 80 69 86
75 33 29 160 143 178 158 12 10 50 44 85 75 36 31 103 91 150 132 47 41 99 87
116 102 16 16 34 28 39 28 5 0 39 -12 75 -26 109 -44 221 -62 351 -59 63 2
124 6 135 8 94 23 158 42 200 60 51 22 166 85 175 97 3 3 16 14 30 23 54 37
145 136 200 218 183 274 204 633 53 921 -165 315 -489 506 -838 494 -151 -6
-210 -18 -337 -72 -374 -159 -601 -560 -544 -963 22 -157 95 -327 190 -443
l56 -67 -123 -108 c-67 -59 -124 -110 -127 -113 -28 -29 -252 -221 -254 -219
-2 2 -7 32 -10 67 -13 126 -52 256 -112 375 -144 284 -431 502 -739 561 -188
36 -389 22 -565 -40 -378 -133 -653 -474 -705 -874 -16 -125 -3 -292 32 -420
69 -250 258 -498 475 -624 l47 -27 -112 -168 -111 -168 -52 42 c-166 136 -345
217 -556 252 -55 9 -95 20 -91 25 3 6 5 407 5 892 0 486 3 887 6 893 4 6 81
59 172 118 91 59 215 140 275 180 61 40 261 172 447 293 l336 220 79 -59 c96
-72 183 -119 287 -154 487 -163 1010 52 1238 510 34 68 71 170 82 230 4 17 9
41 12 55 12 54 12 258 -1 330 -59 331 -259 601 -555 747 -148 72 -253 96 -430
97 -165 1 -208 -4 -323 -40 -254 -80 -479 -269 -597 -504 -46 -91 -87 -210
-95 -276 -4 -27 -9 -58 -12 -68 -7 -24 -5 -209 2 -261 13 -86 48 -204 85 -283
l39 -83 -197 -128 c-108 -71 -269 -176 -357 -234 -319 -209 -485 -317 -489
-317 -2 0 -3 143 -2 317 l1 317 70 17 c333 78 586 278 736 582 26 53 46 97 43
97 -2 0 2 15 10 34 26 62 49 199 51 305 10 528 -356 976 -875 1074 -98 18
-274 18 -375 0z m380 -263 c286 -73 501 -281 587 -570 14 -46 21 -103 24 -195
3 -112 0 -143 -20 -221 -52 -200 -176 -373 -345 -481 -143 -92 -289 -132 -461
-128 -136 4 -226 26 -345 86 -435 218 -579 776 -305 1179 190 279 542 413 865
330z m-2180 -549 c268 -53 493 -253 576 -514 27 -86 30 -101 33 -210 8 -222
-77 -425 -242 -578 -326 -305 -852 -260 -1119 96 -172 229 -204 516 -87 773
147 323 494 502 839 433z m4195 5 c369 -68 631 -380 633 -751 1 -234 -112
-462 -297 -601 -230 -174 -517 -206 -781 -89 -189 83 -357 280 -415 485 -39
141 -33 323 15 461 9 24 32 73 51 109 120 218 329 359 584 392 37 5 170 1 210
-6z m-5818 -1380 c223 -50 409 -224 480 -451 30 -93 32 -280 4 -370 -75 -247
-290 -435 -536 -472 -242 -35 -493 72 -634 270 -84 118 -121 239 -121 387 1
178 58 321 179 448 162 171 394 240 628 188z m7582 -2 c231 -60 415 -248 475
-484 27 -108 22 -248 -13 -356 -85 -263 -341 -454 -611 -457 -139 -2 -295 44
-365 108 -14 13 -35 26 -47 29 -36 11 -149 143 -188 220 -97 192 -97 414 0
606 25 50 94 140 134 178 95 87 248 158 361 169 30 3 56 6 58 8 8 7 144 -8
196 -21z m-5389 -961 c251 -52 457 -213 571 -446 88 -180 104 -399 44 -591
-140 -446 -625 -679 -1068 -514 -259 97 -469 358 -509 633 -22 150 5 332 71
472 158 332 534 521 891 446z m3143 1 c326 -67 575 -313 640 -635 21 -101 22
-237 3 -321 -57 -248 -214 -453 -431 -563 -45 -23 -171 -71 -190 -73 -3 0 -32
-3 -65 -6 -33 -4 -73 -8 -90 -10 -59 -6 -189 15 -275 44 -263 88 -455 292
-531 565 -31 112 -31 287 -1 403 76 285 295 507 574 581 40 11 84 22 98 24 60
10 197 6 268 -9z m-6543 -673 c482 -137 730 -665 525 -1117 -209 -461 -783
-620 -1200 -332 -171 118 -295 307 -338 518 -15 72 -8 272 12 345 79 297 299
514 596 591 116 30 289 28 405 -5z m10020 8 c234 -50 444 -215 549 -434 62
-127 80 -206 81 -345 0 -164 -18 -245 -82 -375 -116 -234 -332 -391 -603 -440
-64 -12 -214 -7 -285 9 -38 9 -80 19 -93 21 -38 9 -191 92 -241 131 -195 156
-310 389 -312 631 -5 525 470 912 986 802z m-4936 -1378 c456 -114 751 -553
684 -1016 -45 -308 -230 -559 -514 -694 -119 -57 -221 -82 -359 -86 -252 -8
-465 71 -653 245 -251 231 -349 590 -252 923 98 338 396 595 750 647 87 13
254 3 344 -19z m-2494 -394 c72 -18 111 -30 120 -37 6 -4 25 -12 44 -19 19 -6
67 -31 105 -56 196 -122 332 -327 372 -560 4 -22 7 -84 6 -138 -4 -375 -266
-696 -640 -781 -91 -21 -255 -19 -355 5 -103 25 -244 93 -322 156 -199 162
-307 395 -301 652 4 130 25 219 81 336 101 211 295 369 528 431 80 21 108 24
217 20 69 -2 134 -6 145 -9z m4807 -11 c232 -59 426 -214 527 -420 71 -144 92
-243 86 -401 -7 -211 -88 -390 -244 -545 -150 -148 -356 -232 -569 -231 -394
2 -731 292 -798 686 -14 82 -7 228 15 315 22 90 81 216 132 288 96 134 263
252 419 296 102 30 125 33 230 35 83 1 125 -3 202 -23z m1995 -299 c56 -29 87
-81 90 -151 3 -53 0 -66 -24 -101 -109 -153 -336 -74 -321 111 10 124 145 198
255 141z m-8874 -65 c146 -79 175 -284 56 -398 -160 -154 -426 -44 -429 177
-1 194 202 314 373 221z m8557 -964 c61 -27 139 -98 166 -150 47 -90 55 -187
23 -281 -34 -102 -87 -161 -184 -207 -179 -85 -384 -12 -471 168 -24 49 -28
69 -29 148 0 83 3 95 34 158 46 89 135 164 224 187 62 16 178 5 237 -23z
m-8235 -82 c71 -18 109 -40 161 -91 126 -125 138 -332 26 -473 -63 -79 -153
-123 -263 -128 -104 -5 -189 29 -263 102 -66 67 -98 143 -101 243 -3 100 33
190 105 259 92 88 215 120 335 88z m2783 -617 c199 -50 387 -221 444 -402 35
-111 43 -241 23 -346 -27 -140 -130 -292 -258 -381 -148 -105 -335 -141 -512
-101 -267 62 -485 335 -485 606 0 179 80 369 200 471 14 12 38 34 55 48 44 38
151 88 230 107 93 22 212 22 303 -2z m2662 -105 c218 -64 384 -239 443 -467
20 -75 15 -241 -8 -317 -90 -290 -361 -479 -654 -457 -158 12 -286 72 -402
187 -131 130 -190 283 -184 470 5 165 65 300 185 420 99 99 208 157 335 177
17 3 32 7 35 9 10 10 199 -6 250 -22z m-6646 -154 c160 -50 298 -200 336 -365
26 -112 6 -258 -48 -360 -43 -79 -136 -166 -222 -208 -89 -44 -119 -50 -225
-51 -196 -2 -361 100 -450 279 -41 81 -44 94 -52 195 -7 95 9 171 53 258 113
222 365 327 608 252z m8120 6 c111 -46 177 -187 143 -303 -44 -146 -208 -222
-342 -159 -68 32 -102 66 -132 134 -21 48 -24 66 -19 115 3 31 15 74 25 96 31
61 103 116 165 128 11 2 22 5 24 8 8 8 103 -5 136 -19z m2514 4 c373 -100 507
-559 244 -836 -102 -107 -238 -165 -382 -163 -119 2 -252 61 -345 154 -184
182 -197 474 -31 677 71 87 191 158 294 174 20 3 39 7 40 9 7 7 142 -4 180
-15z m-8218 -152 c80 -25 151 -111 165 -201 30 -188 -171 -344 -347 -268 -159
68 -206 279 -89 399 79 81 165 104 271 70z m1985 -1139 c66 -83 155 -194 198
-247 43 -53 82 -103 86 -112 5 -8 9 -59 10 -112 l1 -98 -119 0 -118 0 -149
107 c-82 58 -185 131 -229 162 -256 178 -536 383 -515 377 137 -37 305 -48
415 -27 69 13 203 58 245 81 19 10 40 19 45 20 6 0 64 -68 130 -151z m4995 27
c78 -12 206 -62 282 -109 126 -79 223 -186 291 -322 60 -120 80 -209 80 -355
-1 -268 -143 -517 -377 -661 -262 -161 -591 -151 -856 25 -143 95 -287 308
-317 466 -2 14 -8 41 -12 60 -13 57 -5 230 14 305 43 172 147 331 290 441 97
75 257 141 365 151 30 3 56 6 57 7 5 4 141 -2 183 -8z m-881 -53 c-24 -27 -49
-54 -55 -60 -28 -29 -106 -156 -138 -224 -29 -62 -47 -115 -82 -246 -3 -10
-189 -13 -891 -13 -488 0 -883 4 -877 8 5 5 56 49 114 98 58 49 110 94 116 99
6 6 22 19 35 30 13 11 104 89 202 173 l177 152 158 1 c86 1 198 2 247 4 50 2
232 6 405 10 173 4 316 8 317 8 1 1 72 3 159 5 l157 2 -44 -47z m-2224 -18
c48 -11 124 -17 188 -17 60 0 107 -1 105 -3 -2 -1 -194 -165 -428 -365 -234
-200 -432 -370 -442 -377 -15 -13 -16 2 -12 218 4 227 5 232 27 253 20 18 95
83 171 149 38 33 138 121 179 158 l40 36 47 -18 c25 -9 82 -25 125 -34z
m-4977 20 c177 -27 368 -137 482 -278 112 -138 169 -293 175 -472 7 -234 -67
-418 -235 -586 -74 -73 -101 -93 -191 -136 -126 -62 -214 -85 -337 -88 -539
-14 -931 509 -767 1022 41 128 96 217 199 318 72 71 110 100 181 136 104 53
175 77 266 88 64 7 164 6 227 -4z m1938 -65 c59 -41 236 -166 393 -277 l285
-203 -862 0 -861 0 -22 73 c-43 144 -132 296 -239 411 -33 35 -60 65 -60 68 0
2 283 4 630 4 l629 -1 107 -75z m-265 -822 c220 -101 274 -383 108 -563 -167
-181 -465 -133 -575 92 -89 182 11 419 204 486 71 25 192 18 263 -15z m4637
-8 c156 -83 228 -258 173 -422 -35 -104 -94 -168 -198 -215 -48 -22 -72 -27
-140 -27 -71 0 -89 4 -145 32 -84 42 -134 92 -172 172 -68 146 -28 323 96 422
70 55 141 78 238 75 74 -3 93 -7 148 -37z"/>
<path d="M3138 8535 c-1 -1 -28 -5 -58 -8 -230 -21 -425 -233 -435 -473 -7
-153 43 -283 150 -389 244 -243 661 -172 810 139 36 74 45 108 50 191 9 125
-40 269 -125 366 -72 84 -198 154 -298 165 -26 3 -57 7 -69 9 -12 2 -23 2 -25
0z m114 -279 c124 -53 184 -207 128 -333 -50 -112 -186 -175 -302 -140 -202
62 -244 330 -70 451 21 14 49 29 62 31 12 2 25 7 28 10 10 10 116 -3 154 -19z"/>
<path d="M9621 8414 c-114 -31 -220 -106 -289 -206 -156 -227 -93 -552 136
-705 108 -71 258 -102 380 -79 191 37 347 186 397 381 67 263 -98 539 -366
610 -68 19 -188 18 -258 -1z m243 -265 c50 -23 104 -83 126 -138 21 -52 16
-143 -10 -193 -50 -99 -119 -142 -225 -142 -81 -1 -127 18 -181 72 -48 48 -65
85 -71 152 -18 197 181 334 361 249z"/>
<path d="M668 6805 c-2 -2 -25 -6 -52 -9 -190 -26 -393 -160 -501 -331 -163
-259 -151 -588 32 -837 88 -121 274 -246 405 -272 13 -3 43 -9 68 -14 58 -11
212 -8 272 7 281 66 494 276 562 554 16 66 23 226 12 277 -3 14 -8 39 -12 55
-18 92 -76 212 -140 291 -143 175 -334 271 -556 278 -48 2 -88 2 -90 1z m178
-266 c132 -32 263 -138 322 -259 66 -136 65 -296 -2 -427 -37 -74 -119 -158
-194 -200 -161 -90 -349 -83 -501 18 -333 222 -269 716 111 854 72 26 189 32
264 14z"/>
<path d="M11984 6649 c-369 -41 -654 -353 -656 -720 -1 -163 37 -291 126 -424
37 -55 162 -185 178 -185 3 0 13 -6 20 -14 21 -21 156 -82 223 -102 63 -18
245 -25 320 -12 285 50 526 284 591 573 13 62 12 240 -3 310 -26 126 -101 262
-192 355 -141 142 -286 206 -506 224 -16 1 -62 -1 -101 -5z m187 -264 c93 -23
168 -65 230 -127 183 -182 192 -470 20 -660 -223 -249 -624 -201 -780 92 -96
181 -71 394 65 548 113 128 305 189 465 147z"/>
</g>
</svg>
