<svg id="Layer_1" data-name="Layer 1" xmlns="http://www.w3.org/2000/svg" xmlns:xlink="http://www.w3.org/1999/xlink"
    viewBox="0 0 137.49 129.55">
    <defs>
        <style>
            .azure-1 {
                fill: url(#azure-gradient);
            }

            .azure-2 {
                fill: #0078d4;
            }

            .azure-3 {
                fill: url(#azure-gradient-2);
            }

            .azure-4 {
                fill: url(#azure-gradient-3);
            }
        </style>
        <linearGradient id="azure-gradient" x1="-1112.09" y1="572.02" x2="-1139.13" y2="651.9"
            gradientTransform="translate(1804.56 -873.95) scale(1.56)" gradientUnits="userSpaceOnUse">
            <stop offset="0" stop-color="#114a8b" />
            <stop offset="1" stop-color="#0669bc" />
        </linearGradient>
        <linearGradient id="azure-gradient-2" x1="-1103.65" y1="609.25" x2="-1109.9" y2="611.36"
            gradientTransform="translate(1804.56 -873.95) scale(1.56)" gradientUnits="userSpaceOnUse">
            <stop offset="0" stop-opacity="0.3" />
            <stop offset="0.07" stop-opacity="0.2" />
            <stop offset="0.32" stop-opacity="0.1" />
            <stop offset="0.62" stop-opacity="0.05" />
            <stop offset="1" stop-opacity="0" />
        </linearGradient>
        <linearGradient id="azure-gradient-3" x1="-1106.89" y1="569.62" x2="-1077.21" y2="648.7"
            gradientTransform="translate(1804.56 -873.95) scale(1.56)" gradientUnits="userSpaceOnUse">
            <stop offset="0" stop-color="#3ccbf4" />
            <stop offset="1" stop-color="#2892df" />
        </linearGradient>
    </defs>
    <path class="azure-1"
        d="M52.09,10.22H92.77L50.54,135.36a6.48,6.48,0,0,1-6.14,4.41H12.73a6.47,6.47,0,0,1-6.47-6.47,6.28,6.28,0,0,1,.34-2.07L45.94,14.64a6.5,6.5,0,0,1,6.15-4.42Z"
        transform="translate(-6.26 -10.22)" />
    <path class="azure-2" d="M111.21,94.16H46.7a3,3,0,0,0-2,5.17L86.11,138a6.51,6.51,0,0,0,4.45,1.75h36.53Z"
        transform="translate(-6.26 -10.22)" />
    <path class="azure-3"
        d="M52.09,10.22a6.44,6.44,0,0,0-6.16,4.5L6.64,131.12a6.47,6.47,0,0,0,3.91,8.27,6.1,6.1,0,0,0,2.2.38H45.23a7,7,0,0,0,5.33-4.53l7.83-23.09,28,26.1a6.59,6.59,0,0,0,4.16,1.52h36.4L111,94.16H64.44L92.92,10.22Z"
        transform="translate(-6.26 -10.22)" />
    <path class="azure-4"
        d="M104.05,14.63a6.47,6.47,0,0,0-6.13-4.41H52.57a6.5,6.5,0,0,1,6.14,4.41L98.06,131.22A6.47,6.47,0,0,1,94,139.43a6.37,6.37,0,0,1-2.07.34h45.34a6.46,6.46,0,0,0,6.47-6.48,6.37,6.37,0,0,0-.34-2.07Z"
        transform="translate(-6.26 -10.22)" />
</svg>