<svg id="Layer_1" data-name="Layer 1" xmlns="http://www.w3.org/2000/svg" viewBox="0 0 138.58 160">
    <defs>
        <style>
            .chartjs-1 {
                fill: #36a2eb;
            }

            .chartjs-2 {
                fill: #ffce56;
            }

            .chartjs-3 {
                fill: #fe6184;
                isolation: isolate;
                opacity: 0.8;
            }

            .chartjs-4 {
                fill: #e7e9ed;
            }
        </style>
    </defs>
    <path class="chartjs-1"
        d="M134.56,80.56c-22.37.44-17.71,14.59-33.47,18.18-16,3.63-18.54-39.12-34.55-39.12s-19.56,41.53-39.61,70l-.57.81,43,24.81,65.22-37.65Z" />
    <path class="chartjs-2"
        d="M134.56,79.27c-7.49-9.61-12.56-20.66-23.49-20.66-19.34,0-14.25,31.54-35.62,31.54s-23.62-33.93-47.83-2A169.79,169.79,0,0,0,8.81,120.34l60.53,34.94,65.22-37.65Z" />
    <path class="chartjs-3"
        d="M4.12,92.33C11.46,72,14.63,55.56,28.64,55.56c21.37,0,26.45,60,44.77,53.93S89.7,70.82,118.19,70.82c5.43,0,11,3.32,16.37,8.69v38.12L69.34,155.28,4.12,117.63V92.33Z" />
    <path class="chartjs-4"
        d="M69.29,160,0,120V40L69.29,0l69.29,40v80ZM8.14,115.3l61.15,35.3,61.15-35.3V44.7L69.29,9.4,8.14,44.7Z" />
</svg>