<svg id="Layer_1" data-name="Layer 1" xmlns="http://www.w3.org/2000/svg" viewBox="0 0 689.5 1000">
    <defs>
        <style>
            .i18n-1 {
                fill: #009789;
            }

            .i18n-2 {
                fill: #024e41;
            }

            .i18n-3 {
                fill: #fff;
            }
        </style>
    </defs>
    <g id="g902">
        <g id="logo_item--logo_0" data-name="logo  item--logo 0">
            <g id="g57">
                <g id="g55">
                    <path id="path33" class="i18n-1"
                        d="M622.3,103.63V291.84L833.82,835s64.55,132.64-120.12,165H292.47s-172.08-18-130.84-154.21L383.86,291.92V103.7H622.3Z"
                        transform="translate(-155.25)" />
                    <g id="g39">
                        <g id="g37">
                            <path id="path35" class="i18n-2"
                                d="M626.79,81.77H373.08c-20.55,0-37.27-18.31-37.27-40.88S352.53,0,373.08,0H626.79c20.62,0,37.34,18.31,37.34,40.89S647.41,81.77,626.79,81.77Z"
                                transform="translate(-155.25)" />
                        </g>
                    </g>
                    <path id="path41" class="i18n-3"
                        d="M559.85,411c27.21,0,49.43,26.63,49.43,59.55S587.06,530,559.85,530s-49.42-26.63-49.42-59.48S532.57,411,559.85,411Z"
                        transform="translate(-155.25)" />
                    <ellipse id="ellipse43" class="i18n-3" cx="252.93" cy="515.16" rx="41.68" ry="50.22" />
                    <path id="path45" class="i18n-2"
                        d="M641.12,279.4V189.88s113.54-25,170.2,107C811.39,296.84,723,361.24,641.12,279.4Z"
                        transform="translate(-155.25)" />
                    <path id="path47" class="i18n-2"
                        d="M363.1,279.4V189.88s-113.54-25-170.2,107C192.9,296.84,281.25,361.24,363.1,279.4Z"
                        transform="translate(-155.25)" />
                    <path id="path49" class="i18n-3"
                        d="M709.36,649.76c-184.6-57.24-339.75-26.49-415.59-3.26L217.28,830.6C182.84,940.52,326.62,954.92,326.62,954.92H678.46c154.21-26,100.3-133,100.3-133Z"
                        transform="translate(-155.25)" />
                    <path id="path51" class="i18n-2"
                        d="M443.35,718.21c0,19.83-26.7,36-59.56,36s-59.48-16.14-59.48-36,26.63-36,59.48-36S443.35,698.24,443.35,718.21Z"
                        transform="translate(-155.25)" />
                    <path id="path53" class="i18n-2"
                        d="M655.09,718.21c0,19.83-26.71,36-59.49,36s-59.55-16.14-59.55-36,26.55-36,59.55-36S655.09,698.24,655.09,718.21Z"
                        transform="translate(-155.25)" />
                </g>
            </g>
        </g>
    </g>
</svg>