<?xml version="1.0" encoding="utf-8"?>
<!-- Generator: Adobe Illustrator 26.1.0, SVG Export Plug-In . SVG Version: 6.00 Build 0)  -->
<svg version="1.1" id="Layer_1" xmlns="http://www.w3.org/2000/svg" xmlns:xlink="http://www.w3.org/1999/xlink" x="0px"
    y="0px" viewBox="0 0 217.6 160" style="enable-background:new 0 0 217.6 160;" xml:space="preserve">
    <style type="text/css">
        .pnpm-0 {
            fill: #F9AD00;
        }

        .pnpm-1 {
            fill: #4E4E4E;
        }
    </style>
    <path class="pnpm-0" d="M217.6,49.8h-48.8V1h48.8V49.8z M163.9,49.8h-48.8V1h48.8V49.8z M110.2,49.8H61.5V1h48.8V49.8z M217.6,103.4
	h-48.8V54.6h48.8C217.6,54.6,217.6,103.4,217.6,103.4z" />
    <path class="pnpm-1" d="M163.9,103.4h-48.8V54.6h48.8C163.9,54.6,163.9,103.4,163.9,103.4z M163.9,157.1h-48.8v-48.8h48.8V157.1z
	 M217.6,157.1h-48.8v-48.8h48.8V157.1z M110.2,157.1H61.5v-48.8h48.8V157.1z M9.1,68.3c1.6,0,3.2,0.2,4.5,0.7
	c1.4,0.4,2.6,1.1,3.6,1.9c1,0.9,1.8,2,2.4,3.3c0.6,1.3,0.9,2.9,0.9,4.7c0,1.7-0.2,3.3-0.7,4.6c-0.5,1.3-1.2,2.4-2.1,3.3
	c-0.9,0.9-2,1.5-3.3,2c-1.3,0.4-2.7,0.7-4.2,0.7C9.1,89.5,8,89.3,7,89v6.8c-0.3,0.1-0.7,0.2-1.3,0.2c-0.6,0.1-1.2,0.2-1.8,0.2
	c-0.6,0-1.1,0-1.6-0.1C1.7,96,1.3,95.8,1,95.6c-0.3-0.2-0.6-0.6-0.7-1c-0.2-0.4-0.2-1-0.2-1.6V73.2c0-0.7,0.1-1.3,0.5-1.8
	c0.3-0.5,0.8-0.9,1.3-1.3c0.8-0.5,1.9-1,3.2-1.3C6.2,68.5,7.6,68.4,9.1,68.3z M9.2,84c2.8,0,4.2-1.7,4.2-5c0-1.7-0.4-3-1.1-3.9
	c-0.7-0.8-1.7-1.3-3-1.3c-0.5,0-1,0.1-1.4,0.2c-0.4,0.1-0.8,0.2-1.1,0.4v9c0.3,0.2,0.7,0.3,1.1,0.4C8.4,83.9,8.8,84,9.2,84L9.2,84z
	 M36.6,76.3c0-0.8-0.2-1.5-0.7-1.8c-0.5-0.4-1.1-0.6-1.9-0.6c-0.5,0-1.1,0.1-1.6,0.2c-0.5,0.1-1,0.3-1.4,0.6v14.2
	c-0.3,0.1-0.7,0.2-1.3,0.2c-0.6,0.1-1.2,0.1-1.8,0.1c-0.6,0-1.1,0-1.6-0.1c-0.4-0.1-0.8-0.2-1.2-0.5c-0.3-0.3-0.6-0.6-0.8-1
	c-0.2-0.4-0.2-1-0.2-1.7V73.6c0-0.7,0.1-1.3,0.5-1.8c0.3-0.5,0.8-0.9,1.3-1.3c0.9-0.7,2.1-1.2,3.5-1.6c1.4-0.4,3-0.6,4.7-0.6
	c3.1,0,5.5,0.7,7.1,2c1.7,1.3,2.5,3.2,2.5,5.6v12.8c-0.3,0.1-0.7,0.2-1.3,0.2c-0.6,0.1-1.2,0.1-1.8,0.1c-0.6,0-1.1,0-1.6-0.1
	c-0.4-0.1-0.8-0.2-1.2-0.5c-0.3-0.3-0.6-0.6-0.8-1c-0.2-0.4-0.2-1-0.2-1.7L36.6,76.3L36.6,76.3z M57,68.3c1.6,0,3.2,0.2,4.5,0.7
	c1.4,0.4,2.6,1.1,3.6,1.9c1,0.9,1.8,2,2.4,3.3c0.6,1.3,0.9,2.9,0.9,4.7c0,1.7-0.2,3.3-0.7,4.6c-0.5,1.3-1.2,2.4-2.1,3.3
	c-0.9,0.9-2,1.5-3.3,2c-1.3,0.4-2.7,0.7-4.2,0.7c-1.2,0-2.3-0.2-3.3-0.5v6.8c-0.3,0.1-0.7,0.2-1.3,0.2c-0.6,0.1-1.2,0.2-1.8,0.2
	c-0.6,0-1.1,0-1.6-0.1c-0.4-0.1-0.8-0.2-1.2-0.5c-0.3-0.2-0.6-0.6-0.7-1c-0.2-0.4-0.2-1-0.2-1.6V73.2c0-0.7,0.2-1.3,0.5-1.8
	c0.3-0.5,0.8-0.9,1.3-1.3c0.8-0.5,1.9-1,3.2-1.3C54,68.5,55.4,68.4,57,68.3L57,68.3z M57.1,84c2.8,0,4.2-1.7,4.2-5
	c0-1.7-0.4-3-1.1-3.9c-0.7-0.8-1.7-1.3-3-1.3c-0.5,0-1,0.1-1.4,0.2c-0.4,0.1-0.8,0.2-1.1,0.4v9c0.3,0.2,0.7,0.3,1.1,0.4
	C56.2,83.9,56.6,84,57.1,84L57.1,84z M81.4,68.3c1.1,0,2.2,0.2,3.3,0.5c1.1,0.3,2,0.8,2.8,1.4c0.8-0.5,1.7-1,2.7-1.4
	c1-0.4,2.3-0.5,3.7-0.5c1,0,2,0.1,3,0.4c1,0.3,1.9,0.7,2.7,1.3c0.8,0.6,1.4,1.4,1.9,2.3c0.5,1,0.7,2.1,0.7,3.5v12.9
	c-0.3,0.1-0.7,0.2-1.3,0.2c-0.6,0.1-1.2,0.1-1.8,0.1c-0.5,0-1.1,0-1.6-0.1c-0.4-0.1-0.8-0.2-1.2-0.5c-0.3-0.3-0.6-0.6-0.8-1
	c-0.2-0.4-0.2-1-0.2-1.7v-9.8c0-0.8-0.2-1.4-0.7-1.8c-0.5-0.4-1.1-0.6-1.9-0.6c-0.4,0-0.8,0.1-1.2,0.3c-0.4,0.2-0.8,0.3-1,0.5
	c0,0.1,0,0.2,0,0.3v13.9c-0.3,0.1-0.8,0.2-1.4,0.2c-0.6,0.1-1.2,0.1-1.8,0.1s-1.1,0-1.6-0.1c-0.4-0.1-0.8-0.2-1.2-0.5
	c-0.3-0.3-0.6-0.6-0.8-1c-0.2-0.4-0.2-1-0.2-1.7v-9.8c0-0.8-0.3-1.4-0.8-1.8c-0.5-0.4-1.1-0.6-1.8-0.6c-0.5,0-0.9,0.1-1.3,0.2
	c-0.3,0.1-0.6,0.3-0.9,0.4v14.4c-0.3,0.1-0.7,0.2-1.3,0.2c-0.6,0.1-1.2,0.1-1.8,0.1c-0.6,0-1.1,0-1.6-0.1c-0.4-0.1-0.8-0.2-1.2-0.5
	c-0.3-0.3-0.6-0.6-0.8-1c-0.2-0.4-0.2-1-0.2-1.7V73.6c0-0.7,0.2-1.3,0.4-1.8c0.3-0.4,0.8-0.8,1.3-1.2c0.9-0.7,2.1-1.2,3.4-1.6
	C78.4,68.6,79.9,68.3,81.4,68.3L81.4,68.3z" />
</svg>