<svg id="Layer_1" data-name="Layer 1" xmlns="http://www.w3.org/2000/svg" viewBox="0 0 62.4 31.2">
    <defs>
        <style>
            .polars-1 {
                fill: #0075ff;
            }
        </style>
    </defs>
    <path class="polars-1"
        d="M1.47,40.56H2.91a.35.35,0,0,1,.35.35h0v5.36a.36.36,0,0,1-.35.36H1.47a.35.35,0,0,1-.35-.35h0V40.91a.34.34,0,0,1,.35-.35M4.8,33.5H5.93a.5.5,0,0,1,.5.51h0v6.55a.5.5,0,0,1-.5.5H4.8a.5.5,0,0,1-.51-.5h0V34a.52.52,0,0,1,.51-.51h0m-.16,8.43H6.08a.35.35,0,0,1,.35.35h0V48a.35.35,0,0,1-.35.36H4.64A.35.35,0,0,1,4.29,48h0V42.28a.35.35,0,0,1,.35-.35M7.82,26.39H9.26a.35.35,0,0,1,.35.35h0V37.38a.35.35,0,0,1-.35.35H7.82a.34.34,0,0,1-.35-.35h0V26.74a.35.35,0,0,1,.35-.35m0,12.34H9.26a.35.35,0,0,1,.35.35h0v3.3a.36.36,0,0,1-.35.36H7.82a.35.35,0,0,1-.35-.36h0v-3.3a.35.35,0,0,1,.35-.35M8,45.42H9.1a.51.51,0,0,1,.51.51v1.88a.5.5,0,0,1-.51.5H8a.5.5,0,0,1-.5-.5h0V45.93a.51.51,0,0,1,.5-.51H8m3-24.08h1.44a.36.36,0,0,1,.36.35h0v7.52a.35.35,0,0,1-.35.35H11a.35.35,0,0,1-.35-.35h0V21.69a.35.35,0,0,1,.35-.35Zm0,9.15h1.45a.35.35,0,0,1,.35.35V41a.35.35,0,0,1-.35.35H11a.35.35,0,0,1-.35-.35V30.84a.35.35,0,0,1,.35-.35m3.18-10.7h1.44a.35.35,0,0,1,.35.35h0v5a.34.34,0,0,1-.35.35H14.17a.35.35,0,0,1-.35-.35h0v-5a.35.35,0,0,1,.35-.35Zm0,6.61h1.44a.35.35,0,0,1,.35.35h0V34a.35.35,0,0,1-.35.35H14.17a.35.35,0,0,1-.35-.35h0V26.75a.35.35,0,0,1,.35-.35m0,9h1.44a.35.35,0,0,1,.35.35h0V42.2a.35.35,0,0,1-.35.35H14.17a.35.35,0,0,1-.35-.35h0V35.71a.35.35,0,0,1,.35-.35M17.5,18.53h1.13a.5.5,0,0,1,.5.51h0v9.42a.5.5,0,0,1-.5.51H17.5a.51.51,0,0,1-.51-.51h0V19a.51.51,0,0,1,.51-.51h0M17.5,30h1.13a.5.5,0,0,1,.5.51h0v2.19a.5.5,0,0,1-.5.51H17.5a.51.51,0,0,1-.51-.51h0V30.52A.51.51,0,0,1,17.5,30h0m0,3.93h1.13a.5.5,0,0,1,.5.51h0v9.74a.5.5,0,0,1-.5.51H17.5a.51.51,0,0,1-.51-.51h0V34.45a.52.52,0,0,1,.51-.51h0m3.18-16.67H21.8a.51.51,0,0,1,.51.51v1.87a.5.5,0,0,1-.5.51H20.68a.5.5,0,0,1-.51-.5h0V17.78a.5.5,0,0,1,.5-.5h0Zm0,3.78H21.8a.5.5,0,0,1,.51.5h0V36a.5.5,0,0,1-.5.51H20.68a.51.51,0,0,1-.51-.51h0V21.56a.5.5,0,0,1,.5-.51Zm0,16.51H21.8a.51.51,0,0,1,.51.51V42a.5.5,0,0,1-.5.51H20.68a.5.5,0,0,1-.51-.5h0V38.07a.5.5,0,0,1,.5-.51h0m0,6H21.8a.5.5,0,0,1,.51.5h0v2.51a.5.5,0,0,1-.5.5H20.68a.5.5,0,0,1-.51-.5h0V44a.5.5,0,0,1,.5-.5h0m3.17-.79H25a.51.51,0,0,1,.51.51V47.8a.51.51,0,0,1-.51.51H23.85a.5.5,0,0,1-.51-.5h0V43.26a.51.51,0,0,1,.51-.51h0m0-15.73H25a.51.51,0,0,1,.51.51V38.68a.51.51,0,0,1-.51.51H23.85a.51.51,0,0,1-.51-.51h0V27.53a.51.51,0,0,1,.51-.51h0m0-9.91H25a.51.51,0,0,1,.51.51h0v7.85A.51.51,0,0,1,25,26H23.85a.51.51,0,0,1-.51-.51h0V17.62a.5.5,0,0,1,.51-.5h0Zm3.18,28h1.13a.5.5,0,0,1,.5.5h0V47.8a.5.5,0,0,1-.5.51H27a.51.51,0,0,1-.51-.51h0V45.62a.51.51,0,0,1,.51-.51h0m0-27.84h1.13a.5.5,0,0,1,.5.51V31.13a.5.5,0,0,1-.5.51H27a.51.51,0,0,1-.51-.51h0V17.78a.51.51,0,0,1,.51-.51Zm0,15.41h1.13a.5.5,0,0,1,.5.51v5.49a.5.5,0,0,1-.5.51H27a.51.51,0,0,1-.51-.51h0V33.19a.51.51,0,0,1,.51-.51h0M30.2,17.9h1.13a.51.51,0,0,1,.51.51v3.76a.51.51,0,0,1-.51.51H30.2a.51.51,0,0,1-.51-.51h0V18.41a.51.51,0,0,1,.51-.51Zm0,5.82h1.13a.51.51,0,0,1,.51.51h0V38.68a.51.51,0,0,1-.51.51H30.2a.51.51,0,0,1-.51-.51h0V24.23a.51.51,0,0,1,.51-.51Zm3.18-5.5H34.5a.5.5,0,0,1,.51.5h0V27a.5.5,0,0,1-.5.51H33.38a.5.5,0,0,1-.51-.5h0V18.73a.5.5,0,0,1,.5-.51Zm0,10.38H34.5a.5.5,0,0,1,.51.5h0V36a.5.5,0,0,1-.5.51H33.38a.51.51,0,0,1-.51-.51h0v-6.9a.5.5,0,0,1,.5-.51h0m0,9H34.5a.51.51,0,0,1,.51.51V41.2a.5.5,0,0,1-.5.51H33.38a.51.51,0,0,1-.51-.51h0V38.07a.5.5,0,0,1,.5-.51h0m3.15-18.87h1.13a.51.51,0,0,1,.51.51h0V32.08a.51.51,0,0,1-.51.51H36.53a.51.51,0,0,1-.51-.51h0V19.2a.51.51,0,0,1,.51-.51Zm0,14.94h1.13a.51.51,0,0,1,.51.51h0v10.2a.51.51,0,0,1-.51.51H36.53a.5.5,0,0,1-.51-.5h0V34.14a.51.51,0,0,1,.51-.51h0m3.16-15.41h1.12a.5.5,0,0,1,.51.5h0v5.48a.5.5,0,0,1-.5.51H39.69a.5.5,0,0,1-.51-.5h0V18.73a.5.5,0,0,1,.5-.51Zm0,7.54h1.12a.51.51,0,0,1,.51.51v16a.5.5,0,0,1-.5.51H39.69a.51.51,0,0,1-.51-.51h0v-16a.5.5,0,0,1,.5-.5h0Zm0,18.09h1.12a.51.51,0,0,1,.51.51v3a.5.5,0,0,1-.5.51H39.69a.51.51,0,0,1-.51-.51h0v-3a.5.5,0,0,1,.5-.51h0m3.17-.94H44a.5.5,0,0,1,.51.5h0V47.8a.51.51,0,0,1-.51.51H42.86a.5.5,0,0,1-.51-.5h0V43.42a.51.51,0,0,1,.51-.51h0m0-13.37H44a.51.51,0,0,1,.51.51v3a.51.51,0,0,1-.51.51H42.86a.5.5,0,0,1-.51-.5h0v-3a.51.51,0,0,1,.51-.51h0m0-11.48H44a.51.51,0,0,1,.51.51h0V28a.51.51,0,0,1-.51.51H42.86a.51.51,0,0,1-.51-.51h0V18.57a.51.51,0,0,1,.51-.51h0m3.22.79h1.13a.5.5,0,0,1,.5.51V31.29a.5.5,0,0,1-.5.51H46.08a.5.5,0,0,1-.51-.5h0V19.36a.51.51,0,0,1,.51-.51h0m0,26.57h1.13a.5.5,0,0,1,.5.51v1.88a.5.5,0,0,1-.5.5H46.08a.5.5,0,0,1-.51-.5h0V45.93a.52.52,0,0,1,.51-.51h0m3.13-25.63h1.13a.5.5,0,0,1,.5.51v3a.5.5,0,0,1-.5.51H49.21a.5.5,0,0,1-.51-.5h0v-3a.51.51,0,0,1,.51-.51Zm0,5h1.13a.5.5,0,0,1,.5.51h0V31a.5.5,0,0,1-.5.51H49.21A.51.51,0,0,1,48.7,31h0V25.33a.51.51,0,0,1,.51-.51h0m3.21-4.24h1.13a.51.51,0,0,1,.51.51V23a.51.51,0,0,1-.51.51H52.42a.5.5,0,0,1-.5-.51h0V21.09a.5.5,0,0,1,.5-.51h0m0,3.77h1.13a.51.51,0,0,1,.51.51h0v1.71a.51.51,0,0,1-.51.51H52.42a.5.5,0,0,1-.5-.5h0V24.86a.5.5,0,0,1,.5-.51h0m0,3.62h1.13a.5.5,0,0,1,.51.5h0v2.81a.51.51,0,0,1-.51.51H52.42a.5.5,0,0,1-.5-.51h0V28.48a.5.5,0,0,1,.5-.51h0m3.18-6.45h1.13a.5.5,0,0,1,.5.51h0v9.74a.49.49,0,0,1-.5.5H55.6a.5.5,0,0,1-.51-.5h0V22a.51.51,0,0,1,.51-.51Zm3.15,2.83h1.13a.51.51,0,0,1,.51.51h0v6.59a.51.51,0,0,1-.51.51H58.75a.5.5,0,0,1-.5-.51h0V24.86a.5.5,0,0,1,.5-.51h0M61.88,28H63a.5.5,0,0,1,.51.5h0v1.87a.51.51,0,0,1-.51.51H61.88a.5.5,0,0,1-.5-.51h0V28.48a.5.5,0,0,1,.5-.51h0"
        transform="translate(-1.12 -17.11)" />
</svg>