<svg id="Layer_1" data-name="Layer 1" xmlns="http://www.w3.org/2000/svg" xmlns:xlink="http://www.w3.org/1999/xlink"
    viewBox="0 0 800 800">
    <defs>
        <style>
            .react-simple-maps-1 {
                fill: transparent
            }

            .react-simple-maps-2,
            .react-simple-maps-5 {
                fill-rule: evenodd;
            }

            .react-simple-maps-2 {
                fill: url(#radial-simple-gradient);
            }

            .react-simple-maps-3 {
                fill: url(#linear-simple-gradient);
            }

            .react-simple-maps-4,
            .react-simple-maps-6,
            .react-simple-maps-7,
            .react-simple-maps-8 {
                fill: none;
            }

            .react-simple-maps-4,
            .react-simple-maps-8 {
                stroke: #fff;
                stroke-width: 1.5px;
            }

            .react-simple-maps-5 {
                fill: white;
            }

            .react-simple-maps-6,
            .react-simple-maps-7 {
                stroke: white;
                stroke-linecap: square;
            }

            .react-simple-maps-6 {
                stroke-linejoin: bevel;
                stroke-width: 4px;
            }

            .react-simple-maps-7 {
                stroke-width: 3.5px;
            }

            .react-simple-maps-8 {
                stroke-linecap: round;
            }
        </style>
        <radialGradient id="radial-simple-gradient" cx="16.36" cy="783.57" r="8.97"
            gradientTransform="matrix(21, 7.5, 7.5, -21, -5857.63, 16821.56)" gradientUnits="userSpaceOnUse">
            <stop offset="0" stop-color="#017eb4" />
            <stop offset="1" stop-color="#024a74" />
        </radialGradient>
        <linearGradient id="linear-simple-gradient" x1="384.09" y1="479.84" x2="298.86" y2="264.5"
            gradientTransform="matrix(1, 0, 0, -1, 102.36, 779.06)" gradientUnits="userSpaceOnUse">
            <stop offset="0" stop-color="#024a74" />
            <stop offset="1" stop-color="#017eb4" />
        </linearGradient>
    </defs>
    <path class="react-simple-maps-1"
        d="M79.21,0H720.79C764.54,0,800,48.76,800,108.91V691.09C800,751.24,764.54,800,720.79,800H79.21C35.46,800,0,751.24,0,691.09V108.91C0,48.76,35.46,0,79.21,0Z" />
    <path class="react-simple-maps-1"
        d="M622.92,395c0,118.93-96.41,215.34-215.34,215.34S192.24,513.94,192.24,395s96.41-215.34,215.34-215.34S622.92,276.08,622.92,395Z" />
    <path class="react-simple-maps-2" d="M556.76,292a179.43,179.43,0,1,0-56.82,258.25Z" />
    <path class="react-simple-maps-3"
        d="M442,319.64l22.23,16.67a12.1,12.1,0,0,0,3.74,1.89c13.43,4,21.66-14.33,9.72-21.67L439,292.72c-13.84-8.3-8.78-29.49,7.33-30.64l10.62-.76,56.78-3.15A45,45,0,0,1,560,313l-17.83,78.45L528,455.3A43.75,43.75,0,0,1,510,482c-8,5.5-18.1,12.19-26.18,17.07C472.37,506,457,514,444.92,520.08a30,30,0,0,1-34.68-5.77,30.63,30.63,0,0,1-8.36-27.76l9.53-47a32.75,32.75,0,0,0-21.76-37.62l-10.58-3.52a30.47,30.47,0,0,1-19.27-38.56L366,341.34a44.86,44.86,0,0,1,42.56-30.67h6.55A44.87,44.87,0,0,1,442,319.64Z" />
    <path class="react-simple-maps-4"
        d="M542.17,391.42,528,455.3A43.75,43.75,0,0,1,510,482c-8,5.5-18.1,12.19-26.18,17.07C472.37,506,457,514,444.92,520.08a30,30,0,0,1-34.68-5.77,30.63,30.63,0,0,1-8.36-27.76l9.53-47a32.75,32.75,0,0,0-21.76-37.62l-10.58-3.52a30.47,30.47,0,0,1-19.27-38.56L366,341.34a44.86,44.86,0,0,1,42.56-30.67h6.55a44.87,44.87,0,0,1,26.91,9l22.23,16.67a12.1,12.1,0,0,0,3.74,1.89c13.43,4,21.66-14.33,9.72-21.67L439,292.72c-13.84-8.3-8.78-29.49,7.33-30.64l10.62-.76,56.78-3.15A45,45,0,0,1,560,313Zm0,0-27.63,6.14a16.73,16.73,0,1,1-3.63-33.06h.77a17.21,17.21,0,0,1,13.21,6.19Z" />
    <path class="react-simple-maps-5"
        d="M205.7,395c0-111.5,90.38-201.88,201.88-201.88a201.47,201.47,0,0,1,155,72.49l7.07-32.13a228.07,228.07,0,0,0-162-67.28c-126.36,0-228.8,102.44-228.8,228.8s102.44,228.8,228.8,228.8a228.45,228.45,0,0,0,79.28-14.11l7.07-32.16a201,201,0,0,1-86.35,19.35C296.08,596.89,205.7,506.5,205.7,395Z" />
    <path class="react-simple-maps-6" d="M654.32,484.73,757.5,404,654.32,323.23" />
    <path class="react-simple-maps-6" d="M142.89,484.73,39.71,404l103.18-80.75" />
    <path class="react-simple-maps-7" d="M609.46,197.62l-89.72,421.7" />
    <path class="react-simple-maps-8"
        d="M304.4,345.66c4.48,31.4,11.66,40.38,11.66,67.29,0,19.74-16.15,31.41-16.15,31.41" />
    <path class="react-simple-maps-8" d="M273,466.79C237.1,386,264,287.34,352.88,251.45" />
</svg>