<svg id="Layer_1" data-name="Layer 1" xmlns="http://www.w3.org/2000/svg" xmlns:xlink="http://www.w3.org/1999/xlink"
    viewBox="0 0 391.69 392.19">
    <defs>
        <style>
            .vite-1 {
                fill: url(#vite-gradient);
            }

            .vite-2 {
                fill: #ffa800
            }
        </style>
        <linearGradient id="vite-gradient" x1="107.05" y1="445.3" x2="336.05" y2="134.3"
            gradientTransform="matrix(1, 0, 0, -1, 0, 403.89)" gradientUnits="userSpaceOnUse">
            <stop offset="0" stop-color="#41d1ff" />
            <stop offset="1" stop-color="#bd34fe" />
        </linearGradient>
        <linearGradient id="vite-gradient-2" x1="215.04" y1="398.04" x2="256.46" y2="113.87"
            gradientTransform="matrix(1, 0, 0, -1, 0, 403.89)" gradientUnits="userSpaceOnUse">
            <stop offset="0" stop-color="#ffea83" />
            <stop offset="0.08" stop-color="#ffdd35" />
            <stop offset="1" stop-color="#ffa800" />
        </linearGradient>
    </defs>
    <path class="vite-1"
        d="M399.64,59.52l-184,329a10,10,0,0,1-17.41.08L10.58,59.56A10,10,0,0,1,21,44.76L205.22,77.68a10.14,10.14,0,0,0,3.56,0L389.12,44.81A10,10,0,0,1,399.64,59.52Z"
        transform="translate(-9.24 -1.48)" />
    <path class="vite-2"
        d="M293,1.57,156.8,28.26a5,5,0,0,0-4,4.61L144.4,174.33a5,5,0,0,0,6.11,5.17l37.91-8.75a5,5,0,0,1,6,5.87l-11.26,55.15a5,5,0,0,0,6.35,5.79L213,230.45a5,5,0,0,1,6.35,5.79l-17.9,86.63a5,5,0,0,0,9.09,3.73l2-3.1,111-221.43A5,5,0,0,0,318,94.92l-39,7.53a5,5,0,0,1-5.75-6.29L298.73,7.87A5,5,0,0,0,293,1.57Z"
        transform="translate(-9.24 -1.48)" />
</svg>